<?xml version="1.0" encoding="UTF-8"?>
<svg id="svg1" xmlns="http://www.w3.org/2000/svg" xmlns:svg="http://www.w3.org/2000/svg" xmlns:sodipodi="http://sodipodi.sourceforge.net/DTD/sodipodi-0.dtd" xmlns:inkscape="http://www.inkscape.org/namespaces/inkscape" version="1.1" viewBox="0 0 1234.6 1432.3">
  <!-- Generator: Adobe Illustrator 29.0.1, SVG Export Plug-In . SVG Version: 2.1.0 Build 192)  -->
  <defs>
    <style>
      .st0 {
        fill: #a5bccc;
      }

      .st0, .st1, .st2, .st3, .st4, .st5, .st6, .st7, .st8, .st9, .st10, .st11, .st12, .st13 {
        stroke: #575756;
      }

      .st1 {
        fill: #a2b9c8;
      }

      .st14 {
        fill: #f54242;
      }

      .st2 {
        fill: #8fa4b0;
      }

      .st15 {
        font-size: 18.6px;
      }

      .st15, .st16, .st17, .st18, .st19, .st20, .st21, .st22 {
        isolation: isolate;
      }

      .st15, .st17, .st18, .st19, .st20, .st21, .st22 {
        font-family: ArialMT, Arial;
      }

      .st3 {
        fill: #bbd5e7;
      }

      .st17 {
        font-size: 13.7px;
      }

      .st4 {
        fill: #b4cdde;
      }

      .st23 {
        fill: #fff;
      }

      .st5 {
        fill: #adc5d5;
      }

      .st18 {
        font-size: 17.8px;
      }

      .st6 {
        fill: #889ca8;
      }

      .st7 {
        fill: #aec7d7;
      }

      .st8 {
        fill: #c2def1;
      }

      .st9 {
        stroke-width: 3px;
      }

      .st9, .st10, .st11, .st12 {
        fill: #c9e6fa;
      }

      .st10, .st24 {
        stroke-width: 5px;
      }

      .st24 {
        fill: none;
        stroke: #70b62c;
      }

      .st11 {
        stroke-width: 8px;
      }

      .st13 {
        fill: #96abb9;
      }

      .st19 {
        font-size: 16.4px;
      }

      .st20 {
        font-size: 19.7px;
      }

      .st21 {
        font-size: 17.9px;
      }

      .st22 {
        font-size: 18px;
      }
    </style>
  </defs>
  <g id="Floor">
    <polygon id="BaseBackground" class="st11" points="1000.6 6.3 -.9 6.3 -.9 233.3 1000.6 233.3 1000.6 1437.5 1233.7 1437.5 1233.7 233.3 1233.7 6.3 1000.6 6.3"/>
    <g id="ObjectCabinet212a">
      <rect id="SpaceCabinet212a" class="st10" x="1113.6" y="435.8" width="121" height="50.8"/>
      <rect id="DoorCabinet212a" class="st12" x="1109.7" y="452.1" width="7.9" height="18.1"/>
      <g id="TextCabinet212a" class="st16">
        <g class="st16">
          <g class="st16">
            <g class="st16">
              <g class="st16">
                <g class="st16">
                  <g class="st16">
                    <text class="st22" transform="translate(1153.1 465.7)"><tspan x="0" y="0">212a</tspan></text>
                  </g>
                </g>
              </g>
            </g>
          </g>
        </g>
      </g>
    </g>
    <g id="ObjectStairsFirst">
      <rect id="SpaceStairsFirst" class="st9" x="203" y="163.7" width="92.1" height="66.8"/>
      <g id="StepsSpaceStairsFirst1">
        <rect id="_Ступенька24" class="st0" x="221.7" y="164.6" width="6" height="32.5"/>
        <rect id="_Ступенька25" class="st0" x="227.7" y="164.6" width="6" height="32.5"/>
        <rect id="_Ступенька26" class="st5" x="233.7" y="164.6" width="6" height="32.5"/>
        <rect id="_Ступенька27" class="st5" x="240" y="164.6" width="6" height="32.5"/>
        <rect id="_Ступенька28" class="st4" x="246" y="164.6" width="6" height="32.5"/>
        <rect id="_Ступенька29" class="st4" x="252" y="164.6" width="6" height="32.5"/>
        <rect id="_Ступенька30" class="st3" x="258" y="164.6" width="6" height="32.5"/>
        <rect id="_Ступенька31" class="st8" x="264" y="164.6" width="6" height="32.5"/>
        <rect id="_Ступенька32" class="st12" x="270" y="164.6" width="6" height="32.5"/>
      </g>
      <g id="StepsSpaceStairsFirst2">
        <rect id="_Ступенька33" class="st7" x="221.7" y="197.1" width="6" height="32.5"/>
        <rect id="_Ступенька34" class="st7" x="227.7" y="197.1" width="6" height="32.5"/>
        <rect id="_Ступенька35" class="st1" x="233.7" y="197.1" width="6" height="32.5"/>
        <rect id="_Ступенька36" class="st1" x="240" y="197.1" width="6" height="32.5"/>
        <rect id="_Ступенька37" class="st13" x="246" y="197.1" width="6" height="32.5"/>
        <rect id="_Ступенька38" class="st13" x="252" y="197.1" width="6" height="32.5"/>
        <rect id="_Ступенька39" class="st2" x="258" y="197.1" width="6" height="32.5"/>
        <rect id="_Ступенька40" class="st2" x="264" y="197.1" width="6" height="32.5"/>
        <rect id="_Ступенька41" class="st6" x="270" y="197.1" width="6" height="32.5"/>
      </g>
      <rect id="DoorSpaceStairsFirst" class="st12" x="290.8" y="181.1" width="7.8" height="31.7"/>
    </g>
    <g id="ObjectStairsSecond">
      <rect id="SpaceStairsSecond" class="st9" x="1001.2" y="672.7" width="66.4" height="92.1"/>
      <g id="StepsStairsSecond2">
        <rect id="_Ступенька" class="st0" x="1034.2" y="691.6" width="32.5" height="6"/>
        <rect id="_Ступенька1" class="st0" x="1034.2" y="697.6" width="32.5" height="6"/>
        <rect id="_Ступенька2" class="st5" x="1034.2" y="703.6" width="32.5" height="6"/>
        <rect id="_Ступенька3" class="st5" x="1034.1" y="709.9" width="32.5" height="6"/>
        <rect id="_Ступенька4" class="st4" x="1034.1" y="715.9" width="32.5" height="6"/>
        <rect id="_Ступенька5" class="st4" x="1034.1" y="721.9" width="32.5" height="6"/>
        <rect id="_Ступенька6" class="st3" x="1034.1" y="727.9" width="32.5" height="6"/>
        <rect id="_Ступенька7" class="st8" x="1034.1" y="733.9" width="32.5" height="6"/>
        <rect id="_Ступенька8" class="st12" x="1034.1" y="739.9" width="32.5" height="6"/>
      </g>
      <g id="StepsStairsSecond1">
        <rect id="_Ступенька9" class="st7" x="1001.7" y="691.5" width="32.5" height="6"/>
        <rect id="_Ступенька10" class="st7" x="1001.7" y="697.5" width="32.5" height="6"/>
        <rect id="_Ступенька11" class="st1" x="1001.7" y="703.5" width="32.5" height="6"/>
        <rect id="_Ступенька12" class="st1" x="1001.7" y="709.9" width="32.5" height="6"/>
        <rect id="_Ступенька13" class="st13" x="1001.7" y="715.9" width="32.5" height="6"/>
        <rect id="_Ступенька14" class="st13" x="1001.7" y="721.9" width="32.5" height="6"/>
        <rect id="_Ступенька15" class="st2" x="1001.7" y="727.9" width="32.5" height="6"/>
        <rect id="_Ступенька16" class="st2" x="1001.7" y="733.9" width="32.5" height="6"/>
        <rect id="_Ступенька17" class="st6" x="1001.7" y="739.9" width="32.5" height="6"/>
      </g>
      <rect id="DoorStairsSecond" class="st12" x="1018.5" y="760.8" width="31.7" height="7.8"/>
    </g>
    <g id="ObjectBathroomMan">
      <rect id="SpaceBathroomMan" class="st10" y="128.2" width="134.7" height="52"/>
      <rect id="DoorBathroomMan" class="st12" x="130.5" y="139.4" width="7.8" height="17.6"/>
      <g id="TextBathroomMan" class="st16">
        <g class="st16">
          <g class="st16">
            <g class="st16">
              <g class="st16">
                <g class="st16">
                  <g class="st16">
                    <text class="st18" transform="translate(7.8 161.2) scale(1.1 1)"><tspan x="0" y="0">С\у Мужской</tspan></text>
                  </g>
                </g>
              </g>
            </g>
          </g>
        </g>
      </g>
    </g>
    <g id="ObjectBathroomWoman">
      <rect id="SpaceBathroomWoman" class="st10" x="1.2" y="180.5" width="133.5" height="52"/>
      <rect id="DoorBathroomWoman" class="st12" x="130.5" y="197.5" width="7.8" height="18"/>
      <g id="TextBathroomWoman" class="st16">
        <g class="st16">
          <g class="st16">
            <g class="st16">
              <g class="st16">
                <g class="st16">
                  <g class="st16">
                    <text class="st18" transform="translate(8.8 213.6) scale(1.1 1)"><tspan x="0" y="0">С\у Женский</tspan></text>
                  </g>
                </g>
              </g>
            </g>
          </g>
        </g>
      </g>
    </g>
    <g id="ObjectCabinet201">
      <rect id="Space201" class="st10" x="1.2" y="2.5" width="170.7" height="121.4"/>
      <rect id="Door201" class="st12" x="149.3" y="120" width="16.6" height="7.7"/>
      <g id="Text201" class="st16">
        <g class="st16">
          <g class="st16">
            <g id="_x33_01" class="st16">
              <g class="st16">
                <g class="st16">
                  <g class="st16">
                    <text class="st21" transform="translate(70.3 72)"><tspan x="0" y="0">201</tspan></text>
                  </g>
                </g>
              </g>
            </g>
          </g>
        </g>
      </g>
    </g>
    <g id="ObjectCabinet202">
      <rect id="Space202" class="st10" x="171.2" y="2.5" width="170.1" height="121.4"/>
      <rect id="Door202" class="st12" x="210.4" y="120" width="16.6" height="7.7"/>
      <g id="Text202" class="st16">
        <g class="st16">
          <g class="st16">
            <g id="_x33_02" class="st16">
              <g class="st16">
                <g class="st16">
                  <g class="st16">
                    <text class="st18" transform="translate(239.1 70.8) scale(.9 1)"><tspan x="0" y="0">202</tspan></text>
                  </g>
                </g>
              </g>
            </g>
          </g>
        </g>
      </g>
    </g>
    <g id="ObjectCabinet203">
      <rect id="Space203" class="st10" x="341.3" y="2.5" width="170" height="121.4"/>
      <rect id="DoorFirst203" class="st12" x="481.7" y="119.9" width="16.6" height="7.8"/>
      <g id="Text203" class="st16">
        <g class="st16">
          <g class="st16">
            <g class="st16">
              <g class="st16">
                <g class="st16">
                  <g class="st16">
                    <text class="st18" transform="translate(414.2 70.3) scale(.9 1)"><tspan x="0" y="0">203</tspan></text>
                  </g>
                </g>
              </g>
            </g>
          </g>
        </g>
      </g>
    </g>
    <g id="ObjectCabinet204">
      <rect id="Space204" class="st10" x="511.3" y="2.5" width="170" height="121.4"/>
      <rect id="Door204" class="st12" x="654.3" y="120.5" width="16.6" height="7.8"/>
      <g id="Text204" class="st16">
        <g class="st16">
          <g class="st16">
            <g class="st16">
              <g class="st16">
                <g class="st16">
                  <g class="st16">
                    <text class="st18" transform="translate(584.3 70) scale(.9 1)"><tspan x="0" y="0">204</tspan></text>
                  </g>
                </g>
              </g>
            </g>
          </g>
        </g>
      </g>
    </g>
    <g id="ObjectCabinet208">
      <rect id="Space208" class="st10" x="839.1" y="170.1" width="162.7" height="60.9"/>
      <rect id="Door208" class="st12" x="910.8" y="166.1" width="18" height="7.8"/>
      <g id="Text208" class="st16">
        <g class="st16">
          <g class="st16">
            <g id="_x33_07" class="st16">
              <g class="st16">
                <g class="st16">
                  <g class="st16">
                    <text class="st22" transform="translate(908.5 205.2)"><tspan x="0" y="0">208</tspan></text>
                  </g>
                </g>
              </g>
            </g>
          </g>
        </g>
      </g>
    </g>
    <g id="ObjectCabinet209">
      <rect id="Space209" class="st10" x="681.3" y="170" width="157.8" height="61"/>
      <rect id="Door209" class="st12" x="776.1" y="166.1" width="18" height="7.8"/>
      <g id="Text209" class="st16">
        <g class="st16">
          <g class="st16">
            <g id="_x33_08" class="st16">
              <g class="st16">
                <g class="st16">
                  <g class="st16">
                    <text class="st18" transform="translate(752.5 205.2)"><tspan x="0" y="0">209</tspan></text>
                  </g>
                </g>
              </g>
            </g>
          </g>
        </g>
      </g>
    </g>
    <g id="ObjectCabinet210">
      <rect id="Space210" class="st10" x="1002.5" y="2.4" width="230.5" height="121.9"/>
      <rect id="Door210" class="st12" x="1084.7" y="122.6" width="17" height="7.7"/>
      <g id="Text210" class="st16">
        <g class="st16">
          <g class="st16">
            <g class="st16">
              <g class="st16">
                <g class="st16">
                  <g class="st16">
                    <text class="st22" transform="translate(1114 65.8) scale(.9 1)"><tspan x="0" y="0">210</tspan></text>
                  </g>
                </g>
              </g>
            </g>
          </g>
        </g>
      </g>
    </g>
    <g id="ObjectCabinet211">
      <rect id="Space211" class="st10" x="1112.9" y="124.4" width="120.1" height="157"/>
      <rect id="Door211" class="st12" x="1109" y="250" width="7.8" height="18"/>
      <g id="Text211" class="st16">
        <g class="st16">
          <g class="st16">
            <g class="st16">
              <g class="st16">
                <g class="st16">
                  <g class="st16">
                    <text class="st18" transform="translate(1158.9 208)"><tspan x="0" y="0">211</tspan></text>
                  </g>
                </g>
              </g>
            </g>
          </g>
        </g>
      </g>
    </g>
    <g id="ObjectCabinet212">
      <rect id="Space212" class="st10" x="1113" y="278.9" width="120.1" height="157"/>
      <rect id="Door212" class="st12" x="1109.1" y="395.2" width="7.8" height="18.7"/>
      <g id="Text212" class="st16">
        <g class="st16">
          <g class="st16">
            <g class="st16">
              <g class="st16">
                <g class="st16">
                  <g class="st16">
                    <text class="st15" transform="translate(1159.5 359.6)"><tspan x="0" y="0">212</tspan></text>
                  </g>
                </g>
              </g>
            </g>
          </g>
        </g>
      </g>
    </g>
    <g id="ObjectCabinet213">
      <rect id="Space213" class="st10" x="1113.3" y="486.9" width="120.1" height="157"/>
      <rect id="Door213" class="st12" x="1109.4" y="556.4" width="7.8" height="18.1"/>
      <g id="Text213" class="st16">
        <g class="st16">
          <g class="st16">
            <g class="st16">
              <g class="st16">
                <g class="st16">
                  <g class="st16">
                    <text class="st20" transform="translate(1160.6 568.2) scale(.9 1)"><tspan x="0" y="0">213</tspan></text>
                  </g>
                </g>
              </g>
            </g>
          </g>
        </g>
      </g>
    </g>
    <g id="ObjectCabinet214">
      <rect id="Space214" class="st10" x="1113.2" y="639.4" width="120.1" height="120"/>
      <rect id="Door214" class="st12" x="1109.3" y="687.8" width="7.8" height="18.1"/>
      <g id="Text214" class="st16">
        <g class="st16">
          <g class="st16">
            <g class="st16">
              <g class="st16">
                <g class="st16">
                  <g class="st16">
                    <text class="st18" transform="translate(1161.4 704.5)"><tspan x="0" y="0">214</tspan></text>
                  </g>
                </g>
              </g>
            </g>
          </g>
        </g>
      </g>
    </g>
    <g id="ObjectCabinet215">
      <rect id="Space215" class="st10" x="1113.2" y="759.4" width="120.1" height="180.6"/>
      <rect id="DoorSecond215" class="st12" x="1109.4" y="774.9" width="7.8" height="18.1"/>
      <g id="Text215" class="st16">
        <g class="st16">
          <g class="st16">
            <g class="st16">
              <g class="st16">
                <g class="st16">
                  <g class="st16">
                    <text class="st22" transform="translate(1153 856.7)"><tspan x="0" y="0">215</tspan></text>
                  </g>
                </g>
              </g>
            </g>
          </g>
        </g>
      </g>
    </g>
    <g id="ObjectCabinet216">
      <rect id="Space216" class="st10" x="1113.3" y="942.8" width="120.1" height="269.5"/>
      <rect id="Door216" class="st12" x="1109.3" y="969" width="7.8" height="18"/>
      <g id="Text216" class="st16">
        <g class="st16">
          <g class="st16">
            <g class="st16">
              <g class="st16">
                <g class="st16">
                  <g class="st16">
                    <text class="st18" transform="translate(1163.7 1082.4)"><tspan x="0" y="0">216</tspan></text>
                  </g>
                </g>
              </g>
            </g>
          </g>
        </g>
      </g>
    </g>
    <g id="ObjectCabinet217">
      <rect id="Space217" class="st10" x="1000.3" y="1019.7" width="113" height="192.6"/>
      <rect id="Door217" class="st12" x="1084.9" y="1015.8" width="18.1" height="7.8"/>
      <g id="Text217" class="st16">
        <g class="st16">
          <g class="st16">
            <g class="st16">
              <g class="st16">
                <g class="st16">
                  <g class="st16">
                    <text class="st22" transform="translate(1039.4 1116.6)"><tspan x="0" y="0">217</tspan></text>
                  </g>
                </g>
              </g>
            </g>
          </g>
        </g>
      </g>
    </g>
    <g id="ObjectCabinet218">
      <rect id="Space218" class="st10" x="1002.1" y="543.8" width="74.1" height="128.9"/>
      <rect id="Door218" class="st12" x="1072.3" y="589.4" width="7.8" height="16.5"/>
      <g id="Text218" class="st16">
        <g class="st16">
          <g class="st16">
            <g id="_x33_20" class="st16">
              <g class="st16">
                <g class="st16">
                  <g class="st16">
                    <text class="st19" transform="translate(1022.6 616.9) scale(1.1 1)"><tspan x="0" y="0">218</tspan></text>
                  </g>
                </g>
              </g>
            </g>
          </g>
        </g>
      </g>
    </g>
    <g id="ObjectCabinet219">
      <rect id="Space219" class="st10" x="1002.1" y="430.7" width="74.1" height="113.1"/>
      <rect id="Door219" class="st12" x="1072.3" y="499.5" width="7.8" height="18"/>
      <g id="Text219" class="st16">
        <g class="st16">
          <g class="st16">
            <g id="_x32_19" class="st16">
              <g class="st16">
                <g class="st16">
                  <g class="st16">
                    <text class="st17" transform="translate(1008 498.6) scale(.9 1)"><tspan x="0" y="0">219</tspan></text>
                  </g>
                </g>
              </g>
            </g>
          </g>
        </g>
      </g>
    </g>
    <g id="AllowedLines">
      <line id="itemQ57" class="st24" x1="1093.9" y1="936.8" x2="1093.9" y2="974.8"/>
      <line id="itemQ56" class="st24" x1="1109.9" y1="784" x2="1093.6" y2="784"/>
      <line id="itemQ55" class="st24" x1="1093.9" y1="876" x2="1093.9" y2="940"/>
      <line id="itemQ53" class="st24" x1="1093.9" y1="814.3" x2="1093.9" y2="876"/>
      <line id="itemQ52" class="st24" x1="1093.9" y1="814.3" x2="1041.9" y2="814.3"/>
      <line id="itemQ51" class="st24" x1="1093.9" y1="788.9" x2="1093.9" y2="814.8"/>
      <line id="itemQ50" class="st24" x1="1109.7" y1="696.9" x2="1093.9" y2="696.9"/>
      <line id="itemQ49" class="st24" x1="1041.9" y1="921.1" x2="1041.9" y2="814.8"/>
      <line id="itemQ48" class="st24" x1="1041.9" y1="814.8" x2="1041.9" y2="769.4"/>
      <line id="itemQ47" class="st24" x1="1093.9" y1="740.2" x2="1093.9" y2="789.5"/>
      <line id="itemQ46" class="st24" x1="1109.7" y1="565.5" x2="1093.9" y2="565.5"/>
      <line id="itemQ45" class="st24" x1="1093.9" y1="589.7" x2="1093.9" y2="740.8"/>
      <line id="itemQ44" class="st24" x1="1095.4" y1="597.6" x2="1079.5" y2="597.6"/>
      <line id="itemQ43" class="st24" x1="1093.9" y1="549" x2="1093.9" y2="589.7"/>
      <line id="itemQ42" class="st24" x1="1109.7" y1="461.2" x2="1093.9" y2="461.2"/>
      <line id="itemQ41" class="st24" x1="1093.9" y1="501.7" x2="1093.9" y2="549"/>
      <line id="itemQ40" class="st24" x1="1096.3" y1="508.5" x2="1078.6" y2="508.5"/>
      <line id="itemQ39" class="st24" x1="1093.9" y1="458.4" x2="1093.9" y2="504"/>
      <line id="itemQ38" class="st24" x1="1109.7" y1="404.5" x2="1093.9" y2="404.5"/>
      <line id="itemQ37" class="st24" x1="1093.9" y1="298.3" x2="1093.9" y2="458.4"/>
      <line id="itemQ36" class="st24" x1="1109.8" y1="259" x2="1093.9" y2="259"/>
      <line id="itemQ35" class="st24" x1="1093.9" y1="209.1" x2="1093.9" y2="298.3"/>
      <line id="itemQ33" class="st24" x1="1093.9" y1="146.8" x2="1093.9" y2="210.3"/>
      <line id="itemQ32" class="st24" x1="1096.3" y1="146.8" x2="1033.2" y2="146.8"/>
      <line id="itemQ31" class="st24" x1="1093.2" y1="145" x2="1093.2" y2="128.4"/>
      <line id="itemQ30" class="st24" x1="1033.2" y1="146.8" x2="895.7" y2="146.8"/>
      <line id="itemQ29" class="st24" x1="920.4" y1="166.8" x2="920.4" y2="147.8"/>
      <line id="itemQ28" class="st24" x1="896.6" y1="146.8" x2="820.2" y2="146.8"/>
      <line id="itemQ27" class="st24" x1="820.2" y1="146.8" x2="792" y2="146.8"/>
      <line id="itemQ26" class="st24" x1="832.5" y1="145.6" x2="832.5" y2="128.6"/>
      <line id="itemQ25" class="st24" x1="785.1" y1="166.8" x2="785.1" y2="147.8"/>
      <line id="itemQ24" class="st24" x1="792" y1="146.8" x2="766.3" y2="146.8"/>
      <line id="itemQ22" class="st24" x1="766.3" y1="146.8" x2="654.5" y2="146.8"/>
      <line id="itemQ20" class="st24" x1="654.4" y1="146.8" x2="602.4" y2="146.8"/>
      <line id="itemQ19" class="st24" x1="602.4" y1="146.8" x2="544.7" y2="146.8"/>
      <line id="itemQ18" class="st24" x1="662.6" y1="145.4" x2="662.6" y2="128.8"/>
      <line id="itemQ16" class="st24" x1="544.7" y1="146.8" x2="435.5" y2="146.8"/>
      <line id="itemQ15" class="st24" x1="216.7" y1="144.4" x2="216.7" y2="127.7"/>
      <line id="itemQ14" class="st24" x1="490.1" y1="146.4" x2="490.1" y2="127.7"/>
      <line id="itemQ13" class="st24" x1="435.5" y1="146.8" x2="358.7" y2="146.8"/>
      <line id="itemQ12" class="st24" x1="358.7" y1="198.5" x2="358.7" y2="146.8"/>
      <line id="itemQ11" class="st24" x1="360.7" y1="196" x2="299.3" y2="196"/>
      <line id="itemQ10" class="st24" x1="358.7" y1="146.8" x2="212.7" y2="146.8"/>
      <line id="itemQ8" class="st24" x1="213.1" y1="146.8" x2="157.6" y2="146.8"/>
      <line id="itemQ7" class="st24" x1="157.6" y1="180.8" x2="157.6" y2="146.8"/>
      <line id="itemQ6" class="st24" x1="157.6" y1="147.2" x2="138.6" y2="147.2"/>
      <line id="itemQ5" class="st24" x1="157.6" y1="148.2" x2="157.6" y2="127.7"/>
      <line id="itemQ2" class="st24" x1="157.6" y1="206.5" x2="157.6" y2="180.8"/>
      <line id="itemQ1" class="st24" x1="157.6" y1="206.5" x2="138.6" y2="206.5"/>
      <line id="itemQ211" class="st24" x1="985.9" y1="145.4" x2="985.9" y2="126.5"/>
      <line id="itemQ561" class="st24" x1="1108.7" y1="978" x2="1092.4" y2="978"/>
      <line id="itemQ571" class="st24" x1="1093.9" y1="974.8" x2="1093.9" y2="1015.8"/>
    </g>
    <g id="Intersection">
      <circle id="Intersection4" class="st14" cx="1093.9" cy="978" r="4.5"/>
      <circle id="Intersection8" class="st14" cx="1093.9" cy="784" r="4.5"/>
      <circle id="Intersection9" class="st14" cx="1041.1" cy="814" r="4.5"/>
      <circle id="Intersection10" class="st14" cx="1093.8" cy="697.2" r="4.5"/>
      <circle id="Intersection11" class="st14" cx="1094.7" cy="566.1" r="4.5"/>
      <circle id="Intersection12" class="st14" cx="1094.7" cy="597.3" r="4.5"/>
      <circle id="Intersection13" class="st14" cx="1093.9" cy="508.5" r="4.5"/>
      <circle id="Intersection15" class="st14" cx="1093.9" cy="404.5" r="4.5"/>
      <circle id="Intersection16" class="st14" cx="1093.2" cy="259" r="4.5"/>
      <circle id="Intersection18" class="st14" cx="1093.2" cy="146.5" r="4.5"/>
      <circle id="Intersection19" class="st14" cx="985.8" cy="146" r="4.5"/>
      <circle id="Intersection20" class="st14" cx="920.4" cy="146.8" r="4.5"/>
      <circle id="Intersection21" class="st14" cx="832.6" cy="146.5" r="4.5"/>
      <circle id="Intersection22" class="st14" cx="785.1" cy="146.8" r="4.5"/>
      <circle id="Intersection25" class="st14" cx="662.6" cy="145.6" r="4.5"/>
      <circle id="Intersection27" class="st14" cx="216.7" cy="146.4" r="4.5"/>
      <circle id="Intersection28" class="st14" cx="359.1" cy="147.3" r="4.5"/>
      <circle id="Intersection29" class="st14" cx="358" cy="195.7" r="4.5"/>
      <circle id="Intersection33" class="st14" cx="157.6" cy="206.5" r="4.5"/>
      <circle id="Intersection271" class="st14" cx="490" cy="144.4" r="4.5"/>
      <circle id="Intersection312" class="st14" cx="157.6" cy="147.2" r="4.5"/>
      <circle id="Intersection131" class="st14" cx="1094.9" cy="461.8" r="4.5"/>
    </g>
    <g id="ObjectCabinet205">
      <rect id="Space205" class="st10" x="680.4" y="2.4" width="170" height="121.4"/>
      <rect id="Door205" class="st12" x="824.2" y="120.7" width="16.6" height="7.8"/>
      <g id="Text205" class="st16">
        <g class="st16">
          <g class="st16">
            <g id="_x33_05" class="st16">
              <g class="st16">
                <g class="st16">
                  <g class="st16">
                    <text class="st18" transform="translate(754.3 70.2) scale(.9 1)"><tspan x="0" y="0">205</tspan></text>
                  </g>
                </g>
              </g>
            </g>
          </g>
        </g>
      </g>
    </g>
    <g id="ObjectCabinet206">
      <rect id="Space206" class="st10" x="852.4" y="2.3" width="149" height="122"/>
      <rect id="Door206" class="st12" x="977.7" y="118.6" width="14.6" height="7.8"/>
      <g id="Text206" class="st16">
        <g class="st16">
          <g class="st16">
            <g id="_x33_06" class="st16">
              <g class="st16">
                <g class="st16">
                  <g class="st16">
                    <text class="st18" transform="translate(916.4 67.9) scale(.8 1)"><tspan x="0" y="0">206</tspan></text>
                  </g>
                </g>
              </g>
            </g>
          </g>
        </g>
      </g>
    </g>
    <g id="ObjectStairsSecond1">
      <rect id="SpaceStairsThird" class="st9" x="1003.4" y="924.9" width="66.4" height="92.1"/>
      <g id="StepsStairsThird2">
        <rect id="_Ступенька111" class="st0" x="1004.3" y="992.1" width="32.5" height="6"/>
        <rect id="_Ступенька1111" class="st0" x="1004.3" y="986.1" width="32.5" height="6"/>
        <rect id="_Ступенька21" class="st5" x="1004.3" y="980.1" width="32.5" height="6"/>
        <rect id="_Ступенька211" class="st5" x="1004.4" y="973.8" width="32.5" height="6"/>
        <rect id="_Ступенька411" class="st4" x="1004.4" y="967.8" width="32.5" height="6"/>
        <rect id="_Ступенька51" class="st4" x="1004.4" y="961.8" width="32.5" height="6"/>
        <rect id="_Ступенька61" class="st3" x="1004.4" y="955.8" width="32.5" height="6"/>
        <rect id="_Ступенька71" class="st8" x="1004.4" y="949.8" width="32.5" height="6"/>
        <rect id="_Ступенька81" class="st12" x="1004.4" y="943.8" width="32.5" height="6"/>
      </g>
      <g id="StepsStairsThird1">
        <rect id="_Ступенька91" class="st7" x="1036.8" y="992.2" width="32.5" height="6"/>
        <rect id="_Ступенька101" class="st7" x="1036.8" y="986.2" width="32.5" height="6"/>
        <rect id="_Ступенька11111" data-name="_Ступенька1111" class="st1" x="1036.8" y="980.2" width="32.5" height="6"/>
        <rect id="_Ступенька121" class="st1" x="1036.8" y="973.8" width="32.5" height="6"/>
        <rect id="_Ступенька131" class="st13" x="1036.8" y="967.8" width="32.5" height="6"/>
        <rect id="_Ступенька141" class="st13" x="1036.8" y="961.8" width="32.5" height="6"/>
        <rect id="_Ступенька151" class="st2" x="1036.8" y="955.8" width="32.5" height="6"/>
        <rect id="_Ступенька161" class="st2" x="1036.8" y="949.8" width="32.5" height="6"/>
        <rect id="_Ступенька171" class="st6" x="1036.8" y="943.8" width="32.5" height="6"/>
      </g>
      <rect id="DoorStairsThird" class="st12" x="1020.8" y="921.1" width="31.7" height="7.8"/>
    </g>
  </g>
  <rect id="EmptySpace" class="st23" x="987.6" y="1212.3" width="265.8" height="235.1"/>
</svg>