<?xml version="1.0" encoding="UTF-8"?>
<svg id="svg1" xmlns="http://www.w3.org/2000/svg" xmlns:svg="http://www.w3.org/2000/svg" xmlns:sodipodi="http://sodipodi.sourceforge.net/DTD/sodipodi-0.dtd" xmlns:inkscape="http://www.inkscape.org/namespaces/inkscape" version="1.1" viewBox="0 0 1234.6 1432.3">
  <!-- Generator: Adobe Illustrator 29.0.1, SVG Export Plug-In . SVG Version: 2.1.0 Build 192)  -->
  <defs>
    <style>
      .st0 {
        fill: #a5bccc;
      }

      .st0, .st1, .st2, .st3, .st4, .st5, .st6, .st7, .st8, .st9, .st10, .st11, .st12, .st13 {
        stroke: #575756;
      }

      .st1 {
        fill: #a2b9c8;
      }

      .st14 {
        fill: #f54242;
      }

      .st2 {
        fill: #8fa4b0;
      }

      .st3 {
        fill: #bbd5e7;
      }

      .st15, .st16, .st17, .st18 {
        isolation: isolate;
      }

      .st16 {
        font-size: 12px;
      }

      .st16, .st17, .st18 {
        font-family: ArialMT, Arial;
      }

      .st4 {
        fill: #b4cdde;
      }

      .st5 {
        fill: #adc5d5;
      }

      .st6 {
        fill: #889ca8;
      }

      .st7 {
        fill: #aec7d7;
      }

      .st8 {
        fill: #c2def1;
      }

      .st9 {
        stroke-width: 3px;
      }

      .st9, .st10, .st11, .st12 {
        fill: #c9e6fa;
      }

      .st10, .st19 {
        stroke-width: 5px;
      }

      .st19 {
        fill: none;
        stroke: #70b62c;
      }

      .st11 {
        stroke-width: 8px;
      }

      .st13 {
        fill: #96abb9;
      }

      .st17 {
        font-size: 17.9px;
      }

      .st18 {
        font-size: 18px;
      }
    </style>
  </defs>
  <g id="Floor">
    <polygon id="BaseBackground" class="st11" points="1002.2 2.7 .7 2.7 .7 229.6 1002.2 229.6 1002.2 1433 1235.3 1433 1235.3 229.6 1235.3 2.7 1002.2 2.7"/>
    <g id="ObjectVenkameraFirst">
      <rect id="SpaceVenkameraFirst" class="st10" x="185.8" y=".7" width="53.5" height="121.4"/>
      <rect id="DoorVenkameraFirst" class="st12" x="204.5" y="118.2" width="18.1" height="7.7"/>
      <g id="TextVenkameraFirst" class="st15">
        <g class="st15">
          <text class="st18" transform="translate(218.9 111.4) rotate(-90)"><tspan x="0" y="0">Венткамера</tspan></text>
        </g>
      </g>
    </g>
    <g id="ObjectVenkameraSecond">
      <rect id="SpaceVenkameraSecond" class="st10" x="1114.5" y="759.7" width="120.1" height="50.8"/>
      <rect id="DoorVenkameraSecond" class="st12" x="1110.6" y="776" width="7.8" height="18.1"/>
      <g id="TextVenkameraSecond" class="st15">
        <g class="st15">
          <text class="st18" transform="translate(1127.4 792.3)"><tspan x="0" y="0">Венткамера</tspan></text>
        </g>
      </g>
    </g>
    <g id="ObjectStairsFirst">
      <rect id="SpaceStairsFirst" class="st9" x="204.6" y="160.1" width="92.1" height="66.8"/>
      <g id="StepsSpaceStairsFirst1">
        <rect id="_Ступенька24" class="st0" x="223.3" y="161" width="6" height="32.5"/>
        <rect id="_Ступенька25" class="st0" x="229.3" y="161" width="6" height="32.5"/>
        <rect id="_Ступенька26" class="st5" x="235.3" y="161" width="6" height="32.5"/>
        <rect id="_Ступенька27" class="st5" x="241.6" y="161" width="6" height="32.5"/>
        <rect id="_Ступенька28" class="st4" x="247.6" y="161" width="6" height="32.5"/>
        <rect id="_Ступенька29" class="st4" x="253.6" y="161" width="6" height="32.5"/>
        <rect id="_Ступенька30" class="st3" x="259.6" y="161" width="6" height="32.5"/>
        <rect id="_Ступенька31" class="st8" x="265.6" y="161" width="6" height="32.5"/>
        <rect id="_Ступенька32" class="st12" x="271.6" y="161" width="6" height="32.5"/>
      </g>
      <g id="StepsSpaceStairsFirst2">
        <rect id="_Ступенька33" class="st7" x="223.3" y="193.5" width="6" height="32.5"/>
        <rect id="_Ступенька34" class="st7" x="229.3" y="193.5" width="6" height="32.5"/>
        <rect id="_Ступенька35" class="st1" x="235.3" y="193.5" width="6" height="32.5"/>
        <rect id="_Ступенька36" class="st1" x="241.6" y="193.5" width="6" height="32.5"/>
        <rect id="_Ступенька37" class="st13" x="247.6" y="193.5" width="6" height="32.5"/>
        <rect id="_Ступенька38" class="st13" x="253.6" y="193.5" width="6" height="32.5"/>
        <rect id="_Ступенька39" class="st2" x="259.6" y="193.5" width="6" height="32.5"/>
        <rect id="_Ступенька40" class="st2" x="265.6" y="193.5" width="6" height="32.5"/>
        <rect id="_Ступенька41" class="st6" x="271.6" y="193.5" width="6" height="32.5"/>
      </g>
      <rect id="DoorSpaceStairsFirst" class="st12" x="292.4" y="177.5" width="7.8" height="31.7"/>
    </g>
    <g id="ObjectStairsSecond">
      <rect id="SpaceStairsSecond" class="st9" x="1002.8" y="669.1" width="66.4" height="92.1"/>
      <g id="StepsStairsSecond2">
        <rect id="_Ступенька" class="st0" x="1035.8" y="688" width="32.5" height="6"/>
        <rect id="_Ступенька1" class="st0" x="1035.8" y="694" width="32.5" height="6"/>
        <rect id="_Ступенька2" class="st5" x="1035.8" y="700" width="32.5" height="6"/>
        <rect id="_Ступенька3" class="st5" x="1035.7" y="706.3" width="32.5" height="6"/>
        <rect id="_Ступенька4" class="st4" x="1035.7" y="712.3" width="32.5" height="6"/>
        <rect id="_Ступенька5" class="st4" x="1035.7" y="718.3" width="32.5" height="6"/>
        <rect id="_Ступенька6" class="st3" x="1035.7" y="724.3" width="32.5" height="6"/>
        <rect id="_Ступенька7" class="st8" x="1035.7" y="730.3" width="32.5" height="6"/>
        <rect id="_Ступенька8" class="st12" x="1035.7" y="736.3" width="32.5" height="6"/>
      </g>
      <g id="StepsStairsSecond1">
        <rect id="_Ступенька9" class="st7" x="1003.3" y="687.9" width="32.5" height="6"/>
        <rect id="_Ступенька10" class="st7" x="1003.3" y="693.9" width="32.5" height="6"/>
        <rect id="_Ступенька11" class="st1" x="1003.3" y="699.9" width="32.5" height="6"/>
        <rect id="_Ступенька12" class="st1" x="1003.3" y="706.3" width="32.5" height="6"/>
        <rect id="_Ступенька13" class="st13" x="1003.3" y="712.3" width="32.5" height="6"/>
        <rect id="_Ступенька14" class="st13" x="1003.3" y="718.3" width="32.5" height="6"/>
        <rect id="_Ступенька15" class="st2" x="1003.3" y="724.3" width="32.5" height="6"/>
        <rect id="_Ступенька16" class="st2" x="1003.3" y="730.3" width="32.5" height="6"/>
        <rect id="_Ступенька17" class="st6" x="1003.3" y="736.3" width="32.5" height="6"/>
      </g>
      <rect id="DoorStairsSecond" class="st12" x="1020.1" y="757.2" width="31.7" height="7.8"/>
    </g>
    <g id="Steps">
      <rect id="_Ступенька18" class="st5" x="1075.1" y="1100" width="39.4" height="6"/>
      <rect id="_Ступенька19" class="st4" x="1075.1" y="1106" width="39.4" height="6"/>
      <rect id="_Ступенька20" class="st4" x="1075.1" y="1112" width="39.4" height="6"/>
      <rect id="_Ступенька21" class="st3" x="1075.1" y="1118" width="39.4" height="6"/>
      <rect id="_Ступенька22" class="st8" x="1075.1" y="1124" width="39.4" height="6"/>
      <rect id="_Ступенька23" class="st12" x="1075.1" y="1130" width="39.4" height="6"/>
    </g>
    <g id="ObjectBathroomMan">
      <rect id="SpaceBathroomMan" class="st10" y="122.3" width="127.4" height="52.3"/>
      <rect id="DoorBathroomMan" class="st12" x="123.5" y="134.9" width="7.8" height="15"/>
      <g id="TextBathroomMan" class="st15">
        <g class="st15">
          <text class="st16" transform="translate(29.5 151.1)"><tspan x="0" y="0">С\у Мужской</tspan></text>
        </g>
      </g>
    </g>
    <g id="ObjectBathroomWoman">
      <rect id="SpaceBathroomWoman" class="st10" y="174.6" width="127.6" height="52.3"/>
      <rect id="DoorBathroomWoman" class="st12" x="123.5" y="202.7" width="7.8" height="15"/>
      <g id="TextBathroomWoman" class="st15">
        <g class="st15">
          <text class="st16" transform="translate(29.1 207)"><tspan x="0" y="0">С\у Женский</tspan></text>
        </g>
      </g>
    </g>
    <g id="ObjectTechnicalRoom">
      <rect id="SpaceTechnicalRoom" class="st10" x="96.3" y="161.9" width="31.1" height="31.4"/>
      <rect id="DoorTechnicalRoom" class="st12" x="123.5" y="169.4" width="7.8" height="15"/>
    </g>
    <g id="ObjectCabinet401">
      <rect id="Space401" class="st10" y=".7" width="185.8" height="121.4"/>
      <rect id="Door401" class="st12" x="149.5" y="118.3" width="18.1" height="7.7"/>
      <g id="Text401" class="st15">
        <g class="st15">
          <text class="st17" transform="translate(75.2 70.2) scale(1.1 1)"><tspan x="0" y="0">401</tspan></text>
        </g>
      </g>
    </g>
    <g id="ObjectCabinet402">
      <rect id="Space402" class="st10" x="239.3" y=".7" width="227.2" height="121.4"/>
      <rect id="Door402" class="st12" x="427.3" y="118.2" width="18.1" height="7.7"/>
      <g id="Text402" class="st15">
        <g class="st15">
          <text class="st17" transform="translate(332.8 68)"><tspan x="0" y="0">402</tspan></text>
        </g>
      </g>
    </g>
    <g id="ObjectCabinet403">
      <rect id="Space403" class="st10" x="466.5" y=".7" width="329.4" height="121.4"/>
      <rect id="DoorSecond403" class="st12" x="594.3" y="118.2" width="18.1" height="7.8"/>
      <rect id="DoorFirst403" class="st12" x="758.1" y="118.2" width="18.1" height="7.8"/>
      <g id="Text403" class="st15">
        <g class="st15">
          <text class="st18" transform="translate(620.9 67.6)"><tspan x="0" y="0">403</tspan></text>
        </g>
      </g>
    </g>
    <g id="ObjectCabinet404">
      <rect id="Space404" class="st10" x="795.9" y=".7" width="212.8" height="121.4"/>
      <rect id="Door404" class="st12" x="812" y="118.2" width="18.1" height="7.8"/>
      <g id="Text404" class="st15">
        <g class="st15">
          <text class="st18" transform="translate(893.1 67.6)"><tspan x="0" y="0">404</tspan></text>
        </g>
      </g>
    </g>
    <g id="ObjectCabinet405">
      <rect id="Space405" class="st10" x="843.8" y="165.8" width="107.4" height="60.9"/>
      <rect id="Door405" class="st12" x="887.6" y="161.8" width="18.1" height="7.8"/>
      <g id="Text405" class="st15">
        <g class="st15">
          <text class="st18" transform="translate(884.3 200.9)"><tspan x="0" y="0">405</tspan></text>
        </g>
      </g>
    </g>
    <g id="ObjectCabinet406">
      <rect id="Space406" class="st10" x="736.6" y="165.7" width="107.2" height="61"/>
      <rect id="Door406" class="st12" x="783.9" y="161.8" width="18.1" height="7.8"/>
      <g id="Text406" class="st15">
        <g class="st15">
          <text class="st18" transform="translate(779.8 200.9)"><tspan x="0" y="0">406</tspan></text>
        </g>
      </g>
    </g>
    <g id="ObjectCabinet407">
      <rect id="Space407" class="st10" x="631.2" y="165.6" width="105.4" height="61.4"/>
      <rect id="Door407" class="st12" x="646.4" y="161.6" width="18.1" height="7.8"/>
      <g id="Text407" class="st15">
        <g class="st15">
          <text class="st18" transform="translate(675.5 200.9)"><tspan x="0" y="0">407</tspan></text>
        </g>
      </g>
    </g>
    <g id="ObjectCabinet408">
      <rect id="Space408" class="st10" x="522.2" y="165.6" width="109" height="61.3"/>
      <rect id="Door408" class="st12" x="536.5" y="161.6" width="18.1" height="7.8"/>
      <g id="Text408" class="st15">
        <g class="st15">
          <text class="st18" transform="translate(568.3 200.9)"><tspan x="0" y="0">408</tspan></text>
        </g>
      </g>
    </g>
    <g id="ObjectCabinet409">
      <rect id="Space409" class="st10" x="412.6" y="165.5" width="109.6" height="61.4"/>
      <rect id="Door409" class="st12" x="427.3" y="161.6" width="18.1" height="7.8"/>
      <g id="Text409" class="st15">
        <g class="st15">
          <text class="st18" transform="translate(456.1 200.9)"><tspan x="0" y="0">409</tspan></text>
        </g>
      </g>
    </g>
    <g id="ObjectCabinet410">
      <rect id="Space410" class="st10" x="1008.6" y=".7" width="226" height="121.4"/>
      <rect id="Door410" class="st12" x="1025" y="118.3" width="18.1" height="7.7"/>
      <g id="Text410" class="st15">
        <g class="st15">
          <text class="st17" transform="translate(1107.6 61.7)"><tspan x="0" y="0">410</tspan></text>
        </g>
      </g>
    </g>
    <g id="ObjectCabinet411">
      <rect id="Space411" class="st10" x="1114.5" y="122.4" width="120.1" height="200.6"/>
      <rect id="Door411" class="st12" x="1110.6" y="285.4" width="7.8" height="18.1"/>
      <g id="Text411" class="st15">
        <g class="st15">
          <text class="st18" transform="translate(1160.7 228)"><tspan x="0" y="0">411</tspan></text>
        </g>
      </g>
    </g>
    <g id="ObjectCabinet412">
      <rect id="Space412" class="st10" x="1114.5" y="323.2" width="120.1" height="152"/>
      <rect id="Door412" class="st12" x="1110.5" y="445.4" width="7.8" height="18.1"/>
      <g id="Text412" class="st15">
        <g class="st15">
          <text class="st18" transform="translate(1155.1 398.5)"><tspan x="0" y="0">412</tspan></text>
        </g>
      </g>
    </g>
    <g id="ObjectCabinet413">
      <rect id="Space413" class="st10" x="1114.5" y="475.3" width="120.1" height="143.2"/>
      <rect id="Door413" class="st12" x="1110.5" y="536" width="7.8" height="18.1"/>
      <g id="Text413" class="st15">
        <g class="st15">
          <text class="st18" transform="translate(1150.6 538.8)"><tspan x="0" y="0">413</tspan></text>
        </g>
      </g>
    </g>
    <g id="ObjectCabinet414">
      <rect id="Space414" class="st10" x="1114.5" y="618.5" width="120.1" height="141.2"/>
      <rect id="Door414" class="st12" x="1110.6" y="727.2" width="7.8" height="18.1"/>
      <g id="Text414" class="st15">
        <g class="st15">
          <text class="st18" transform="translate(1148.3 675.6)"><tspan x="0" y="0">414</tspan></text>
        </g>
      </g>
    </g>
    <g id="ObjectCabinet415">
      <rect id="Space415" class="st10" x="1114.5" y="810.4" width="120.1" height="180.6"/>
      <rect id="DoorSecond415" class="st12" x="1110.6" y="863" width="7.8" height="18.1"/>
      <rect id="DoorFirst415" class="st12" x="1110.6" y="927" width="7.8" height="18.1"/>
      <g id="Text415" class="st15">
        <g class="st15">
          <text class="st18" transform="translate(1167.7 880.8)"><tspan x="0" y="0">415</tspan></text>
        </g>
      </g>
    </g>
    <g id="ObjectCabinet415a">
      <rect id="Space415a" class="st10" x="1114.5" y="991" width="120.1" height="169.8"/>
      <rect id="Door415a" class="st12" x="1110.6" y="1025.5" width="7.8" height="18.1"/>
      <g id="Text415a" class="st15">
        <g class="st15">
          <text class="st18" transform="translate(1159.7 1067.7)"><tspan x="0" y="0">415а</tspan></text>
        </g>
      </g>
    </g>
    <g id="ObjectCabinet422-1">
      <rect id="Space422-1" class="st10" x="1114.5" y="1160.8" width="120.1" height="134.7"/>
      <rect id="Door422-1" class="st12" x="1110.6" y="1200.6" width="7.8" height="18.1"/>
      <g id="Text422-1" class="st15">
        <g class="st15">
          <text class="st18" transform="translate(1150.6 1222.8)"><tspan x="0" y="0">422-1</tspan></text>
        </g>
      </g>
    </g>
    <g id="ObjectCabinet422-2">
      <rect id="Space422-2" class="st10" x="1114.5" y="1295.6" width="120.1" height="134.7"/>
      <rect id="Door422-2" class="st12" x="1162.3" y="1291.6" width="27.2" height="7.8"/>
      <g id="Text422-2" class="st15">
        <g class="st15">
          <text class="st18" transform="translate(1150.6 1348.2)"><tspan x="0" y="0">422-2</tspan></text>
        </g>
      </g>
    </g>
    <g id="ObjectCabinet423">
      <rect id="Space423" class="st10" x="1001.5" y="1237.7" width="113" height="192.6"/>
      <rect id="Door423" class="st12" x="1072.5" y="1233.2" width="18.1" height="7.8"/>
      <g id="Text423" class="st15">
        <g class="st15">
          <text class="st18" transform="translate(1029.7 1325.4)"><tspan x="0" y="0">423</tspan></text>
        </g>
      </g>
    </g>
    <g id="ObjectCabinet416">
      <rect id="Space416" class="st10" x="1001.5" y="1059.3" width="73.5" height="101.5"/>
      <rect id="Door416" class="st12" x="1071.1" y="1064.8" width="7.8" height="18.1"/>
      <g id="Text416" class="st15">
        <g class="st15">
          <text class="st18" transform="translate(1021.7 1111.1)"><tspan x="0" y="0">416</tspan></text>
        </g>
      </g>
    </g>
    <g id="ObjectCabinet417">
      <rect id="Space417" class="st10" x="1001.5" y="959.5" width="73.5" height="99.7"/>
      <rect id="Door417" class="st12" x="1071.1" y="971.2" width="7.8" height="18.1"/>
      <g id="Text417" class="st15">
        <g class="st15">
          <text class="st18" transform="translate(1025.2 1003.9)"><tspan x="0" y="0">417</tspan></text>
        </g>
      </g>
    </g>
    <g id="ObjectCabinet418">
      <rect id="Space418" class="st10" x="1001.5" y="864.4" width="73.5" height="93.6"/>
      <rect id="Door418" class="st12" x="1033.7" y="860.5" width="18.1" height="7.8"/>
      <g id="Text418" class="st15">
        <g class="st15">
          <text class="st18" transform="translate(1026.3 910.4)"><tspan x="0" y="0">418</tspan></text>
        </g>
      </g>
    </g>
    <g id="ObjectCabinet419">
      <rect id="Space419" class="st10" x="1001.5" y="526.8" width="74.1" height="141.2"/>
      <rect id="Door419" class="st12" x="1071.7" y="576.7" width="7.8" height="18.1"/>
      <g id="Text419" class="st15">
        <g class="st15">
          <text class="st18" transform="translate(1022 606.9)"><tspan x="0" y="0">419</tspan></text>
        </g>
      </g>
    </g>
    <g id="ObjectCabinet420">
      <rect id="Space420" class="st10" x="1001.5" y="427" width="74.1" height="99.8"/>
      <rect id="Door420" class="st12" x="1071.7" y="488.8" width="7.8" height="18.1"/>
      <g id="Text420" class="st15">
        <g class="st15">
          <text class="st18" transform="translate(1022 488.8)"><tspan x="0" y="0">420</tspan></text>
        </g>
      </g>
    </g>
    <g id="ObjectCabinet421">
      <rect id="Space421" class="st10" x="1001.5" y="169.8" width="71.8" height="157.5"/>
      <rect id="Door421" class="st12" x="1069.5" y="200.2" width="7.8" height="18.1"/>
      <g id="Text421" class="st15">
        <g class="st15">
          <text class="st18" transform="translate(1022.3 252.1)"><tspan x="0" y="0">421</tspan></text>
        </g>
      </g>
    </g>
    <g id="AllowedLines">
      <line id="itemQ66" class="st19" x1="1081.6" y1="1233.2" x2="1081.6" y2="1207.1"/>
      <line id="itemQ65" class="st19" x1="1094.8" y1="1209.7" x2="1110.6" y2="1209.7"/>
      <line id="itemQ64" class="st19" x1="1094.8" y1="1073.9" x2="1094.8" y2="1212.2"/>
      <line id="itemQ63" class="st19" x1="1081.6" y1="1209.7" x2="1094.8" y2="1209.7"/>
      <line id="itemQ62" class="st19" x1="1094.8" y1="1073.9" x2="1078.9" y2="1073.9"/>
      <line id="itemQ61" class="st19" x1="1094.8" y1="1034.6" x2="1094.8" y2="1074.4"/>
      <line id="itemQ60" class="st19" x1="1111" y1="1034.6" x2="1094.8" y2="1034.6"/>
      <line id="itemQ59" class="st19" x1="1094.8" y1="980.3" x2="1094.8" y2="1034.6"/>
      <line id="itemQ58" class="st19" x1="1095.2" y1="980.9" x2="1078.9" y2="980.9"/>
      <line id="itemQ57" class="st19" x1="1094.8" y1="936.1" x2="1094.8" y2="981.4"/>
      <line id="itemQ56" class="st19" x1="1110.6" y1="936.1" x2="1094.3" y2="936.1"/>
      <line id="itemQ55" class="st19" x1="1094.8" y1="872.1" x2="1094.8" y2="936.1"/>
      <line id="itemQ54" class="st19" x1="1110.6" y1="872.1" x2="1094.3" y2="872.1"/>
      <line id="itemQ53" class="st19" x1="1094.8" y1="810.4" x2="1094.8" y2="872.1"/>
      <line id="itemQ52" class="st19" x1="1094.8" y1="810.4" x2="1042.8" y2="810.4"/>
      <line id="itemQ51" class="st19" x1="1094.8" y1="785" x2="1094.8" y2="810.9"/>
      <line id="itemQ50" class="st19" x1="1110.6" y1="785" x2="1094.8" y2="785"/>
      <line id="itemQ49" class="st19" x1="1042.8" y1="860.5" x2="1042.8" y2="810.9"/>
      <line id="itemQ48" class="st19" x1="1042.8" y1="810.9" x2="1042.8" y2="765.5"/>
      <line id="itemQ47" class="st19" x1="1094.8" y1="736.3" x2="1094.8" y2="785.6"/>
      <line id="itemQ46" class="st19" x1="1110.6" y1="736.3" x2="1094.8" y2="736.3"/>
      <line id="itemQ45" class="st19" x1="1094.8" y1="585.8" x2="1094.8" y2="736.9"/>
      <line id="itemQ44" class="st19" x1="1095.4" y1="585.8" x2="1079.5" y2="585.8"/>
      <line id="itemQ43" class="st19" x1="1094.8" y1="545.1" x2="1094.8" y2="585.8"/>
      <line id="itemQ42" class="st19" x1="1110.6" y1="545.1" x2="1094.8" y2="545.1"/>
      <line id="itemQ41" class="st19" x1="1094.8" y1="497.8" x2="1094.8" y2="545.1"/>
      <line id="itemQ40" class="st19" x1="1097.2" y1="497.2" x2="1079.5" y2="497.2"/>
      <line id="itemQ39" class="st19" x1="1094.8" y1="454.5" x2="1094.8" y2="496.5"/>
      <line id="itemQ38" class="st19" x1="1110.6" y1="454.5" x2="1094.8" y2="454.5"/>
      <line id="itemQ37" class="st19" x1="1094.8" y1="294.4" x2="1094.8" y2="454.5"/>
      <line id="itemQ36" class="st19" x1="1110.7" y1="294.4" x2="1094.8" y2="294.4"/>
      <line id="itemQ35" class="st19" x1="1094.8" y1="205.2" x2="1094.8" y2="294.4"/>
      <line id="itemQ34" class="st19" x1="1094.8" y1="205.2" x2="1077.1" y2="205.2"/>
      <line id="itemQ33" class="st19" x1="1094.8" y1="142.9" x2="1094.8" y2="206.4"/>
      <line id="itemQ32" class="st19" x1="1097.2" y1="142.9" x2="1034.1" y2="142.9"/>
      <line id="itemQ31" class="st19" x1="1034.1" y1="142.9" x2="1034.1" y2="126.3"/>
      <line id="itemQ30" class="st19" x1="1034.1" y1="142.9" x2="896.6" y2="142.9"/>
      <line id="itemQ29" class="st19" x1="897.5" y1="161.9" x2="897.5" y2="142.9"/>
      <line id="itemQ28" class="st19" x1="897.5" y1="142.9" x2="821.1" y2="142.9"/>
      <line id="itemQ27" class="st19" x1="821.1" y1="142.9" x2="792.9" y2="142.9"/>
      <line id="itemQ26" class="st19" x1="821.1" y1="142.9" x2="821.1" y2="125.9"/>
      <line id="itemQ25" class="st19" x1="792.9" y1="161.9" x2="792.9" y2="142.9"/>
      <line id="itemQ24" class="st19" x1="792.9" y1="142.9" x2="767.2" y2="142.9"/>
      <line id="itemQ23" class="st19" x1="767.2" y1="142.9" x2="767.2" y2="126.3"/>
      <line id="itemQ22" class="st19" x1="767.2" y1="142.9" x2="655.4" y2="142.9"/>
      <line id="itemQ21" class="st19" x1="655.4" y1="161.7" x2="655.4" y2="142.9"/>
      <line id="itemQ20" class="st19" x1="655.3" y1="142.9" x2="603.3" y2="142.9"/>
      <line id="itemQ19" class="st19" x1="603.3" y1="142.9" x2="545.6" y2="142.9"/>
      <line id="itemQ18" class="st19" x1="603.3" y1="142.9" x2="603.3" y2="126.3"/>
      <line id="itemQ17" class="st19" x1="545.6" y1="160.7" x2="545.6" y2="144.1"/>
      <line id="itemQ16" class="st19" x1="545.6" y1="142.9" x2="436.4" y2="142.9"/>
      <line id="itemQ15" class="st19" x1="436.4" y1="142.9" x2="436.4" y2="126.2"/>
      <line id="itemQ14" class="st19" x1="436.4" y1="161.6" x2="436.4" y2="142.9"/>
      <line id="itemQ13" class="st19" x1="436.4" y1="142.9" x2="359.6" y2="142.9"/>
      <line id="itemQ12" class="st19" x1="359.6" y1="194.6" x2="359.6" y2="142.9"/>
      <line id="itemQ11" class="st19" x1="361.6" y1="192.1" x2="300.2" y2="192.1"/>
      <line id="itemQ10" class="st19" x1="359.6" y1="142.9" x2="213.6" y2="142.9"/>
      <line id="itemQ9" class="st19" x1="213.6" y1="142.9" x2="213.6" y2="126.2"/>
      <line id="itemQ8" class="st19" x1="214" y1="142.9" x2="158.5" y2="142.9"/>
      <line id="itemQ7" class="st19" x1="158.5" y1="176.9" x2="158.5" y2="142.9"/>
      <line id="itemQ6" class="st19" x1="158.5" y1="142.9" x2="131.3" y2="142.9"/>
      <line id="itemQ5" class="st19" x1="158.5" y1="142.6" x2="158.5" y2="126.3"/>
      <line id="itemQ3" class="st19" x1="158.5" y1="176.9" x2="131.3" y2="176.9"/>
      <line id="itemQ2" class="st19" x1="158.5" y1="212.7" x2="158.5" y2="176.9"/>
      <line id="itemQ1" class="st19" x1="158.5" y1="210.2" x2="131.3" y2="210.2"/>
    </g>
    <g id="Intersection">
      <circle id="Intersection1" class="st14" cx="1081.6" cy="1209.7" r="4.5"/>
      <circle id="Intersection2" class="st14" cx="1094.8" cy="1209.6" r="4.5"/>
      <circle id="Intersection3" class="st14" cx="1094.8" cy="1073.9" r="4.5"/>
      <circle id="Intersection4" class="st14" cx="1094.8" cy="1034.9" r="4.5"/>
      <circle id="Intersection5" class="st14" cx="1094.8" cy="980.9" r="4.5"/>
      <circle id="Intersection6" class="st14" cx="1094.8" cy="936" r="4.5"/>
      <circle id="Intersection7" class="st14" cx="1094.8" cy="872" r="4.5"/>
      <circle id="Intersection8" class="st14" cx="1094.8" cy="810.4" r="4.5"/>
      <circle id="Intersection9" class="st14" cx="1042.7" cy="810.4" r="4.5"/>
      <circle id="Intersection10" class="st14" cx="1094.8" cy="785" r="4.5"/>
      <circle id="Intersection11" class="st14" cx="1094.8" cy="736.3" r="4.5"/>
      <circle id="Intersection12" class="st14" cx="1094.8" cy="585.8" r="4.5"/>
      <circle id="Intersection13" class="st14" cx="1094.8" cy="545" r="4.5"/>
      <circle id="Intersection14" class="st14" cx="1094.8" cy="497.2" r="4.5"/>
      <circle id="Intersection15" class="st14" cx="1094.8" cy="454.4" r="4.5"/>
      <circle id="Intersection16" class="st14" cx="1094.8" cy="294.4" r="4.5"/>
      <circle id="Intersection17" class="st14" cx="1094.8" cy="205.2" r="4.5"/>
      <circle id="Intersection18" class="st14" cx="1094.8" cy="142.9" r="4.5"/>
      <circle id="Intersection19" class="st14" cx="1034.1" cy="142.9" r="4.5"/>
      <circle id="Intersection20" class="st14" cx="897.5" cy="142.9" r="4.5"/>
      <circle id="Intersection21" class="st14" cx="821.1" cy="142.9" r="4.5"/>
      <circle id="Intersection22" class="st14" cx="793" cy="142.9" r="4.5"/>
      <circle id="Intersection23" class="st14" cx="767.1" cy="142.9" r="4.5"/>
      <circle id="Intersection24" class="st14" cx="655.5" cy="142.9" r="4.5"/>
      <circle id="Intersection25" class="st14" cx="603.3" cy="142.9" r="4.5"/>
      <circle id="Intersection26" class="st14" cx="545.6" cy="142.9" r="4.5"/>
      <circle id="Intersection27" class="st14" cx="436.3" cy="142.9" r="4.5"/>
      <circle id="Intersection28" class="st14" cx="359.6" cy="142.9" r="4.5"/>
      <circle id="Intersection29" class="st14" cx="359.6" cy="192.1" r="4.5"/>
      <circle id="Intersection30" class="st14" cx="213.6" cy="142.6" r="4.5"/>
      <circle id="Intersection31" class="st14" cx="158.5" cy="142.9" r="4.5"/>
      <circle id="Intersection32" class="st14" cx="158.5" cy="177.3" r="4.5"/>
      <circle id="Intersection33" class="st14" cx="158.5" cy="210.2" r="4.5"/>
    </g>
  </g>
</svg>