<svg width="123" height="90" viewBox="0 0 123 90" fill="none" xmlns="http://www.w3.org/2000/svg">
<g clip-path="url(#clip0_290_46)">
<path fill-rule="evenodd" clip-rule="evenodd" d="M122.88 21.37C122.93 24.26 122.35 32.53 121.2 46.23H119.42V89.2H113.42V46.23H112.43V0C114.45 0.31 116.19 1.23 117.58 2.75C121.07 6.31 122.83 12.53 122.88 21.37ZM107.27 44.52C107.27 56.56 103.03 66.85 94.55 75.33C86.05 83.83 75.78 88.07 63.74 88.07C51.74 88.07 41.48 83.83 32.96 75.33C24.46 66.85 20.19 56.56 20.19 44.52C20.19 32.52 24.45 22.28 32.96 13.76C41.49 5.26 51.75 0.99 63.74 0.99C75.78 0.99 86.05 5.25 94.55 13.76C103.03 22.28 107.27 32.52 107.27 44.52ZM20.69 23.22C20.69 26.18 19.46 28.62 17 30.52C14.57 32.42 13.34 34.09 13.34 35.48V89.2H7.34V35.48C7.34 34.08 6.11 32.42 3.68 30.52C1.23 28.62 0 26.19 0 23.22C0 15.18 1.78 7.42 5.37 0V19.9H8.55V0H12.07V19.9H15.32V0C18.89 7.42 20.69 15.18 20.69 23.22ZM95.49 44.52C95.49 35.78 92.41 28.31 86.22 22.12C80.03 15.93 72.54 12.85 63.74 12.85C54.97 12.85 47.5 15.93 41.34 22.12C35.15 28.31 32.04 35.78 32.04 44.52C32.04 53.28 35.15 60.75 41.34 66.97C47.5 73.18 54.97 76.29 63.74 76.29C72.53 76.29 80.02 73.18 86.22 66.97C92.4 60.75 95.49 53.28 95.49 44.52ZM92.31 44.52C92.31 52.42 89.54 59.16 83.95 64.75C78.38 70.31 71.64 73.11 63.74 73.11C55.89 73.11 49.16 70.31 43.58 64.75C38.01 59.16 35.22 52.42 35.22 44.52C35.22 36.67 38.01 29.94 43.58 24.38C49.17 18.82 55.89 16.02 63.74 16.02C71.64 16.02 78.39 18.82 83.95 24.38C89.54 29.94 92.31 36.67 92.31 44.52Z" fill="black"/>
</g>
<defs>
<clipPath id="clip0_290_46">
<rect width="122.88" height="89.2" fill="white"/>
</clipPath>
</defs>
</svg>
