<svg width="128" height="93" viewBox="0 0 128 93" fill="none" xmlns="http://www.w3.org/2000/svg">
<g clip-path="url(#clip0_290_46)">
<path fill-rule="evenodd" clip-rule="evenodd" d="M128 22.2804C128.052 25.2935 127.448 33.9158 126.25 48.1994H124.396V93H118.146V48.1994H117.115V0C119.219 0.323206 121.031 1.2824 122.479 2.86715C126.115 6.57881 127.948 13.0638 128 22.2804ZM111.74 46.4166C111.74 58.9695 107.323 69.6979 98.4896 78.5391C89.6354 87.4012 78.9375 91.8219 66.3958 91.8219C53.8958 91.8219 43.2083 87.4012 34.3333 78.5391C25.4792 69.6979 21.0313 58.9695 21.0313 46.4166C21.0313 33.9054 25.4688 23.2292 34.3333 14.3462C43.2188 5.48408 53.9063 1.03217 66.3958 1.03217C78.9375 1.03217 89.6354 5.47366 98.4896 14.3462C107.323 23.2292 111.74 33.9054 111.74 46.4166ZM21.5521 24.2092C21.5521 27.2953 20.2708 29.8392 17.7083 31.8202C15.1771 33.8011 13.8958 35.5423 13.8958 36.9915V93H7.64583V36.9915C7.64583 35.5318 6.36458 33.8011 3.83333 31.8202C1.28125 29.8392 0 27.3057 0 24.2092C0 15.8267 1.85417 7.7361 5.59375 0V20.7478H8.90625V0H12.5729V20.7478H15.9583V0C19.6771 7.7361 21.5521 15.8267 21.5521 24.2092ZM99.4688 46.4166C99.4688 37.3043 96.2604 29.516 89.8125 23.0623C83.3646 16.6086 75.5625 13.3974 66.3958 13.3974C57.2604 13.3974 49.4792 16.6086 43.0625 23.0623C36.6146 29.516 33.375 37.3043 33.375 46.4166C33.375 55.5498 36.6146 63.338 43.0625 69.823C49.4792 76.2975 57.2604 79.54 66.3958 79.54C75.5521 79.54 83.3542 76.2975 89.8125 69.823C96.25 63.338 99.4688 55.5498 99.4688 46.4166ZM96.1563 46.4166C96.1563 54.6531 93.2708 61.6803 87.4479 67.5084C81.6458 73.3053 74.625 76.2246 66.3958 76.2246C58.2188 76.2246 51.2083 73.3053 45.3958 67.5084C39.5938 61.6803 36.6875 54.6531 36.6875 46.4166C36.6875 38.2322 39.5938 31.2155 45.3958 25.4186C51.2188 19.6217 58.2188 16.7025 66.3958 16.7025C74.625 16.7025 81.6562 19.6217 87.4479 25.4186C93.2708 31.2155 96.1563 38.2322 96.1563 46.4166Z" fill="#4B4B4B"/>
</g>
<defs>
<clipPath id="clip0_290_46">
<rect width="128" height="93" fill="white"/>
</clipPath>
</defs>
</svg>
