<svg width="128" height="128" viewBox="0 0 128 128" fill="none" xmlns="http://www.w3.org/2000/svg">
<g clip-path="url(#clip0_368_48)">
<path fill-rule="evenodd" clip-rule="evenodd" d="M128 40.2804C128.052 43.2935 127.448 51.9158 126.25 66.1994H124.396V111H118.146V66.1994H117.115V18C119.219 18.3232 121.031 19.2824 122.479 20.8672C126.115 24.5788 127.948 31.0638 128 40.2804ZM111.74 64.4166C111.74 76.9695 107.323 87.6979 98.4896 96.5391C89.6354 105.401 78.9375 109.822 66.3958 109.822C53.8958 109.822 43.2083 105.401 34.3333 96.5391C25.4792 87.6979 21.0313 76.9695 21.0313 64.4166C21.0313 51.9054 25.4688 41.2292 34.3333 32.3462C43.2188 23.4841 53.9063 19.0322 66.3958 19.0322C78.9375 19.0322 89.6354 23.4737 98.4896 32.3462C107.323 41.2292 111.74 51.9054 111.74 64.4166ZM21.5521 42.2092C21.5521 45.2953 20.2708 47.8392 17.7083 49.8202C15.1771 51.8011 13.8958 53.5423 13.8958 54.9915V111H7.64583V54.9915C7.64583 53.5318 6.36458 51.8011 3.83333 49.8202C1.28125 47.8392 0 45.3057 0 42.2092C0 33.8267 1.85417 25.7361 5.59375 18V38.7478H8.90625V18H12.5729V38.7478H15.9583V18C19.6771 25.7361 21.5521 33.8267 21.5521 42.2092ZM99.4688 64.4166C99.4688 55.3043 96.2604 47.516 89.8125 41.0623C83.3646 34.6086 75.5625 31.3974 66.3958 31.3974C57.2604 31.3974 49.4792 34.6086 43.0625 41.0623C36.6146 47.516 33.375 55.3043 33.375 64.4166C33.375 73.5498 36.6146 81.338 43.0625 87.823C49.4792 94.2975 57.2604 97.54 66.3958 97.54C75.5521 97.54 83.3542 94.2975 89.8125 87.823C96.25 81.338 99.4688 73.5498 99.4688 64.4166ZM96.1563 64.4166C96.1563 72.6531 93.2708 79.6803 87.4479 85.5084C81.6458 91.3053 74.625 94.2246 66.3958 94.2246C58.2188 94.2246 51.2083 91.3053 45.3958 85.5084C39.5938 79.6803 36.6875 72.6531 36.6875 64.4166C36.6875 56.2322 39.5938 49.2155 45.3958 43.4186C51.2188 37.6217 58.2188 34.7025 66.3958 34.7025C74.625 34.7025 81.6563 37.6217 87.4479 43.4186C93.2708 49.2155 96.1563 56.2322 96.1563 64.4166Z" fill="#4B4B4B"/>
</g>
<defs>
<clipPath id="clip0_368_48">
<rect width="128" height="93" fill="white" transform="translate(0 18)"/>
</clipPath>
</defs>
</svg>
