<svg width="136" height="98" viewBox="0 0 136 98" fill="none" xmlns="http://www.w3.org/2000/svg">
<path d="M42.4 87.1999H26.7556C14.188 87.1999 4 77.0118 4 64.4441V48.7999C4 41.7305 9.73075 35.9999 16.8 35.9999C23.8692 35.9999 29.6 41.7305 29.6 48.7999V56.4799C29.6 59.3075 31.8923 61.5999 34.72 61.5999H101.28C104.108 61.5999 106.4 59.3075 106.4 56.4799V48.7999C106.4 41.7305 112.131 35.9999 119.2 35.9999C126.269 35.9999 132 41.7305 132 48.7999V64.4441C132 77.0118 121.812 87.1999 109.244 87.1999H68" stroke="#4B4B4B" stroke-width="8" stroke-linecap="round"/>
<path d="M87.1999 4C93.1474 4 96.1215 4 98.5945 4.4919C108.749 6.51194 116.688 14.4504 118.708 24.6057C119.2 27.0786 119.2 30.0524 119.2 36M16.7999 36C16.7999 30.0524 16.7999 27.0786 17.2918 24.6057C19.3119 14.4504 27.2504 6.51194 37.4056 4.4919C39.8785 4 42.8523 4 48.7999 4H61.5999" stroke="#4B4B4B" stroke-width="8" stroke-linecap="round"/>
<path d="M119.2 93.6V87.2M16.7999 93.6V87.2" stroke="#4B4B4B" stroke-width="8" stroke-linecap="round"/>
</svg>
