<svg width="128" height="128" viewBox="0 0 128 128" fill="none" xmlns="http://www.w3.org/2000/svg">
<path d="M41.3 98.0071H27.3842C16.2052 98.0071 7.14288 88.9446 7.14288 77.7656V63.85C7.14288 57.5616 12.2404 52.4642 18.5286 52.4642C24.8168 52.4642 29.9143 57.5616 29.9143 63.85V70.6814C29.9143 73.1965 31.9533 75.2357 34.4686 75.2357H93.6743C96.1894 75.2357 98.2286 73.1965 98.2286 70.6814V63.85C98.2286 57.5616 103.326 52.4642 109.614 52.4642C115.903 52.4642 121 57.5616 121 63.85V77.7656C121 88.9446 111.938 98.0071 100.759 98.0071H64.0715" stroke="#4B4B4B" stroke-width="8" stroke-linecap="round"/>
<path d="M81.1499 24C86.4403 24 89.0858 24 91.2855 24.4376C100.318 26.2344 107.38 33.2958 109.176 42.3289C109.614 44.5286 109.614 47.1739 109.614 52.4643M18.5285 52.4643C18.5285 47.1739 18.5285 44.5286 18.9661 42.3289C20.7629 33.2958 27.8243 26.2344 36.8575 24.4376C39.0571 24 41.7024 24 46.9928 24H58.3785" stroke="#4B4B4B" stroke-width="8" stroke-linecap="round"/>
<path d="M109.614 103.7V98.0071M18.5285 103.7V98.0071" stroke="#4B4B4B" stroke-width="8" stroke-linecap="round"/>
</svg>
