<svg width="128" height="111" viewBox="0 0 128 111" fill="none" xmlns="http://www.w3.org/2000/svg">
<path d="M128 48.552H116.966C116.363 41.9739 113.324 35.8585 108.445 31.4057C103.566 26.9529 97.1987 24.4843 90.5931 24.4843C83.9875 24.4843 77.6204 26.9529 72.7412 31.4057C67.862 35.8585 64.8231 41.9739 64.2207 48.552H44.1379V44.1382H61.7931V4.41406H8.82759V44.1382H26.4828V48.552H0V61.7934H11.0345V101.518H17.6552V110.345H30.8966V101.518H59.5862V83.8624H99.3103V110.345H112.552V83.8624H116.966V61.7934H128V48.552ZM90.4828 28.6899C95.9728 28.6624 101.276 30.6822 105.357 34.3549C109.437 38.0276 112.003 43.0894 112.552 48.552H68.5241C69.0712 43.1084 71.6208 38.0621 75.6783 34.392C79.7357 30.722 85.0117 28.6899 90.4828 28.6899ZM41.931 39.7244H28.6897V30.8968H41.931V39.7244ZM13.2414 39.7244V8.82786H57.3793V39.7244H46.3448V26.483H24.2759V39.7244H13.2414ZM30.8966 44.1382H39.7241V48.552H30.8966V44.1382ZM26.4828 105.931H22.069V101.518H26.4828V105.931ZM55.1724 97.1037H15.4483V61.7934H55.1724V97.1037ZM108.138 105.931H103.724V83.8624H108.138V105.931ZM112.552 79.4486H59.5862V61.7934H112.552V79.4486ZM123.586 57.3796H4.41379V52.9658H123.586V57.3796Z" fill="#4B4B4B"/>
<path d="M90.4828 22.069C92.6653 22.069 94.7987 21.4218 96.6133 20.2093C98.4279 18.9968 99.8422 17.2735 100.677 15.2572C101.513 13.2409 101.731 11.0223 101.305 8.88177C100.88 6.74129 99.8286 4.77513 98.2854 3.23193C96.7422 1.68873 94.7761 0.637798 92.6356 0.21203C90.4951 -0.213739 88.2764 0.00478107 86.2601 0.839955C84.2438 1.67513 82.5205 3.08945 81.308 4.90406C80.0955 6.71867 79.4484 8.85208 79.4484 11.0345C79.4484 13.961 80.6109 16.7677 82.6803 18.837C84.7497 20.9064 87.5563 22.069 90.4828 22.069ZM90.4828 4.4138C91.7923 4.4138 93.0723 4.8021 94.1611 5.52959C95.2499 6.25708 96.0985 7.29109 96.5996 8.50086C97.1007 9.71063 97.2318 11.0418 96.9763 12.3261C96.7209 13.6104 96.0903 14.7901 95.1644 15.716C94.2385 16.6419 93.0588 17.2725 91.7745 17.528C90.4902 17.7834 89.159 17.6523 87.9492 17.1512C86.7395 16.6501 85.7054 15.8015 84.9779 14.7127C84.2505 13.624 83.8622 12.3439 83.8622 11.0345C83.8622 9.27857 84.5597 7.59457 85.8013 6.35295C87.0429 5.11133 88.7269 4.4138 90.4828 4.4138Z" fill="#4B4B4B"/>
</svg>
