<svg width="128" height="128" viewBox="0 0 128 128" fill="none" xmlns="http://www.w3.org/2000/svg">
<path d="M128 55.552H116.966C116.363 48.9739 113.324 42.8585 108.445 38.4057C103.566 33.9529 97.1987 31.4843 90.5931 31.4843C83.9875 31.4843 77.6204 33.9529 72.7412 38.4057C67.862 42.8585 64.8231 48.9739 64.2207 55.552H44.1379V51.1382H61.7931V11.4141H8.82759V51.1382H26.4828V55.552H0V68.7934H11.0345V108.518H17.6552V117.345H30.8966V108.518H59.5862V90.8624H99.3103V117.345H112.552V90.8624H116.966V68.7934H128V55.552ZM90.4828 35.6899C95.9728 35.6624 101.276 37.6822 105.357 41.3549C109.437 45.0276 112.003 50.0894 112.552 55.552H68.5241C69.0712 50.1084 71.6208 45.0621 75.6783 41.392C79.7357 37.722 85.0117 35.6899 90.4828 35.6899ZM41.931 46.7244H28.6897V37.8968H41.931V46.7244ZM13.2414 46.7244V15.8279H57.3793V46.7244H46.3448V33.483H24.2759V46.7244H13.2414ZM30.8966 51.1382H39.7241V55.552H30.8966V51.1382ZM26.4828 112.931H22.069V108.518H26.4828V112.931ZM55.1724 104.104H15.4483V68.7934H55.1724V104.104ZM108.138 112.931H103.724V90.8624H108.138V112.931ZM112.552 86.4486H59.5862V68.7934H112.552V86.4486ZM123.586 64.3796H4.41379V59.9658H123.586V64.3796Z" fill="#4B4B4B"/>
<path d="M90.4828 29.069C92.6653 29.069 94.7987 28.4218 96.6133 27.2093C98.4279 25.9968 99.8422 24.2735 100.677 22.2572C101.513 20.2409 101.731 18.0222 101.305 15.8818C100.88 13.7413 99.8286 11.7751 98.2854 10.2319C96.7422 8.68873 94.7761 7.6378 92.6356 7.21203C90.4951 6.78626 88.2764 7.00478 86.2601 7.83996C84.2438 8.67513 82.5205 10.0894 81.308 11.9041C80.0955 13.7187 79.4484 15.8521 79.4484 18.0345C79.4484 20.961 80.6109 23.7677 82.6803 25.837C84.7497 27.9064 87.5563 29.069 90.4828 29.069ZM90.4828 11.4138C91.7923 11.4138 93.0723 11.8021 94.1611 12.5296C95.2499 13.2571 96.0985 14.2911 96.5996 15.5009C97.1007 16.7106 97.2318 18.0418 96.9763 19.3261C96.7209 20.6104 96.0903 21.7901 95.1644 22.716C94.2385 23.6419 93.0588 24.2725 91.7745 24.528C90.4902 24.7834 89.159 24.6523 87.9492 24.1512C86.7395 23.6501 85.7054 22.8015 84.9779 21.7127C84.2505 20.624 83.8622 19.3439 83.8622 18.0345C83.8622 16.2786 84.5597 14.5946 85.8013 13.353C87.0429 12.1113 88.7269 11.4138 90.4828 11.4138Z" fill="#4B4B4B"/>
</svg>
