<svg width="623" height="571" viewBox="0 0 623 571" fill="none" xmlns="http://www.w3.org/2000/svg">
<path d="M299.359 0.464813C299.359 0.697235 298.755 0.929657 297.965 0.929657C297.221 0.929657 296.57 1.1156 296.57 1.3945C296.57 1.62692 296.152 1.85934 295.641 1.85934C295.129 1.85934 294.711 2.04529 294.711 2.32419C294.711 2.55661 294.386 2.78903 294.014 2.78903C293.084 2.78903 289.133 6.7402 289.133 7.66989C289.133 8.04178 288.947 8.36716 288.668 8.36716C288.436 8.36716 288.203 8.78552 288.203 9.29684C288.203 9.80817 288.017 10.2265 287.738 10.2265C287.506 10.2265 287.273 10.6449 287.273 11.1562C287.273 11.6675 287.087 12.0859 286.809 12.0859C286.53 12.0859 286.344 13.3875 286.344 15.1074C286.344 17.757 286.204 18.3148 285.182 19.291C284.577 19.9418 283.741 20.4531 283.322 20.4531C282.95 20.4531 282.625 20.639 282.625 20.9179C282.625 21.1504 282.253 21.3828 281.788 21.3828C281.323 21.3828 280.673 21.8011 280.301 22.3125C279.929 22.8238 279.325 23.2422 278.906 23.2422C278.488 23.2422 277.884 23.6605 277.512 24.1718C277.14 24.6832 276.489 25.1015 276.024 25.1015C275.559 25.1015 275.188 25.2875 275.188 25.5664C275.188 25.7988 274.816 26.0312 274.351 26.0312C273.886 26.0312 273.235 26.4496 272.863 26.9609C272.491 27.4722 271.841 27.8906 271.376 27.8906C270.911 27.8906 270.539 28.0765 270.539 28.3554C270.539 28.5879 270.167 28.8203 269.702 28.8203C269.237 28.8203 268.587 29.2386 268.215 29.75C267.843 30.2613 267.239 30.6797 266.82 30.6797C266.402 30.6797 265.798 31.098 265.426 31.6093C265.054 32.1207 264.403 32.539 263.938 32.539C263.473 32.539 263.102 32.725 263.102 33.0039C263.102 33.2363 262.73 33.4687 262.265 33.4687C261.8 33.4687 261.149 33.8871 260.777 34.3984C260.405 34.9097 259.801 35.3281 259.383 35.3281C258.964 35.3281 258.36 35.7465 257.988 36.2578C257.616 36.7691 256.966 37.1875 256.501 37.1875C256.036 37.1875 255.664 37.3734 255.664 37.6523C255.664 37.8847 255.292 38.1172 254.827 38.1172C254.362 38.1172 253.712 38.5355 253.34 39.0468C252.968 39.5582 252.317 39.9765 251.852 39.9765C251.387 39.9765 251.016 40.1625 251.016 40.4414C251.016 40.6738 250.644 40.9062 250.179 40.9062C249.714 40.9062 249.063 41.3246 248.691 41.8359C248.32 42.3472 247.715 42.7656 247.297 42.7656C246.879 42.7656 246.274 43.184 245.902 43.6953C245.53 44.2066 244.88 44.625 244.415 44.625C243.95 44.625 243.578 44.8109 243.578 45.0898C243.578 45.3222 243.206 45.5547 242.741 45.5547C242.277 45.5547 241.626 45.973 241.254 46.4843C240.882 46.9957 240.278 47.414 239.859 47.414C239.441 47.414 238.837 47.8324 238.465 48.3437C238.093 48.855 237.489 49.2734 237.07 49.2734C236.652 49.2734 236.048 49.6918 235.676 50.2031C235.304 50.7144 234.653 51.1328 234.188 51.1328C233.723 51.1328 233.352 51.3187 233.352 51.5976C233.352 51.83 232.98 52.0625 232.515 52.0625C232.05 52.0625 231.399 52.4808 231.027 52.9922C230.655 53.5035 230.005 53.9218 229.54 53.9218C229.075 53.9218 228.703 54.1078 228.703 54.3867C228.703 54.6191 228.331 54.8515 227.866 54.8515C227.402 54.8515 226.751 55.2699 226.379 55.7812C226.007 56.2925 225.403 56.7109 224.984 56.7109C224.566 56.7109 223.962 57.1293 223.59 57.6406C223.218 58.1519 222.567 58.5703 222.102 58.5703C221.637 58.5703 221.266 58.7562 221.266 59.0351C221.266 59.2675 220.894 59.5 220.429 59.5C219.964 59.5 219.313 59.9183 218.941 60.4297C218.57 60.941 217.965 61.3593 217.547 61.3593C217.129 61.3593 216.524 61.7777 216.152 62.289C215.78 62.8004 215.176 63.2187 214.758 63.2187C214.339 63.2187 213.735 63.6371 213.363 64.1484C212.991 64.6597 212.341 65.0781 211.876 65.0781C211.411 65.0781 211.039 65.264 211.039 65.5429C211.039 65.7754 210.667 66.0078 210.202 66.0078C209.738 66.0078 209.087 66.4261 208.715 66.9375C208.343 67.4488 207.692 67.8672 207.227 67.8672C206.762 67.8672 206.391 68.0531 206.391 68.332C206.391 68.5644 206.019 68.7968 205.554 68.7968C205.089 68.7968 204.438 69.2152 204.066 69.7265C203.695 70.2379 203.044 70.6562 202.579 70.6562C202.114 70.6562 201.742 70.8422 201.742 71.1211C201.742 71.3535 201.37 71.5859 200.905 71.5859C200.441 71.5859 199.79 72.0043 199.418 72.5156C199.046 73.0269 198.395 73.4453 197.93 73.4453C197.466 73.4453 197.094 73.6312 197.094 73.9101C197.094 74.1425 196.722 74.375 196.257 74.375C195.792 74.375 195.141 74.7934 194.77 75.3047C194.398 75.816 193.793 76.2344 193.375 76.2344C192.957 76.2344 192.352 76.6527 191.98 77.1641C191.609 77.6754 191.004 78.0938 190.586 78.0938C190.168 78.0938 189.563 78.5121 189.191 79.0234C188.82 79.5348 188.169 79.9531 187.704 79.9531C187.239 79.9531 186.867 80.1391 186.867 80.418C186.867 80.6504 186.495 80.8828 186.03 80.8828C185.566 80.8828 184.915 81.3012 184.543 81.8125C184.171 82.3238 183.567 82.7422 183.148 82.7422C182.73 82.7422 182.126 83.1606 181.754 83.6719C181.382 84.1832 180.731 84.6016 180.266 84.6016C179.802 84.6016 179.43 84.7875 179.43 85.0664C179.43 85.2988 179.058 85.5312 178.593 85.5312C178.128 85.5312 177.477 85.9496 177.105 86.4609C176.734 86.9723 176.129 87.3906 175.711 87.3906C175.293 87.3906 174.688 87.809 174.316 88.3203C173.945 88.8316 173.294 89.25 172.829 89.25C172.364 89.25 171.992 89.4359 171.992 89.7148C171.992 89.9473 171.62 90.1797 171.155 90.1797C170.691 90.1797 170.04 90.5981 169.668 91.1094C169.296 91.6207 168.692 92.0391 168.273 92.0391C167.855 92.0391 167.251 92.4574 166.879 92.9688C166.507 93.4801 165.856 93.8984 165.391 93.8984C164.927 93.8984 164.555 94.0844 164.555 94.3633C164.555 94.5957 164.183 94.8281 163.718 94.8281C163.253 94.8281 162.602 95.2465 162.23 95.7578C161.859 96.2691 161.208 96.6875 160.743 96.6875C160.278 96.6875 159.906 96.8734 159.906 97.1523C159.906 97.3848 159.534 97.6172 159.07 97.6172C158.605 97.6172 157.954 98.0356 157.582 98.5469C157.21 99.0582 156.606 99.4766 156.188 99.4766C155.769 99.4766 155.165 99.8949 154.793 100.406C154.421 100.918 153.817 101.336 153.398 101.336C152.98 101.336 152.376 101.754 152.004 102.266C151.632 102.777 150.981 103.195 150.516 103.195C150.052 103.195 149.68 103.381 149.68 103.66C149.68 103.893 149.308 104.125 148.843 104.125C148.378 104.125 147.727 104.543 147.355 105.055C146.984 105.566 146.379 105.984 145.961 105.984C145.543 105.984 144.938 106.403 144.566 106.914C144.195 107.425 143.59 107.844 143.172 107.844C142.754 107.844 142.149 108.262 141.777 108.773C141.405 109.285 140.755 109.703 140.29 109.703C139.825 109.703 139.453 109.889 139.453 110.168C139.453 110.4 139.081 110.633 138.616 110.633C138.152 110.633 137.501 111.051 137.129 111.562C136.757 112.074 136.106 112.492 135.641 112.492C135.177 112.492 134.805 112.678 134.805 112.957C134.805 113.189 134.433 113.422 133.968 113.422C133.503 113.422 132.852 113.84 132.48 114.352C132.109 114.863 131.504 115.281 131.086 115.281C130.668 115.281 130.063 115.7 129.691 116.211C129.32 116.722 128.669 117.141 128.204 117.141C127.739 117.141 127.367 117.327 127.367 117.605C127.367 117.838 126.995 118.07 126.53 118.07C126.066 118.07 125.415 118.489 125.043 119C124.671 119.511 124.067 119.93 123.648 119.93C123.23 119.93 122.626 120.348 122.254 120.859C121.882 121.371 121.278 121.789 120.859 121.789C120.441 121.789 119.837 122.207 119.465 122.719C119.093 123.23 118.442 123.648 117.977 123.648C117.512 123.648 117.141 123.834 117.141 124.113C117.141 124.346 116.769 124.578 116.304 124.578C115.839 124.578 115.188 124.996 114.816 125.508C114.445 126.019 113.84 126.438 113.422 126.438C113.004 126.438 112.399 126.856 112.027 127.367C111.655 127.879 111.005 128.297 110.54 128.297C110.075 128.297 109.703 128.483 109.703 128.762C109.703 128.994 109.285 129.227 108.773 129.227C108.262 129.227 107.844 129.413 107.844 129.691C107.844 129.924 107.472 130.156 107.007 130.156C106.542 130.156 105.891 130.575 105.52 131.086C105.148 131.597 104.497 132.016 104.032 132.016C103.567 132.016 103.195 132.202 103.195 132.48C103.195 132.713 102.87 132.945 102.498 132.945C102.08 132.945 101.243 133.457 100.639 134.107L99.4766 135.223V195.932V256.594H98.082C97.3383 256.594 96.6875 256.78 96.6875 257.059C96.6875 257.291 96.0832 257.523 95.293 257.523C94.5492 257.523 93.8984 257.709 93.8984 257.988C93.8984 258.221 93.4801 258.453 92.9688 258.453C92.4574 258.453 92.0391 258.639 92.0391 258.918C92.0391 259.15 91.7137 259.383 91.3418 259.383C90.4121 259.383 84.6016 265.193 84.6016 266.123C84.6016 266.495 84.4156 266.82 84.1367 266.82C83.9043 266.82 83.6719 267.239 83.6719 267.75C83.6719 268.261 83.4859 268.68 83.207 268.68C82.9746 268.68 82.7422 269.284 82.7422 270.074C82.7422 270.818 82.5562 271.469 82.2773 271.469C81.9984 271.469 81.8125 273.328 81.8125 276.117C81.8125 278.906 81.9984 280.766 82.2773 280.766C82.5562 280.766 82.7422 281.37 82.7422 282.16C82.7422 282.904 82.9746 283.555 83.207 283.555C83.4859 283.555 83.6719 283.973 83.6719 284.484C83.6719 284.996 83.9043 285.414 84.1367 285.414C84.4156 285.414 84.6016 285.786 84.6016 286.251C84.6016 286.716 85.0199 287.366 85.5312 287.738C86.0426 288.11 86.4609 288.668 86.4609 289.04C86.4609 289.83 87.5766 290.992 88.3203 290.992C88.6457 290.992 89.4824 291.596 90.1797 292.387C90.877 293.13 91.8066 293.781 92.225 293.781C92.6434 293.781 92.9688 293.967 92.9688 294.246C92.9688 294.479 93.6195 294.711 94.3633 294.711C95.1535 294.711 95.7578 294.897 95.7578 295.176C95.7578 295.408 96.4086 295.641 97.1523 295.641C97.9426 295.641 98.5469 295.827 98.5469 296.105C98.5469 296.384 99.9414 296.57 101.801 296.57C103.66 296.57 105.055 296.384 105.055 296.105C105.055 295.827 105.705 295.641 106.449 295.641C107.239 295.641 107.844 295.408 107.844 295.176C107.844 294.897 108.495 294.711 109.238 294.711C110.029 294.711 110.633 294.479 110.633 294.246C110.633 293.967 110.958 293.781 111.377 293.781C111.795 293.781 112.725 293.13 113.422 292.387C114.677 291.039 116.211 290.527 116.211 291.457C116.211 291.689 116.536 291.922 116.955 291.922C117.327 291.922 118.675 292.945 119.93 294.246C121.185 295.501 122.44 296.57 122.719 296.57C122.998 296.57 124.485 297.825 125.973 299.359C127.46 300.893 128.948 302.148 129.227 302.148C129.505 302.148 130.993 303.404 132.48 304.937C133.968 306.471 135.455 307.727 135.734 307.727C136.013 307.727 137.501 308.982 138.988 310.516C140.476 312.05 141.963 313.305 142.242 313.305C142.521 313.305 144.009 314.56 145.496 316.094C146.984 317.628 148.471 318.883 148.75 318.883C149.029 318.883 150.702 320.324 152.469 322.137C154.235 323.903 155.909 325.391 156.188 325.391C156.466 325.391 157.954 326.646 159.441 328.18C160.929 329.714 162.416 330.969 162.695 330.969C162.974 330.969 164.462 332.224 165.949 333.758C167.437 335.292 168.924 336.547 169.203 336.547C169.482 336.547 170.97 337.802 172.457 339.336C173.945 340.87 175.432 342.125 175.711 342.125C175.99 342.125 177.663 343.612 179.43 345.379C181.196 347.145 182.87 348.633 183.148 348.633C183.427 348.633 185.101 350.074 186.867 351.887C188.634 353.653 190.307 355.141 190.586 355.141C190.865 355.141 192.352 356.396 193.84 357.93C195.327 359.464 196.815 360.719 197.094 360.719C197.884 360.719 201.975 365.042 201.37 365.274C201.045 365.367 200.812 365.832 200.812 366.343C200.812 366.808 200.627 367.227 200.348 367.227C200.115 367.227 199.883 367.645 199.883 368.156C199.883 368.668 199.697 369.086 199.418 369.086C199.139 369.086 198.953 371.271 198.953 374.664C198.953 378.057 199.139 380.242 199.418 380.242C199.697 380.242 199.883 380.661 199.883 381.172C199.883 381.683 200.115 382.102 200.348 382.102C200.627 382.102 200.812 382.427 200.812 382.799C200.812 383.729 205.693 388.609 206.623 388.609C206.995 388.609 207.32 388.795 207.32 389.074C207.32 389.307 207.739 389.539 208.25 389.539C208.761 389.539 209.18 389.725 209.18 390.004C209.18 390.236 210.249 390.469 211.504 390.469C212.805 390.469 213.828 390.655 213.828 390.934C213.828 391.166 214.479 391.398 215.223 391.398C216.013 391.398 216.617 391.166 216.617 390.934C216.617 390.655 217.454 390.469 218.477 390.469C219.499 390.469 220.336 390.236 220.336 390.004C220.336 389.725 220.94 389.539 221.637 389.539C222.381 389.539 223.218 389.167 223.59 388.609C223.962 388.098 224.52 387.68 224.891 387.68C225.682 387.68 228.703 384.658 228.703 383.868C228.703 383.496 229.121 382.938 229.633 382.566C230.191 382.195 230.562 381.358 230.562 380.614C230.562 379.917 230.795 379.312 231.027 379.312C231.306 379.312 231.492 377.453 231.492 374.664C231.492 371.875 231.306 370.016 231.027 370.016C230.795 370.016 230.562 369.365 230.562 368.621C230.562 367.831 230.377 367.227 230.098 367.227C229.865 367.227 229.633 366.901 229.633 366.529C229.633 365.6 223.822 359.789 222.893 359.789C222.521 359.789 222.195 359.557 222.195 359.324C222.195 359.045 221.591 358.859 220.801 358.859C220.057 358.859 219.406 358.627 219.406 358.395C219.406 357.697 211.179 357.79 210.946 358.487C210.807 358.859 209.737 358.069 208.343 356.628C207.041 355.327 205.74 354.211 205.461 354.211C205.182 354.211 203.695 352.956 202.207 351.422C200.72 349.888 199.232 348.633 198.953 348.633C198.674 348.633 197.419 347.564 196.164 346.309C194.909 345.007 193.654 343.984 193.375 343.984C193.096 343.984 191.841 342.915 190.586 341.66C189.331 340.359 188.076 339.336 187.797 339.336C187.518 339.336 186.263 338.267 185.008 337.012C183.753 335.71 182.498 334.687 182.219 334.687C181.94 334.687 180.685 333.665 179.43 332.363C178.175 331.062 176.92 330.039 176.641 330.039C176.362 330.039 175.293 329.202 174.316 328.18C173.34 327.157 172.271 326.32 171.992 326.32C171.713 326.32 170.458 325.251 169.203 323.996C167.948 322.695 166.693 321.672 166.414 321.672C165.856 321.672 164.555 320.556 164.555 320.091C164.555 319.952 229.214 319.812 308.191 319.812H451.828V310.98C451.828 306.1 451.921 302.148 452.061 302.148C452.572 302.148 454.617 304.426 454.617 304.984C454.617 305.263 455.268 306.1 456.012 306.797C456.802 307.494 457.406 308.331 457.406 308.656C457.406 308.982 458.057 309.818 458.801 310.516C459.591 311.213 460.195 312.05 460.195 312.375C460.195 312.7 460.846 313.537 461.59 314.234C462.38 314.932 462.984 315.768 462.984 316.094C462.984 316.419 463.635 317.256 464.379 317.953C465.169 318.65 465.773 319.534 465.773 319.905C465.773 320.231 466.192 320.835 466.703 321.207C467.214 321.579 467.633 322.183 467.633 322.509C467.633 322.88 468.284 323.764 469.027 324.461C469.818 325.158 470.422 325.995 470.422 326.32C470.422 326.646 471.073 327.482 471.816 328.18C472.607 328.877 473.211 329.807 473.211 330.225C473.211 330.643 473.304 330.969 473.443 330.969C474.001 330.969 479.719 324.879 479.719 324.321C479.719 323.996 479.3 323.438 478.789 323.066C478.278 322.695 477.859 322.09 477.859 321.672C477.859 321.254 477.441 320.649 476.93 320.277C476.418 319.905 476 319.301 476 318.883C476 318.464 475.582 317.86 475.07 317.488C474.559 317.116 474.141 316.512 474.141 316.187C474.141 315.815 473.536 314.932 472.746 314.234C472.002 313.537 471.352 312.7 471.352 312.375C471.352 312.05 470.747 311.213 469.957 310.516C469.213 309.818 468.562 308.982 468.562 308.656C468.562 308.331 467.958 307.494 467.168 306.797C466.424 306.1 465.773 305.216 465.773 304.845C465.773 304.519 465.355 303.915 464.844 303.543C464.332 303.171 463.914 302.567 463.914 302.241C463.914 301.87 463.31 300.986 462.52 300.289C461.776 299.592 461.125 298.755 461.125 298.43C461.125 298.104 460.521 297.268 459.73 296.57C458.987 295.873 458.336 294.99 458.336 294.618C458.336 294.293 457.918 293.688 457.406 293.316C456.895 292.945 456.477 292.34 456.477 292.015C456.477 291.643 455.872 290.76 455.082 290.062C454.338 289.365 453.688 288.482 453.688 288.11C453.688 287.785 453.269 287.18 452.758 286.809C452.246 286.437 451.828 285.832 451.828 285.507C451.828 285.135 451.224 284.252 450.434 283.555C449.69 282.857 449.039 282.021 449.039 281.695C449.039 281.37 448.435 280.533 447.645 279.836C446.901 279.139 446.25 278.255 446.25 277.884C446.25 277.558 445.832 276.954 445.32 276.582C444.809 276.21 444.391 275.559 444.391 275.095C444.391 274.63 444.205 274.258 443.926 274.258C443.647 274.258 443.461 271.329 443.461 266.355C443.461 261.382 443.647 258.453 443.926 258.453C444.205 258.453 444.391 258.081 444.391 257.616C444.391 257.152 444.809 256.501 445.32 256.129C445.832 255.757 446.25 255.106 446.25 254.641C446.25 254.177 446.482 253.805 446.715 253.805C446.994 253.805 447.18 253.433 447.18 252.968C447.18 252.503 447.598 251.852 448.109 251.48C448.621 251.109 449.039 250.458 449.039 249.993C449.039 249.528 449.271 249.156 449.504 249.156C449.783 249.156 449.969 248.784 449.969 248.32C449.969 247.855 450.387 247.204 450.898 246.832C451.41 246.46 451.828 245.809 451.828 245.345C451.828 244.88 452.061 244.508 452.293 244.508C452.572 244.508 452.758 244.089 452.758 243.578C452.758 243.067 452.99 242.648 453.223 242.648C453.502 242.648 453.688 242.277 453.688 241.812C453.688 241.347 454.106 240.696 454.617 240.324C455.129 239.952 455.547 239.302 455.547 238.837C455.547 238.372 455.779 238 456.012 238C456.291 238 456.477 237.628 456.477 237.163C456.477 236.698 456.895 236.048 457.406 235.676C457.918 235.304 458.336 234.653 458.336 234.188C458.336 233.723 458.568 233.352 458.801 233.352C459.08 233.352 459.266 232.98 459.266 232.515C459.266 232.05 459.684 231.399 460.195 231.027C460.707 230.655 461.125 230.005 461.125 229.54C461.125 229.075 461.357 228.703 461.59 228.703C461.869 228.703 462.055 228.285 462.055 227.773C462.055 227.262 462.287 226.844 462.52 226.844C462.798 226.844 462.984 226.472 462.984 226.007C462.984 225.542 463.403 224.891 463.914 224.52C464.425 224.148 464.844 223.497 464.844 223.032C464.844 222.567 465.076 222.195 465.309 222.195C465.587 222.195 465.773 221.823 465.773 221.359C465.773 220.894 466.192 220.243 466.703 219.871C467.214 219.499 467.633 218.848 467.633 218.384C467.633 217.919 467.865 217.547 468.098 217.547C468.377 217.547 468.562 217.175 468.562 216.71C468.562 216.245 468.981 215.595 469.492 215.223C470.004 214.851 470.422 214.2 470.422 213.735C470.422 213.27 470.654 212.898 470.887 212.898C471.166 212.898 471.352 212.48 471.352 211.969C471.352 211.457 471.584 211.039 471.816 211.039C472.095 211.039 472.281 210.667 472.281 210.202C472.281 209.737 472.7 209.087 473.211 208.715C473.722 208.343 474.141 207.692 474.141 207.227C474.141 206.762 474.373 206.391 474.605 206.391C474.884 206.391 475.07 206.019 475.07 205.554C475.07 205.089 475.489 204.438 476 204.066C476.511 203.695 476.93 203.044 476.93 202.579C476.93 202.114 477.162 201.742 477.395 201.742C477.673 201.742 477.859 201.37 477.859 200.905C477.859 200.441 478.278 199.79 478.789 199.418C479.3 199.046 479.719 198.395 479.719 197.93C479.719 197.466 479.951 197.094 480.184 197.094C480.462 197.094 480.648 196.722 480.648 196.257C480.648 195.792 481.067 195.141 481.578 194.77C482.089 194.398 482.508 193.747 482.508 193.282C482.508 192.817 482.74 192.445 482.973 192.445C483.252 192.445 483.438 192.073 483.438 191.609C483.438 191.144 483.856 190.493 484.367 190.121C484.879 189.749 485.297 189.098 485.297 188.634C485.297 188.169 485.529 187.797 485.762 187.797C486.041 187.797 486.227 187.378 486.227 186.867C486.227 186.356 486.459 185.937 486.691 185.937C486.97 185.937 487.156 185.566 487.156 185.101C487.156 184.636 487.575 183.985 488.086 183.613C488.597 183.241 489.016 182.591 489.016 182.126C489.016 181.661 489.248 181.289 489.48 181.289C489.759 181.289 489.945 180.917 489.945 180.452C489.945 179.987 490.364 179.337 490.875 178.965C491.386 178.593 491.805 177.942 491.805 177.477C491.805 177.012 492.037 176.641 492.27 176.641C492.548 176.641 492.734 176.269 492.734 175.804C492.734 175.339 493.153 174.688 493.664 174.316C494.175 173.945 494.594 173.294 494.594 172.829C494.594 172.364 494.826 171.992 495.059 171.992C495.337 171.992 495.523 171.62 495.523 171.155C495.523 170.691 495.942 170.04 496.453 169.668C496.964 169.296 497.383 168.645 497.383 168.18C497.383 167.716 497.615 167.344 497.848 167.344C498.127 167.344 498.312 166.972 498.312 166.507C498.312 166.042 498.731 165.391 499.242 165.02C499.754 164.648 500.172 163.997 500.172 163.532C500.172 163.067 500.404 162.695 500.637 162.695C500.916 162.695 501.102 162.323 501.102 161.859C501.102 161.394 501.52 160.743 502.031 160.371C502.543 159.999 502.961 159.348 502.961 158.884C502.961 158.233 503.333 158.047 504.82 158.047C505.843 158.047 506.68 157.814 506.68 157.582C506.68 157.303 507.516 157.117 508.539 157.117C509.562 157.117 510.398 156.885 510.398 156.652C510.398 156.373 510.817 156.187 511.328 156.187C511.839 156.187 512.258 155.955 512.258 155.723C512.258 155.444 512.676 155.258 513.188 155.258C513.699 155.258 514.117 155.025 514.117 154.793C514.117 154.514 514.443 154.328 514.814 154.328C515.698 154.328 518.766 151.353 518.766 150.516C518.766 150.145 519.184 149.587 519.695 149.215C520.207 148.843 520.625 148.192 520.625 147.727C520.625 147.262 520.857 146.891 521.09 146.891C521.369 146.891 521.555 146.24 521.555 145.496C521.555 144.706 521.787 144.102 522.02 144.102C522.298 144.102 522.484 142.242 522.484 139.453C522.484 136.664 522.298 134.805 522.02 134.805C521.787 134.805 521.555 134.154 521.555 133.41C521.555 132.62 521.369 132.016 521.09 132.016C520.857 132.016 520.625 131.69 520.625 131.318C520.625 130.9 519.277 129.227 517.604 127.6C515.977 125.926 514.303 124.578 513.885 124.578C513.513 124.578 513.188 124.346 513.188 124.113C513.188 123.834 512.769 123.648 512.258 123.648C511.746 123.648 511.328 123.416 511.328 123.184C511.328 122.905 510.491 122.719 509.469 122.719C508.446 122.719 507.609 122.486 507.609 122.254C507.609 121.975 506.215 121.789 504.355 121.789C502.496 121.789 501.102 121.975 501.102 122.254C501.102 122.486 500.497 122.719 499.707 122.719C498.963 122.719 498.312 122.905 498.312 123.184C498.312 123.416 497.941 123.648 497.476 123.648C497.011 123.648 496.36 124.067 495.988 124.578C495.616 125.089 495.059 125.508 494.733 125.508C493.85 125.508 489.945 129.505 489.945 130.389C489.945 130.761 489.759 131.086 489.48 131.086C489.248 131.086 489.016 131.504 489.016 132.016C489.016 132.527 488.83 132.945 488.551 132.945C488.318 132.945 488.086 133.55 488.086 134.34C488.086 135.084 487.9 135.734 487.621 135.734C487.342 135.734 487.156 137.454 487.156 139.918C487.156 142.382 487.342 144.102 487.621 144.102C487.9 144.102 488.086 144.706 488.086 145.496C488.086 146.24 488.318 146.891 488.551 146.891C488.83 146.891 489.016 147.262 489.016 147.727C489.016 148.192 489.434 148.843 489.945 149.215C490.457 149.587 490.875 150.191 490.875 150.516C490.875 150.842 491.712 151.957 492.734 152.934C494.826 154.932 495.012 155.676 493.664 156.652C493.153 157.024 492.734 157.675 492.734 158.14C492.734 158.605 492.548 158.977 492.27 158.977C492.037 158.977 491.805 159.348 491.805 159.813C491.805 160.278 491.386 160.929 490.875 161.301C490.364 161.673 489.945 162.323 489.945 162.788C489.945 163.253 489.759 163.625 489.48 163.625C489.248 163.625 489.016 163.997 489.016 164.462C489.016 164.927 488.597 165.577 488.086 165.949C487.575 166.321 487.156 166.972 487.156 167.437C487.156 167.902 486.97 168.273 486.691 168.273C486.459 168.273 486.227 168.692 486.227 169.203C486.227 169.714 486.041 170.133 485.762 170.133C485.529 170.133 485.297 170.505 485.297 170.97C485.297 171.434 484.879 172.085 484.367 172.457C483.856 172.829 483.438 173.48 483.438 173.945C483.438 174.409 483.252 174.781 482.973 174.781C482.74 174.781 482.508 175.153 482.508 175.618C482.508 176.083 482.089 176.734 481.578 177.105C481.067 177.477 480.648 178.128 480.648 178.593C480.648 179.058 480.462 179.43 480.184 179.43C479.951 179.43 479.719 179.802 479.719 180.266C479.719 180.731 479.3 181.382 478.789 181.754C478.278 182.126 477.859 182.777 477.859 183.241C477.859 183.706 477.673 184.078 477.395 184.078C477.162 184.078 476.93 184.45 476.93 184.915C476.93 185.38 476.511 186.03 476 186.402C475.489 186.774 475.07 187.425 475.07 187.89C475.07 188.355 474.884 188.727 474.605 188.727C474.373 188.727 474.141 189.098 474.141 189.563C474.141 190.028 473.722 190.679 473.211 191.051C472.7 191.423 472.281 192.073 472.281 192.538C472.281 193.003 472.095 193.375 471.816 193.375C471.584 193.375 471.352 193.747 471.352 194.212C471.352 194.677 470.933 195.327 470.422 195.699C469.911 196.071 469.492 196.722 469.492 197.187C469.492 197.652 469.306 198.023 469.027 198.023C468.795 198.023 468.562 198.442 468.562 198.953C468.562 199.464 468.377 199.883 468.098 199.883C467.865 199.883 467.633 200.255 467.633 200.72C467.633 201.184 467.214 201.835 466.703 202.207C466.192 202.579 465.773 203.183 465.773 203.602C465.773 204.02 465.355 204.624 464.844 204.996C464.332 205.368 463.914 206.019 463.914 206.484C463.914 206.948 463.728 207.32 463.449 207.32C463.217 207.32 462.984 207.739 462.984 208.25C462.984 208.761 462.798 209.18 462.52 209.18C462.287 209.18 462.055 209.552 462.055 210.016C462.055 210.481 461.636 211.132 461.125 211.504C460.614 211.876 460.195 212.527 460.195 212.991C460.195 213.456 460.009 213.828 459.73 213.828C459.498 213.828 459.266 214.2 459.266 214.665C459.266 215.13 458.847 215.78 458.336 216.152C457.825 216.524 457.406 217.175 457.406 217.64C457.406 218.105 457.22 218.477 456.941 218.477C456.709 218.477 456.477 218.848 456.477 219.313C456.477 219.778 456.058 220.429 455.547 220.801C455.036 221.173 454.617 221.823 454.617 222.288C454.617 222.753 454.431 223.125 454.152 223.125C453.92 223.125 453.688 223.45 453.688 223.869C453.688 224.566 452.618 225.914 452.107 225.914C451.968 225.914 451.828 209.366 451.828 189.191V152.469H408.133H364.438V136.664V120.859H303.078H241.719V136.664V152.469H196.629H151.539V230.098C151.539 272.77 151.353 307.727 151.167 307.727C150.981 307.727 150.516 307.308 150.145 306.797C149.773 306.286 149.215 305.867 148.843 305.867C148.518 305.867 147.216 304.798 145.961 303.543C144.706 302.241 143.451 301.219 143.172 301.219C142.893 301.219 141.405 299.964 139.918 298.43C138.43 296.896 136.943 295.641 136.664 295.641C136.385 295.641 135.13 294.571 133.875 293.316C132.62 292.015 131.365 290.992 131.086 290.992C130.807 290.992 129.552 289.923 128.297 288.668C127.042 287.366 125.787 286.344 125.508 286.344C125.229 286.344 124.299 285.6 123.416 284.717C122.021 283.369 121.789 282.811 121.789 280.998C121.789 279.836 122.021 278.906 122.254 278.906C122.533 278.906 122.719 277.651 122.719 276.117C122.719 274.583 122.533 273.328 122.254 273.328C122.021 273.328 121.789 272.491 121.789 271.469C121.789 270.446 121.603 269.609 121.324 269.609C121.092 269.609 120.859 269.191 120.859 268.68C120.859 268.168 120.673 267.75 120.395 267.75C120.162 267.75 119.93 267.332 119.93 266.82C119.93 266.309 119.744 265.891 119.465 265.891C119.232 265.891 119 265.565 119 265.193C119 264.264 115.049 260.312 114.119 260.312C113.747 260.312 113.422 260.08 113.422 259.848C113.422 259.569 113.004 259.383 112.492 259.383C111.981 259.383 111.562 259.15 111.562 258.918C111.562 258.639 111.237 258.453 110.819 258.453C108.68 258.453 108.773 260.824 108.773 198.767C108.773 140.708 108.773 140.383 109.703 140.383C110.214 140.383 110.633 140.15 110.633 139.918C110.633 139.639 111.005 139.453 111.47 139.453C111.934 139.453 112.585 139.035 112.957 138.523C113.329 138.012 113.933 137.594 114.352 137.594C114.77 137.594 115.374 137.175 115.746 136.664C116.118 136.153 116.722 135.734 117.141 135.734C117.559 135.734 118.163 135.316 118.535 134.805C118.907 134.293 119.511 133.875 119.93 133.875C120.348 133.875 120.952 133.457 121.324 132.945C121.696 132.434 122.347 132.016 122.812 132.016C123.277 132.016 123.648 131.783 123.648 131.551C123.648 131.272 124.02 131.086 124.485 131.086C124.95 131.086 125.601 130.668 125.973 130.156C126.345 129.645 126.949 129.227 127.367 129.227C127.786 129.227 128.39 128.808 128.762 128.297C129.134 127.786 129.738 127.367 130.156 127.367C130.575 127.367 131.179 126.949 131.551 126.438C131.923 125.926 132.573 125.508 133.038 125.508C133.503 125.508 133.875 125.275 133.875 125.043C133.875 124.764 134.247 124.578 134.712 124.578C135.177 124.578 135.827 124.16 136.199 123.648C136.571 123.137 137.175 122.719 137.594 122.719C138.012 122.719 138.616 122.3 138.988 121.789C139.36 121.278 140.011 120.859 140.476 120.859C140.941 120.859 141.312 120.627 141.312 120.395C141.312 120.116 141.684 119.93 142.149 119.93C142.614 119.93 143.265 119.511 143.637 119C144.009 118.489 144.659 118.07 145.124 118.07C145.589 118.07 145.961 117.838 145.961 117.605C145.961 117.327 146.333 117.141 146.798 117.141C147.262 117.141 147.913 116.722 148.285 116.211C148.657 115.7 149.308 115.281 149.773 115.281C150.237 115.281 150.609 115.049 150.609 114.816C150.609 114.538 150.981 114.352 151.446 114.352C151.911 114.352 152.562 113.933 152.934 113.422C153.305 112.911 153.91 112.492 154.328 112.492C154.746 112.492 155.351 112.074 155.723 111.562C156.095 111.051 156.699 110.633 157.117 110.633C157.536 110.633 158.14 110.214 158.512 109.703C158.884 109.192 159.488 108.773 159.906 108.773C160.325 108.773 160.929 108.355 161.301 107.844C161.673 107.332 162.323 106.914 162.788 106.914C163.253 106.914 163.625 106.682 163.625 106.449C163.625 106.17 163.997 105.984 164.462 105.984C164.927 105.984 165.577 105.566 165.949 105.055C166.321 104.543 166.972 104.125 167.437 104.125C167.902 104.125 168.273 103.893 168.273 103.66C168.273 103.381 168.645 103.195 169.11 103.195C169.575 103.195 170.226 102.777 170.598 102.266C170.97 101.754 171.574 101.336 171.992 101.336C172.411 101.336 173.015 100.918 173.387 100.406C173.759 99.8949 174.363 99.4766 174.781 99.4766C175.2 99.4766 175.804 99.0582 176.176 98.5469C176.548 98.0356 177.198 97.6172 177.663 97.6172C178.128 97.6172 178.5 97.3848 178.5 97.1523C178.5 96.8734 178.872 96.6875 179.337 96.6875C179.802 96.6875 180.452 96.2691 180.824 95.7578C181.196 95.2465 181.8 94.8281 182.219 94.8281C182.637 94.8281 183.241 94.4098 183.613 93.8984C183.985 93.3871 184.636 92.9688 185.101 92.9688C185.566 92.9688 185.938 92.7363 185.938 92.5039C185.938 92.225 186.309 92.0391 186.774 92.0391C187.239 92.0391 187.89 91.6207 188.262 91.1094C188.634 90.5981 189.238 90.1797 189.656 90.1797C190.075 90.1797 190.679 89.7613 191.051 89.25C191.423 88.7387 192.027 88.3203 192.445 88.3203C192.864 88.3203 193.468 87.9019 193.84 87.3906C194.212 86.8793 194.862 86.4609 195.327 86.4609C195.792 86.4609 196.164 86.2285 196.164 85.9961C196.164 85.7172 196.536 85.5312 197.001 85.5312C197.466 85.5312 198.116 85.1129 198.488 84.6016C198.86 84.0902 199.511 83.6719 199.976 83.6719C200.441 83.6719 200.812 83.4395 200.812 83.207C200.812 82.9281 201.184 82.7422 201.649 82.7422C202.114 82.7422 202.765 82.3238 203.137 81.8125C203.509 81.3012 204.113 80.8828 204.531 80.8828C204.95 80.8828 205.554 80.4644 205.926 79.9531C206.298 79.4418 206.948 79.0234 207.413 79.0234C207.878 79.0234 208.25 78.791 208.25 78.5586C208.25 78.2797 208.622 78.0938 209.087 78.0938C209.552 78.0938 210.202 77.6754 210.574 77.1641C210.946 76.6527 211.55 76.2344 211.969 76.2344C212.387 76.2344 212.991 75.816 213.363 75.3047C213.735 74.7934 214.386 74.375 214.851 74.375C215.316 74.375 215.688 74.1425 215.688 73.9101C215.688 73.6312 216.059 73.4453 216.524 73.4453C216.989 73.4453 217.64 73.0269 218.012 72.5156C218.384 72.0043 219.034 71.5859 219.499 71.5859C219.964 71.5859 220.336 71.3535 220.336 71.1211C220.336 70.8422 220.708 70.6562 221.173 70.6562C221.637 70.6562 222.288 70.2379 222.66 69.7265C223.032 69.2152 223.636 68.7968 224.055 68.7968C224.473 68.7968 225.077 68.3785 225.449 67.8672C225.821 67.3558 226.472 66.9375 226.937 66.9375C227.402 66.9375 227.773 66.705 227.773 66.4726C227.773 66.1937 228.145 66.0078 228.61 66.0078C229.075 66.0078 229.726 65.5894 230.098 65.0781C230.47 64.5668 231.074 64.1484 231.492 64.1484C231.911 64.1484 232.515 63.73 232.887 63.2187C233.259 62.7074 233.909 62.289 234.374 62.289C234.839 62.289 235.211 62.0566 235.211 61.8242C235.211 61.5453 235.583 61.3593 236.048 61.3593C236.512 61.3593 237.163 60.941 237.535 60.4297C237.907 59.9183 238.511 59.5 238.93 59.5C239.348 59.5 239.952 59.0816 240.324 58.5703C240.696 58.059 241.347 57.6406 241.812 57.6406C242.277 57.6406 242.648 57.4082 242.648 57.1758C242.648 56.8969 243.02 56.7109 243.485 56.7109C243.95 56.7109 244.601 56.2925 244.973 55.7812C245.345 55.2699 245.949 54.8515 246.367 54.8515C246.786 54.8515 247.39 54.4332 247.762 53.9218C248.134 53.4105 248.784 52.9922 249.249 52.9922C249.714 52.9922 250.086 52.7597 250.086 52.5273C250.086 52.2484 250.458 52.0625 250.923 52.0625C251.387 52.0625 252.038 51.6441 252.41 51.1328C252.782 50.6215 253.386 50.2031 253.805 50.2031C254.223 50.2031 254.827 49.7847 255.199 49.2734C255.571 48.7621 256.222 48.3437 256.687 48.3437C257.152 48.3437 257.523 48.1113 257.523 47.8789C257.523 47.6 257.895 47.414 258.36 47.414C258.825 47.414 259.476 46.9957 259.848 46.4843C260.22 45.973 260.87 45.5547 261.335 45.5547C261.8 45.5547 262.172 45.3222 262.172 45.0898C262.172 44.8109 262.544 44.625 263.009 44.625C263.473 44.625 264.124 44.2066 264.496 43.6953C264.868 43.184 265.472 42.7656 265.891 42.7656C266.309 42.7656 266.913 42.3472 267.285 41.8359C267.657 41.3246 268.308 40.9062 268.773 40.9062C269.237 40.9062 269.609 40.6738 269.609 40.4414C269.609 40.1625 269.981 39.9765 270.446 39.9765C270.911 39.9765 271.562 39.5582 271.934 39.0468C272.305 38.5355 272.91 38.1172 273.328 38.1172C273.746 38.1172 274.351 37.6988 274.723 37.1875C275.095 36.6761 275.745 36.2578 276.21 36.2578C276.675 36.2578 277.047 36.0254 277.047 35.7929C277.047 35.514 277.419 35.3281 277.884 35.3281C278.348 35.3281 278.999 34.9097 279.371 34.3984C279.743 33.8871 280.347 33.4687 280.766 33.4687C281.184 33.4687 281.788 33.0504 282.16 32.539C282.532 32.0277 283.183 31.6093 283.648 31.6093C284.112 31.6093 284.484 31.3769 284.484 31.1445C284.484 30.8656 284.856 30.6797 285.321 30.6797C285.786 30.6797 286.437 30.2613 286.809 29.75C287.18 29.2386 287.831 28.8203 288.296 28.8203C288.761 28.8203 289.133 28.5879 289.133 28.3554C289.133 27.4258 290.667 27.9371 291.922 29.2851C292.619 30.0289 293.502 30.6797 293.874 30.6797C294.2 30.6797 294.804 31.098 295.176 31.6093C295.548 32.1671 296.384 32.539 297.128 32.539C297.825 32.539 298.43 32.725 298.43 33.0039C298.43 33.2828 300.614 33.4687 304.008 33.4687C307.401 33.4687 309.586 33.2828 309.586 33.0039C309.586 32.725 310.004 32.539 310.516 32.539C311.027 32.539 311.445 32.3066 311.445 32.0742C311.445 31.7953 311.817 31.6093 312.282 31.6093C312.747 31.6093 313.398 31.191 313.77 30.6797C314.141 30.1683 314.699 29.75 315.071 29.75C315.908 29.75 317.953 27.6117 317.953 26.7285C317.953 26.3566 318.186 26.0312 318.418 26.0312C318.697 26.0312 318.883 25.6129 318.883 25.1015C318.883 24.5902 319.115 24.1718 319.348 24.1718C319.627 24.1718 319.812 23.7535 319.812 23.2422C319.812 22.7308 320.045 22.3125 320.277 22.3125C320.556 22.3125 320.742 20.3136 320.742 17.1992C320.742 14.0847 320.556 12.0859 320.277 12.0859C320.045 12.0859 319.812 11.4351 319.812 10.6914C319.812 9.90115 319.627 9.29684 319.348 9.29684C319.115 9.29684 318.883 8.97147 318.883 8.59958C318.883 7.71637 314.048 2.78903 313.165 2.78903C312.84 2.78903 312.282 2.37067 311.91 1.85934C311.538 1.30154 310.702 0.929657 309.958 0.929657C309.261 0.929657 308.656 0.697235 308.656 0.464813C308.656 0.185913 306.797 -3.05176e-05 304.008 -3.05176e-05C301.219 -3.05176e-05 299.359 0.185913 299.359 0.464813ZM182.219 185.473C182.219 185.752 184.868 185.937 189.191 185.937C193.514 185.937 196.164 185.752 196.164 185.473C196.164 185.194 196.396 185.008 196.629 185.008C196.954 185.008 197.094 192.445 197.094 206.391V227.773H189.191H181.289V216.617C181.289 209.505 181.103 205.461 180.824 205.461C180.08 205.461 180.22 186.542 180.964 185.705C181.614 184.915 182.219 184.822 182.219 185.473ZM219.406 185.473C219.406 186.216 232.282 186.077 232.515 185.38C232.654 184.961 232.933 185.008 233.491 185.566C234.188 186.263 234.281 188.169 234.281 204.717C234.281 216.664 234.095 223.125 233.816 223.125C233.166 223.125 233.259 224.845 233.956 225.124C234.374 225.31 234.328 225.496 233.816 225.914C233.305 226.332 233.259 226.518 233.723 226.704C235.629 227.448 233.398 227.773 225.914 227.773H217.547V206.391C217.547 185.333 217.547 185.008 218.477 185.008C218.988 185.008 219.406 185.194 219.406 185.473ZM270.539 239.859C270.539 276.117 270.4 294.711 270.074 294.711C269.377 294.711 269.516 297.361 270.214 297.686C270.679 297.918 270.679 298.011 270.214 298.244C269.749 298.43 269.609 300.15 269.609 304.519V310.516H261.707H253.805V247.762V185.008H262.172H270.539V239.859ZM308.889 186.635C309.772 187.518 310.516 188.541 310.516 188.959C310.516 189.331 310.748 189.656 310.98 189.656C311.259 189.656 311.445 190.261 311.445 191.051C311.445 191.795 311.678 192.445 311.91 192.445C312.236 192.445 312.375 200.812 312.375 216.617V240.789H304.008C295.966 240.789 295.641 240.743 295.641 239.859C295.641 239.348 295.455 238.93 295.176 238.93C294.897 238.93 294.711 237.396 294.711 235.211C294.711 233.026 294.897 231.492 295.176 231.492C295.827 231.492 295.734 229.772 295.083 229.447C294.618 229.214 294.618 229.121 295.083 228.889C295.501 228.703 295.641 224.194 295.641 208.761C295.641 189.47 295.687 188.912 296.57 188.262C297.082 187.89 297.5 187.239 297.5 186.774C297.5 186.263 297.825 185.937 298.43 185.937C298.941 185.937 299.359 185.705 299.359 185.473C299.359 185.194 300.986 185.008 303.311 185.008C307.215 185.008 307.308 185.054 308.889 186.635ZM354.211 247.762V310.516H346.309H338.406V247.762V185.008H346.309H354.211V247.762ZM377.593 185.566C377.779 186.03 377.964 185.984 378.383 185.473C378.801 184.961 378.987 184.915 379.173 185.333C379.266 185.659 379.777 185.937 380.242 185.937C380.707 185.937 381.218 185.659 381.358 185.333C381.59 184.868 381.683 184.868 381.916 185.333C382.288 186.17 389.4 186.17 389.632 185.38C389.771 184.961 390.05 185.008 390.608 185.566C391.305 186.263 391.398 187.657 391.398 197.28C391.398 204.299 391.212 208.25 390.934 208.25C390.655 208.25 390.469 211.829 390.469 218.012V227.773H382.566H374.664V206.391V185.008H376.012C376.756 185.008 377.5 185.287 377.593 185.566ZM419.289 185.473C419.289 186.17 421.939 186.03 422.264 185.333C422.496 184.868 422.589 184.868 422.822 185.333C423.147 186.123 425.657 186.123 425.89 185.38C426.029 184.961 426.308 185.008 426.866 185.566C427.563 186.263 427.656 188.308 427.656 207.041V227.773H419.754H411.852V214.758C411.852 206.391 411.666 201.742 411.387 201.742C410.643 201.742 410.782 186.542 411.526 185.705C412.177 184.915 419.289 184.729 419.289 185.473ZM197.094 275.652V297.5H189.191H181.289V275.652V253.805H189.191H197.094V275.652ZM233.63 254.455C234.607 255.478 234.607 295.827 233.63 296.849C233.119 297.361 231.399 297.5 225.914 297.5C219.964 297.5 218.755 297.361 218.105 296.71C217.547 296.152 217.5 295.873 217.919 295.734C218.616 295.501 218.755 284.484 218.012 284.484C217.733 284.484 217.547 279.046 217.547 269.145V253.805H225.263C231.306 253.805 233.073 253.944 233.63 254.455ZM391.398 267.239C391.398 277.558 391.259 280.766 390.841 280.952C390.376 281.184 390.376 281.277 390.841 281.509C391.491 281.835 391.631 284.484 390.934 284.484C390.701 284.484 390.469 284.903 390.469 285.414C390.469 285.925 390.701 286.344 390.934 286.344C391.584 286.344 391.491 288.064 390.841 288.389C390.376 288.621 390.376 288.714 390.841 288.947C391.166 289.133 391.398 290.202 391.398 291.922C391.398 293.642 391.166 294.711 390.841 294.85C390.376 295.036 390.376 295.222 390.887 295.548C391.445 295.966 391.445 296.152 390.794 296.756C390.19 297.361 388.795 297.5 382.38 297.5H374.664V275.652V253.805H383.031H391.398V267.239ZM432.305 257.523C432.305 259.708 432.491 261.242 432.77 261.242C433.048 261.242 433.234 262.962 433.234 265.426V269.609H422.543H411.852V265.891C411.852 263.706 412.038 262.172 412.316 262.172C413.014 262.172 412.921 255.804 412.223 255.571C411.805 255.432 411.852 255.153 412.316 254.595C412.921 253.944 414.315 253.851 422.682 253.805H432.305V257.523ZM308.656 262.637C308.656 262.869 309.075 263.102 309.586 263.102C310.097 263.102 310.516 263.287 310.516 263.566C310.516 263.799 310.841 264.031 311.213 264.031C311.631 264.031 312.654 264.775 313.537 265.658C314.42 266.541 315.164 267.564 315.164 267.982C315.164 268.354 315.396 268.68 315.629 268.68C315.908 268.68 316.094 269.516 316.094 270.539C316.094 271.562 316.326 272.398 316.559 272.398C317.256 272.398 317.116 275.048 316.466 275.373C316.001 275.606 316.001 275.699 316.466 275.931C317.116 276.257 317.209 277.977 316.559 277.977C315.908 277.977 316.001 279.696 316.698 280.022C317.163 280.254 317.163 280.347 316.698 280.58C316.233 280.766 316.094 284.252 316.094 295.687V310.516H303.543H290.992V291.457C290.992 279.046 291.132 272.398 291.457 272.398C291.736 272.398 291.922 271.562 291.922 270.539C291.922 269.516 292.154 268.68 292.387 268.68C292.666 268.68 292.852 268.354 292.852 267.982C292.852 267.053 296.803 263.102 297.732 263.102C298.104 263.102 298.43 262.869 298.43 262.637C298.43 262.358 300.429 262.172 303.543 262.172C306.657 262.172 308.656 262.358 308.656 262.637Z" fill="#0F3F60"/>
<path d="M300.754 65.0781C300.382 65.5895 299.731 66.0078 299.266 66.0078C298.802 66.0078 298.43 66.1938 298.43 66.4727C298.43 66.7051 298.058 66.9375 297.593 66.9375C297.128 66.9375 296.477 67.3559 296.105 67.8672C295.734 68.3785 295.083 68.7969 294.618 68.7969C294.153 68.7969 293.781 68.9828 293.781 69.2617C293.781 69.4941 293.409 69.7266 292.945 69.7266C292.48 69.7266 291.829 70.1449 291.457 70.6562C291.085 71.1676 290.481 71.5859 290.062 71.5859C289.644 71.5859 289.04 72.0043 288.668 72.5156C288.296 73.027 287.645 73.4453 287.18 73.4453C286.716 73.4453 286.344 73.6313 286.344 73.9102C286.344 74.1426 285.972 74.375 285.507 74.375C285.042 74.375 284.391 74.7934 284.02 75.3047C283.648 75.816 282.997 76.2344 282.532 76.2344C282.067 76.2344 281.695 76.4203 281.695 76.6992C281.695 76.9316 281.323 77.1641 280.859 77.1641C280.394 77.1641 279.743 77.5824 279.371 78.0938C278.999 78.6051 278.395 79.0234 277.977 79.0234C277.558 79.0234 276.954 79.4418 276.582 79.9531C276.21 80.4645 275.559 80.8828 275.095 80.8828C274.63 80.8828 274.258 81.0688 274.258 81.3477C274.258 81.5801 273.886 81.8125 273.421 81.8125C272.956 81.8125 272.305 82.2309 271.934 82.7422C271.562 83.2535 270.957 83.6719 270.539 83.6719C270.121 83.6719 269.516 84.0902 269.145 84.6016C268.773 85.1129 268.122 85.5312 267.657 85.5312C267.192 85.5312 266.82 85.7172 266.82 85.9961C266.82 86.2285 266.448 86.4609 265.984 86.4609C265.519 86.4609 264.868 86.8793 264.496 87.3906C264.124 87.902 263.473 88.3203 263.009 88.3203C262.544 88.3203 262.172 88.5063 262.172 88.7852C262.172 89.0176 261.8 89.25 261.335 89.25C260.87 89.25 260.22 89.6684 259.848 90.1797C259.476 90.691 258.825 91.1094 258.36 91.1094C257.895 91.1094 257.523 91.2953 257.523 91.5742C257.523 91.8066 257.152 92.0391 256.687 92.0391C256.222 92.0391 255.571 92.4574 255.199 92.9688C254.827 93.4801 254.223 93.8984 253.805 93.8984C253.386 93.8984 252.782 94.3168 252.41 94.8281C252.038 95.3395 251.387 95.7578 250.923 95.7578C250.458 95.7578 250.086 95.9438 250.086 96.2227C250.086 96.4551 249.714 96.6875 249.249 96.6875C248.784 96.6875 248.134 97.1059 247.762 97.6172C247.39 98.1285 246.786 98.5469 246.367 98.5469C245.949 98.5469 245.345 98.9652 244.973 99.4766C244.601 99.9879 243.95 100.406 243.485 100.406C243.02 100.406 242.648 100.592 242.648 100.871C242.648 101.104 242.277 101.336 241.812 101.336C241.347 101.336 240.696 101.754 240.324 102.266C239.952 102.777 239.302 103.195 238.837 103.195C238.372 103.195 238 103.381 238 103.66C238 103.893 237.628 104.125 237.163 104.125C236.698 104.125 236.048 104.543 235.676 105.055C235.304 105.566 234.653 105.984 234.188 105.984C233.723 105.984 233.352 106.17 233.352 106.449C233.352 106.682 233.026 106.914 232.654 106.914C231.446 106.914 228.703 109.982 228.703 111.33V112.492H304.008C378.987 112.492 379.312 112.492 379.312 111.562C379.312 111.051 379.127 110.633 378.848 110.633C378.615 110.633 378.383 110.307 378.383 109.936C378.383 109.006 376.291 106.914 375.361 106.914C374.989 106.914 374.664 106.682 374.664 106.449C374.664 106.17 374.292 105.984 373.827 105.984C373.362 105.984 372.712 105.566 372.34 105.055C371.968 104.543 371.317 104.125 370.852 104.125C370.387 104.125 370.016 103.893 370.016 103.66C370.016 103.381 369.644 103.195 369.179 103.195C368.714 103.195 368.063 102.777 367.691 102.266C367.32 101.754 366.715 101.336 366.297 101.336C365.879 101.336 365.274 100.918 364.902 100.406C364.53 99.8949 363.88 99.4766 363.415 99.4766C362.95 99.4766 362.578 99.2441 362.578 99.0117C362.578 98.7328 362.206 98.5469 361.741 98.5469C361.277 98.5469 360.626 98.1285 360.254 97.6172C359.882 97.1059 359.278 96.6875 358.859 96.6875C358.441 96.6875 357.837 96.2691 357.465 95.7578C357.093 95.2465 356.442 94.8281 355.977 94.8281C355.512 94.8281 355.141 94.5957 355.141 94.3633C355.141 94.0844 354.769 93.8984 354.304 93.8984C353.839 93.8984 353.188 93.4801 352.816 92.9688C352.445 92.4574 351.794 92.0391 351.329 92.0391C350.864 92.0391 350.492 91.8066 350.492 91.5742C350.492 91.2953 350.12 91.1094 349.655 91.1094C349.191 91.1094 348.54 90.691 348.168 90.1797C347.796 89.6684 347.145 89.25 346.68 89.25C346.216 89.25 345.844 89.0176 345.844 88.7852C345.844 88.5063 345.472 88.3203 345.007 88.3203C344.542 88.3203 343.891 87.902 343.52 87.3906C343.148 86.8793 342.497 86.4609 342.032 86.4609C341.567 86.4609 341.195 86.2285 341.195 85.9961C341.195 85.7172 340.823 85.5312 340.359 85.5312C339.894 85.5312 339.243 85.1129 338.871 84.6016C338.499 84.0902 337.848 83.6719 337.384 83.6719C336.919 83.6719 336.547 83.4395 336.547 83.207C336.547 82.9281 336.175 82.7422 335.71 82.7422C335.245 82.7422 334.595 82.3238 334.223 81.8125C333.851 81.3012 333.2 80.8828 332.735 80.8828C332.27 80.8828 331.898 80.6504 331.898 80.418C331.898 80.1391 331.527 79.9531 331.062 79.9531C330.597 79.9531 329.946 79.5348 329.574 79.0234C329.202 78.5121 328.552 78.0938 328.087 78.0938C327.622 78.0938 327.25 77.8613 327.25 77.6289C327.25 77.35 326.878 77.1641 326.413 77.1641C325.948 77.1641 325.298 76.7457 324.926 76.2344C324.554 75.723 323.903 75.3047 323.438 75.3047C322.973 75.3047 322.602 75.0723 322.602 74.8398C322.602 74.5609 322.23 74.375 321.765 74.375C321.3 74.375 320.649 73.9566 320.277 73.4453C319.905 72.934 319.255 72.5156 318.79 72.5156C318.325 72.5156 317.953 72.2832 317.953 72.0508C317.953 71.7719 317.581 71.5859 317.116 71.5859C316.652 71.5859 316.001 71.1676 315.629 70.6562C315.257 70.1449 314.606 69.7266 314.141 69.7266C313.677 69.7266 313.305 69.4941 313.305 69.2617C313.305 68.9828 312.933 68.7969 312.468 68.7969C312.003 68.7969 311.352 68.3785 310.98 67.8672C310.609 67.3559 309.958 66.9375 309.493 66.9375C309.028 66.9375 308.656 66.7051 308.656 66.4727C308.656 66.1938 308.284 66.0078 307.82 66.0078C307.355 66.0078 306.704 65.5895 306.332 65.0781C305.821 64.3809 305.123 64.1484 303.543 64.1484C301.962 64.1484 301.265 64.3809 300.754 65.0781Z" fill="#0F3F60"/>
<path d="M357.93 351.887C357.93 352.119 357.093 352.352 356.07 352.352C355.048 352.352 354.211 352.538 354.211 352.816C354.211 353.049 353.793 353.281 353.281 353.281C352.77 353.281 352.352 353.467 352.352 353.746C352.352 353.979 352.026 354.211 351.654 354.211C350.725 354.211 344.914 360.021 344.914 360.951C344.914 361.323 344.728 361.648 344.449 361.648C344.217 361.648 343.984 362.253 343.984 363.043C343.984 363.787 343.798 364.438 343.52 364.438C342.776 364.438 342.915 375.454 343.612 375.687C344.403 375.966 342.962 377.453 341.939 377.453C341.521 377.453 341.195 377.639 341.195 377.918C341.195 378.15 340.777 378.383 340.266 378.383C339.754 378.383 339.336 378.569 339.336 378.848C339.336 379.08 338.964 379.312 338.499 379.312C338.034 379.312 337.384 379.731 337.012 380.242C336.64 380.754 335.989 381.172 335.524 381.172C335.059 381.172 334.688 381.358 334.688 381.637C334.688 381.869 334.316 382.102 333.851 382.102C333.386 382.102 332.735 382.52 332.363 383.031C331.991 383.543 331.387 383.961 330.969 383.961C330.55 383.961 329.946 384.379 329.574 384.891C329.202 385.402 328.552 385.82 328.087 385.82C327.622 385.82 327.25 386.006 327.25 386.285C327.25 386.518 326.878 386.75 326.413 386.75C325.948 386.75 325.298 387.168 324.926 387.68C324.554 388.191 323.903 388.609 323.438 388.609C322.973 388.609 322.602 388.795 322.602 389.074C322.602 389.307 322.23 389.539 321.765 389.539C321.3 389.539 320.649 389.957 320.277 390.469C319.905 390.98 319.255 391.398 318.79 391.398C318.325 391.398 317.953 391.584 317.953 391.863C317.953 392.096 317.581 392.328 317.116 392.328C316.652 392.328 316.001 392.746 315.629 393.258C315.257 393.769 314.606 394.188 314.141 394.188C313.677 394.188 313.305 394.373 313.305 394.652C313.305 394.885 312.933 395.117 312.468 395.117C312.003 395.117 311.352 395.536 310.98 396.047C310.609 396.558 309.958 396.977 309.493 396.977C309.028 396.977 308.656 397.163 308.656 397.441C308.656 397.674 308.284 397.906 307.82 397.906C307.355 397.906 306.704 398.325 306.332 398.836C305.96 399.347 305.309 399.766 304.845 399.766C304.38 399.766 304.008 399.952 304.008 400.23C304.008 400.463 303.636 400.695 303.171 400.695C302.706 400.695 302.055 401.114 301.684 401.625C301.312 402.136 300.661 402.555 300.196 402.555C299.731 402.555 299.359 402.741 299.359 403.02C299.359 403.252 298.987 403.484 298.523 403.484C298.058 403.484 297.407 403.903 297.035 404.414C296.663 404.925 296.012 405.344 295.548 405.344C295.083 405.344 294.711 405.53 294.711 405.809C294.711 406.041 294.107 406.273 293.316 406.273C292.573 406.273 291.922 406.041 291.922 405.809C291.922 405.53 291.504 405.344 290.992 405.344C290.481 405.344 290.062 405.111 290.062 404.879C290.062 404.6 289.644 404.414 289.133 404.414C288.621 404.414 288.203 404.182 288.203 403.949C288.203 403.67 287.18 403.484 285.879 403.484C284.624 403.484 283.555 403.252 283.555 403.02C283.555 402.741 283.136 402.555 282.625 402.555C282.114 402.555 281.695 402.741 281.695 403.02C281.695 403.252 280.673 403.484 279.371 403.484C278.116 403.484 277.047 403.67 277.047 403.949C277.047 404.182 276.629 404.414 276.117 404.414C275.606 404.414 275.188 404.6 275.188 404.879C275.188 405.111 274.769 405.344 274.258 405.344C273.746 405.344 273.328 405.53 273.328 405.809C273.328 406.041 273.003 406.273 272.631 406.273C271.748 406.273 269.609 408.319 269.609 409.155C269.609 409.527 269.191 410.085 268.68 410.457C268.168 410.829 267.75 411.48 267.75 411.945C267.75 412.409 267.564 412.781 267.285 412.781C267.053 412.781 266.82 413.386 266.82 414.176C266.82 414.92 266.634 415.57 266.355 415.57C266.077 415.57 265.891 417.29 265.891 419.754C265.891 422.218 266.077 423.938 266.355 423.938C266.634 423.938 266.82 424.356 266.82 424.867C266.82 425.379 267.053 425.797 267.285 425.797C267.564 425.797 267.75 426.215 267.75 426.727C267.75 427.238 267.982 427.656 268.215 427.656C268.494 427.656 268.68 427.982 268.68 428.354C268.68 428.772 269.842 430.213 271.236 431.607C272.631 433.002 274.072 434.164 274.49 434.164C274.862 434.164 275.188 434.35 275.188 434.629C275.188 434.861 275.838 435.094 276.582 435.094C277.372 435.094 277.977 435.28 277.977 435.559C277.977 435.838 279.975 436.023 283.09 436.023C286.204 436.023 288.203 435.838 288.203 435.559C288.203 435.28 288.621 435.094 289.133 435.094C289.644 435.094 290.062 434.861 290.062 434.629C290.062 434.35 290.388 434.164 290.76 434.164C291.689 434.164 297.5 428.354 297.5 427.424C297.5 427.052 297.732 426.727 297.965 426.727C298.244 426.727 298.43 426.308 298.43 425.797C298.43 425.286 298.662 424.867 298.895 424.867C299.173 424.867 299.359 423.008 299.359 420.219C299.359 417.43 299.173 415.57 298.895 415.57C298.662 415.57 298.43 415.152 298.43 414.641C298.43 414.036 298.755 413.711 299.266 413.711C299.731 413.711 300.382 413.293 300.754 412.781C301.126 412.27 301.777 411.852 302.241 411.852C302.706 411.852 303.078 411.619 303.078 411.387C303.078 411.108 303.45 410.922 303.915 410.922C304.38 410.922 305.03 410.504 305.402 409.992C305.774 409.481 306.425 409.062 306.89 409.062C307.355 409.062 307.727 408.83 307.727 408.598C307.727 408.319 308.098 408.133 308.563 408.133C309.028 408.133 309.679 407.714 310.051 407.203C310.423 406.692 311.073 406.273 311.538 406.273C312.003 406.273 312.375 406.041 312.375 405.809C312.375 405.53 312.747 405.344 313.212 405.344C313.677 405.344 314.327 404.925 314.699 404.414C315.071 403.903 315.675 403.484 316.094 403.484C316.512 403.484 317.116 403.066 317.488 402.555C317.86 402.043 318.511 401.625 318.976 401.625C319.441 401.625 319.812 401.393 319.812 401.16C319.812 400.881 320.184 400.695 320.649 400.695C321.114 400.695 321.765 400.277 322.137 399.766C322.509 399.254 323.159 398.836 323.624 398.836C324.089 398.836 324.461 398.604 324.461 398.371C324.461 398.092 324.833 397.906 325.298 397.906C325.762 397.906 326.413 397.488 326.785 396.977C327.157 396.465 327.808 396.047 328.273 396.047C328.737 396.047 329.109 395.814 329.109 395.582C329.109 395.303 329.481 395.117 329.946 395.117C330.411 395.117 331.062 394.699 331.434 394.188C331.805 393.676 332.41 393.258 332.828 393.258C333.246 393.258 333.851 392.839 334.223 392.328C334.595 391.817 335.245 391.398 335.71 391.398C336.175 391.398 336.547 391.166 336.547 390.934C336.547 390.655 336.919 390.469 337.384 390.469C337.848 390.469 338.499 390.05 338.871 389.539C339.243 389.028 339.894 388.609 340.359 388.609C340.823 388.609 341.195 388.377 341.195 388.145C341.195 387.866 341.567 387.68 342.032 387.68C342.497 387.68 343.148 387.261 343.52 386.75C343.891 386.239 344.542 385.82 345.007 385.82C345.472 385.82 345.844 385.588 345.844 385.355C345.844 384.519 348.4 384.844 349.098 385.82C349.47 386.332 350.074 386.75 350.492 386.75C350.911 386.75 351.515 387.168 351.887 387.68C352.259 388.191 352.909 388.609 353.374 388.609C353.839 388.609 354.211 388.795 354.211 389.074C354.211 389.307 354.862 389.539 355.605 389.539C356.396 389.539 357 389.725 357 390.004C357 390.283 358.72 390.469 361.184 390.469C363.647 390.469 365.367 390.283 365.367 390.004C365.367 389.725 366.018 389.539 366.762 389.539C367.552 389.539 368.156 389.307 368.156 389.074C368.156 388.795 368.714 388.609 369.365 388.609C370.109 388.609 371.085 388.052 371.875 387.215C372.572 386.425 373.409 385.82 373.688 385.82C374.432 385.82 376.523 383.682 376.523 382.938C376.523 382.566 376.942 382.009 377.453 381.637C377.964 381.265 378.383 380.614 378.383 380.149C378.383 379.684 378.615 379.312 378.848 379.312C379.127 379.312 379.312 378.894 379.312 378.383C379.312 377.871 379.545 377.453 379.777 377.453C380.056 377.453 380.242 376.384 380.242 375.129C380.242 373.827 380.475 372.805 380.707 372.805C380.986 372.805 381.172 371.968 381.172 370.945C381.172 369.923 380.986 369.086 380.707 369.086C380.475 369.086 380.242 368.017 380.242 366.762C380.242 365.46 380.056 364.438 379.777 364.438C379.545 364.438 379.312 364.019 379.312 363.508C379.312 362.996 379.127 362.578 378.848 362.578C378.615 362.578 378.383 362.16 378.383 361.648C378.383 361.137 378.197 360.719 377.918 360.719C377.686 360.719 377.453 360.393 377.453 360.021C377.453 359.138 373.548 355.141 372.665 355.141C372.34 355.141 371.782 354.722 371.41 354.211C371.038 353.653 370.202 353.281 369.458 353.281C368.761 353.281 368.156 353.049 368.156 352.816C368.156 352.538 367.32 352.352 366.297 352.352C365.274 352.352 364.438 352.119 364.438 351.887C364.438 351.608 363.043 351.422 361.184 351.422C359.324 351.422 357.93 351.608 357.93 351.887Z" fill="#0F3F60"/>
<path d="M0 509.469C0 528.388 0.139453 538.289 0.464844 538.289C0.74375 538.289 0.929688 540.009 0.929688 542.473C0.929688 544.936 1.11562 546.656 1.39453 546.656C1.67344 546.656 1.85938 547.493 1.85938 548.516C1.85938 549.538 2.0918 550.375 2.32422 550.375C2.60312 550.375 2.78906 550.979 2.78906 551.77C2.78906 552.513 3.02148 553.164 3.25391 553.164C3.53281 553.164 3.71875 553.582 3.71875 554.094C3.71875 554.605 3.95117 555.023 4.18359 555.023C4.4625 555.023 4.64844 555.395 4.64844 555.86C4.64844 556.325 5.0668 556.976 5.57812 557.348C6.08945 557.72 6.50781 558.277 6.50781 558.603C6.50781 559.486 13.2945 566.18 14.1777 566.18C14.5496 566.18 14.875 566.366 14.875 566.645C14.875 566.877 15.2934 567.109 15.8047 567.109C16.316 567.109 16.7344 567.295 16.7344 567.574C16.7344 567.807 17.3852 568.039 18.1289 568.039C18.9191 568.039 19.5234 568.225 19.5234 568.504C19.5234 568.736 20.1742 568.969 20.918 568.969C21.7082 568.969 22.3125 569.155 22.3125 569.434C22.3125 569.666 23.3816 569.898 24.6367 569.898C25.9383 569.898 26.9609 570.084 26.9609 570.363C26.9609 570.642 29.8895 570.828 34.8633 570.828C39.8371 570.828 42.7656 570.642 42.7656 570.363C42.7656 570.084 43.8348 569.898 45.0898 569.898C46.3914 569.898 47.4141 569.666 47.4141 569.434C47.4141 569.155 48.2508 568.969 49.2734 568.969C50.2961 568.969 51.1328 568.736 51.1328 568.504C51.1328 568.225 51.5512 568.039 52.0625 568.039C52.5738 568.039 52.9922 567.807 52.9922 567.574C52.9922 567.295 53.4105 567.109 53.9219 567.109C54.4332 567.109 54.8516 566.877 54.8516 566.645C54.8516 566.366 55.2234 566.18 55.6883 566.18C56.1531 566.18 56.8039 565.761 57.1758 565.25C57.5477 564.739 58.1055 564.32 58.4773 564.32C58.8027 564.32 59.7789 563.577 60.6621 562.693C61.5453 561.81 62.2891 560.834 62.2891 560.509C62.2891 560.137 62.7074 559.579 63.2187 559.207C63.7301 558.835 64.1484 558.184 64.1484 557.72C64.1484 557.255 64.3809 556.883 64.6133 556.883C64.8922 556.883 65.0781 556.464 65.0781 555.953C65.0781 555.442 65.3105 555.023 65.543 555.023C65.8219 555.023 66.0078 554.605 66.0078 554.094C66.0078 553.582 66.2402 553.164 66.4727 553.164C66.7516 553.164 66.9375 552.513 66.9375 551.77C66.9375 550.979 67.1699 550.375 67.4023 550.375C67.6813 550.375 67.8672 549.306 67.8672 548.051C67.8672 546.749 68.0996 545.727 68.332 545.727C68.6574 545.727 68.7969 534.57 68.7969 513.187V480.648H59.5C53.5965 480.648 50.2031 480.834 50.2031 481.113C50.2031 481.346 50.4355 481.578 50.668 481.578C51.4117 481.578 51.2723 502.821 50.575 503.147C50.1102 503.379 50.1102 503.472 50.575 503.705C51.2723 504.03 51.4117 515.047 50.668 515.047C50.3891 515.047 50.2031 520.16 50.2031 529.457C50.2031 538.754 50.0172 543.867 49.7383 543.867C49.5059 543.867 49.2734 544.471 49.2734 545.262C49.2734 546.005 49.0875 546.656 48.8086 546.656C48.5762 546.656 48.3438 546.982 48.3438 547.354C48.3438 547.772 47.6 548.795 46.7168 549.678C45.8336 550.561 44.8109 551.305 44.3926 551.305C44.0207 551.305 43.6953 551.491 43.6953 551.77C43.6953 552.002 43.277 552.234 42.7656 552.234C42.2543 552.234 41.8359 552.42 41.8359 552.699C41.8359 552.932 40.9992 553.164 39.9766 553.164C38.9539 553.164 38.1172 553.35 38.1172 553.629C38.1172 553.908 36.8621 554.094 35.3281 554.094C33.7941 554.094 32.5391 553.908 32.5391 553.629C32.5391 553.35 31.5164 553.164 30.2148 553.164C28.9598 553.164 27.8906 552.932 27.8906 552.699C27.8906 552.42 27.4723 552.234 26.9609 552.234C26.4496 552.234 26.0312 552.002 26.0312 551.77C26.0312 551.491 25.7059 551.305 25.334 551.305C24.4043 551.305 21.3828 548.283 21.3828 547.354C21.3828 546.982 21.1969 546.656 20.918 546.656C20.6855 546.656 20.4531 546.005 20.4531 545.262C20.4531 544.471 20.2672 543.867 19.9883 543.867C19.7559 543.867 19.5234 542.798 19.5234 541.543C19.5234 540.241 19.3375 539.219 19.0586 539.219C18.7332 539.219 18.5938 529.132 18.5938 509.934V480.648H9.29688H0V509.469Z" fill="#0F3F60"/>
<path d="M79.0234 489.48V498.312H91.5742H104.125V534.105V569.898H113.422H122.719V534.105V498.312H135.27H147.82V489.48V480.648H113.422H79.0234V489.48Z" fill="#0F3F60"/>
<path d="M158.977 525.273V569.898H168.273C174.177 569.898 177.57 569.712 177.57 569.434C177.57 569.155 177.384 568.969 177.105 568.969C176.78 568.969 176.641 559.207 176.641 540.613C176.641 522.02 176.78 512.258 177.105 512.258C177.384 512.258 177.57 512.676 177.57 513.188C177.57 513.699 177.803 514.117 178.035 514.117C178.314 514.117 178.5 514.536 178.5 515.047C178.5 515.558 178.732 515.977 178.965 515.977C179.244 515.977 179.43 516.581 179.43 517.371C179.43 518.115 179.662 518.766 179.895 518.766C180.173 518.766 180.359 519.184 180.359 519.695C180.359 520.207 180.592 520.625 180.824 520.625C181.103 520.625 181.289 521.043 181.289 521.555C181.289 522.066 181.521 522.484 181.754 522.484C182.033 522.484 182.219 522.903 182.219 523.414C182.219 523.925 182.451 524.344 182.684 524.344C182.962 524.344 183.148 524.762 183.148 525.273C183.148 525.785 183.381 526.203 183.613 526.203C183.892 526.203 184.078 526.807 184.078 527.598C184.078 528.341 184.311 528.992 184.543 528.992C184.822 528.992 185.008 529.411 185.008 529.922C185.008 530.433 185.24 530.852 185.473 530.852C185.752 530.852 185.938 531.27 185.938 531.781C185.938 532.293 186.17 532.711 186.402 532.711C186.681 532.711 186.867 533.129 186.867 533.641C186.867 534.152 187.1 534.57 187.332 534.57C187.611 534.57 187.797 534.989 187.797 535.5C187.797 536.011 188.029 536.43 188.262 536.43C188.541 536.43 188.727 537.034 188.727 537.824C188.727 538.568 188.959 539.219 189.191 539.219C189.47 539.219 189.656 539.637 189.656 540.148C189.656 540.66 189.889 541.078 190.121 541.078C190.4 541.078 190.586 541.496 190.586 542.008C190.586 542.519 190.818 542.938 191.051 542.938C191.33 542.938 191.516 543.356 191.516 543.867C191.516 544.379 191.748 544.797 191.98 544.797C192.259 544.797 192.445 545.215 192.445 545.727C192.445 546.238 192.678 546.656 192.91 546.656C193.189 546.656 193.375 547.261 193.375 548.051C193.375 548.795 193.607 549.445 193.84 549.445C194.119 549.445 194.305 549.864 194.305 550.375C194.305 550.886 194.537 551.305 194.77 551.305C195.048 551.305 195.234 551.723 195.234 552.234C195.234 553.118 195.56 553.164 201.742 553.164C207.925 553.164 208.25 553.118 208.25 552.234C208.25 551.723 208.482 551.305 208.715 551.305C208.994 551.305 209.18 550.886 209.18 550.375C209.18 549.864 209.412 549.445 209.645 549.445C209.923 549.445 210.109 549.027 210.109 548.516C210.109 548.004 210.342 547.586 210.574 547.586C210.853 547.586 211.039 547.168 211.039 546.656C211.039 546.145 211.271 545.727 211.504 545.727C211.783 545.727 211.969 545.308 211.969 544.797C211.969 544.286 212.201 543.867 212.434 543.867C212.713 543.867 212.898 543.449 212.898 542.938C212.898 542.426 213.131 542.008 213.363 542.008C213.642 542.008 213.828 541.589 213.828 541.078C213.828 540.567 214.061 540.148 214.293 540.148C214.572 540.148 214.758 539.73 214.758 539.219C214.758 538.707 214.99 538.289 215.223 538.289C215.502 538.289 215.688 537.638 215.688 536.895C215.688 536.104 215.92 535.5 216.152 535.5C216.431 535.5 216.617 535.082 216.617 534.57C216.617 534.059 216.85 533.641 217.082 533.641C217.361 533.641 217.547 533.222 217.547 532.711C217.547 532.2 217.779 531.781 218.012 531.781C218.291 531.781 218.477 531.363 218.477 530.852C218.477 530.34 218.709 529.922 218.941 529.922C219.22 529.922 219.406 529.504 219.406 528.992C219.406 528.481 219.639 528.062 219.871 528.062C220.15 528.062 220.336 527.644 220.336 527.133C220.336 526.621 220.568 526.203 220.801 526.203C221.08 526.203 221.266 525.785 221.266 525.273C221.266 524.762 221.498 524.344 221.73 524.344C222.009 524.344 222.195 523.693 222.195 522.949C222.195 522.159 222.428 521.555 222.66 521.555C222.939 521.555 223.125 521.136 223.125 520.625C223.125 520.114 223.357 519.695 223.59 519.695C223.869 519.695 224.055 519.277 224.055 518.766C224.055 518.254 224.287 517.836 224.52 517.836C224.798 517.836 224.984 517.418 224.984 516.906C224.984 516.395 225.217 515.977 225.449 515.977C225.728 515.977 225.914 515.558 225.914 515.047C225.914 514.536 226.146 514.117 226.379 514.117C226.658 514.117 226.844 513.699 226.844 513.188C226.844 512.676 227.076 512.258 227.309 512.258C227.634 512.258 227.773 522.159 227.773 541.078V569.898H236.605H245.438V525.273V480.648H234.746H224.055V482.043C224.055 482.787 223.869 483.438 223.59 483.438C223.357 483.438 223.125 483.856 223.125 484.367C223.125 484.879 222.939 485.297 222.66 485.297C222.428 485.297 222.195 485.715 222.195 486.227C222.195 486.738 222.009 487.156 221.73 487.156C221.498 487.156 221.266 487.575 221.266 488.086C221.266 488.597 221.08 489.016 220.801 489.016C220.568 489.016 220.336 489.62 220.336 490.41C220.336 491.154 220.15 491.805 219.871 491.805C219.639 491.805 219.406 492.223 219.406 492.734C219.406 493.246 219.22 493.664 218.941 493.664C218.709 493.664 218.477 494.082 218.477 494.594C218.477 495.105 218.291 495.523 218.012 495.523C217.779 495.523 217.547 495.942 217.547 496.453C217.547 496.964 217.361 497.383 217.082 497.383C216.85 497.383 216.617 497.801 216.617 498.312C216.617 498.824 216.431 499.242 216.152 499.242C215.92 499.242 215.688 499.846 215.688 500.637C215.688 501.38 215.502 502.031 215.223 502.031C214.99 502.031 214.758 502.45 214.758 502.961C214.758 503.472 214.572 503.891 214.293 503.891C214.061 503.891 213.828 504.309 213.828 504.82C213.828 505.332 213.642 505.75 213.363 505.75C213.131 505.75 212.898 506.168 212.898 506.68C212.898 507.191 212.713 507.609 212.434 507.609C212.201 507.609 211.969 508.028 211.969 508.539C211.969 509.05 211.783 509.469 211.504 509.469C211.271 509.469 211.039 509.887 211.039 510.398C211.039 510.91 210.853 511.328 210.574 511.328C210.342 511.328 210.109 511.932 210.109 512.723C210.109 513.466 209.923 514.117 209.645 514.117C209.412 514.117 209.18 514.536 209.18 515.047C209.18 515.558 208.994 515.977 208.715 515.977C208.482 515.977 208.25 516.395 208.25 516.906C208.25 517.418 208.064 517.836 207.785 517.836C207.553 517.836 207.32 518.254 207.32 518.766C207.32 519.277 207.134 519.695 206.855 519.695C206.623 519.695 206.391 520.114 206.391 520.625C206.391 521.136 206.205 521.555 205.926 521.555C205.693 521.555 205.461 522.159 205.461 522.949C205.461 523.693 205.275 524.344 204.996 524.344C204.764 524.344 204.531 524.762 204.531 525.273C204.531 525.785 204.345 526.203 204.066 526.203C203.834 526.203 203.602 526.529 203.602 526.947C203.602 527.644 202.532 528.992 202.021 528.992C201.882 528.992 201.742 528.574 201.742 528.062C201.742 527.551 201.556 527.133 201.277 527.133C201.045 527.133 200.812 526.714 200.812 526.203C200.812 525.692 200.627 525.273 200.348 525.273C200.115 525.273 199.883 524.855 199.883 524.344C199.883 523.832 199.697 523.414 199.418 523.414C199.186 523.414 198.953 522.996 198.953 522.484C198.953 521.973 198.767 521.555 198.488 521.555C198.256 521.555 198.023 521.136 198.023 520.625C198.023 520.114 197.838 519.695 197.559 519.695C197.326 519.695 197.094 519.045 197.094 518.301C197.094 517.511 196.908 516.906 196.629 516.906C196.396 516.906 196.164 516.488 196.164 515.977C196.164 515.465 195.978 515.047 195.699 515.047C195.467 515.047 195.234 514.629 195.234 514.117C195.234 513.606 195.048 513.188 194.77 513.188C194.537 513.188 194.305 512.769 194.305 512.258C194.305 511.746 194.119 511.328 193.84 511.328C193.607 511.328 193.375 510.91 193.375 510.398C193.375 509.887 193.189 509.469 192.91 509.469C192.678 509.469 192.445 509.05 192.445 508.539C192.445 508.028 192.259 507.609 191.98 507.609C191.748 507.609 191.516 506.959 191.516 506.215C191.516 505.425 191.33 504.82 191.051 504.82C190.818 504.82 190.586 504.402 190.586 503.891C190.586 503.379 190.4 502.961 190.121 502.961C189.889 502.961 189.656 502.543 189.656 502.031C189.656 501.52 189.47 501.102 189.191 501.102C188.959 501.102 188.727 500.683 188.727 500.172C188.727 499.661 188.541 499.242 188.262 499.242C188.029 499.242 187.797 498.591 187.797 497.848C187.797 497.057 187.611 496.453 187.332 496.453C187.1 496.453 186.867 496.035 186.867 495.523C186.867 495.012 186.681 494.594 186.402 494.594C186.17 494.594 185.938 494.175 185.938 493.664C185.938 493.153 185.752 492.734 185.473 492.734C185.24 492.734 185.008 492.316 185.008 491.805C185.008 491.293 184.822 490.875 184.543 490.875C184.311 490.875 184.078 490.457 184.078 489.945C184.078 489.434 183.892 489.016 183.613 489.016C183.381 489.016 183.148 488.597 183.148 488.086C183.148 487.575 182.962 487.156 182.684 487.156C182.451 487.156 182.219 486.505 182.219 485.762C182.219 484.971 182.033 484.367 181.754 484.367C181.521 484.367 181.289 483.949 181.289 483.438C181.289 482.926 181.103 482.508 180.824 482.508C180.592 482.508 180.359 482.089 180.359 481.578C180.359 480.695 180.034 480.648 169.668 480.648H158.977V525.273Z" fill="#0F3F60"/>
<path d="M260.312 525.273V569.898H269.609H278.906V541.078C278.906 522.159 279.046 512.258 279.371 512.258C279.65 512.258 279.836 512.676 279.836 513.188C279.836 513.699 280.068 514.117 280.301 514.117C280.58 514.117 280.766 514.489 280.766 514.954C280.766 515.419 281.184 516.07 281.695 516.441C282.207 516.813 282.625 517.464 282.625 517.929C282.625 518.394 282.857 518.766 283.09 518.766C283.369 518.766 283.555 519.138 283.555 519.602C283.555 520.067 283.973 520.718 284.484 521.09C284.996 521.462 285.414 522.113 285.414 522.577C285.414 523.042 285.646 523.414 285.879 523.414C286.158 523.414 286.344 523.786 286.344 524.251C286.344 524.716 286.762 525.366 287.273 525.738C287.785 526.11 288.203 526.761 288.203 527.226C288.203 527.691 288.436 528.062 288.668 528.062C288.947 528.062 289.133 528.481 289.133 528.992C289.133 529.504 289.365 529.922 289.598 529.922C289.877 529.922 290.062 530.294 290.062 530.759C290.062 531.223 290.481 531.874 290.992 532.246C291.504 532.618 291.922 533.269 291.922 533.734C291.922 534.198 292.154 534.57 292.387 534.57C292.666 534.57 292.852 534.942 292.852 535.407C292.852 535.872 293.27 536.523 293.781 536.895C294.293 537.266 294.711 537.917 294.711 538.382C294.711 538.847 294.943 539.219 295.176 539.219C295.455 539.219 295.641 539.637 295.641 540.148C295.641 540.66 295.873 541.078 296.105 541.078C296.384 541.078 296.57 541.45 296.57 541.915C296.57 542.38 296.989 543.03 297.5 543.402C298.011 543.774 298.43 544.425 298.43 544.89C298.43 545.355 298.662 545.727 298.895 545.727C299.173 545.727 299.359 546.145 299.359 546.656C299.359 547.168 299.592 547.586 299.824 547.586C300.103 547.586 300.289 547.958 300.289 548.423C300.289 548.888 300.707 549.538 301.219 549.91C301.73 550.282 302.148 550.933 302.148 551.398C302.148 551.863 302.381 552.234 302.613 552.234C302.892 552.234 303.078 552.606 303.078 553.071C303.078 553.536 303.496 554.187 304.008 554.559C304.519 554.93 304.938 555.581 304.938 556.046C304.938 556.511 305.17 556.883 305.402 556.883C305.681 556.883 305.867 557.301 305.867 557.812C305.867 558.324 306.1 558.742 306.332 558.742C306.611 558.742 306.797 559.114 306.797 559.579C306.797 560.044 307.215 560.695 307.727 561.066C308.238 561.438 308.656 562.089 308.656 562.554C308.656 563.019 308.889 563.391 309.121 563.391C309.4 563.391 309.586 563.809 309.586 564.32C309.586 564.832 309.818 565.25 310.051 565.25C310.33 565.25 310.516 565.622 310.516 566.087C310.516 566.552 310.934 567.202 311.445 567.574C311.957 567.946 312.375 568.597 312.375 569.062C312.375 569.852 313.072 569.898 321.672 569.898H330.969V525.273V480.648H321.672H312.375V509.469C312.375 528.388 312.236 538.289 311.91 538.289C311.678 538.289 311.445 537.917 311.445 537.452C311.445 536.987 311.027 536.337 310.516 535.965C310.004 535.593 309.586 534.942 309.586 534.477C309.586 534.013 309.4 533.641 309.121 533.641C308.889 533.641 308.656 533.222 308.656 532.711C308.656 532.2 308.47 531.781 308.191 531.781C307.959 531.781 307.727 531.409 307.727 530.945C307.727 530.48 307.308 529.829 306.797 529.457C306.286 529.085 305.867 528.434 305.867 527.97C305.867 527.505 305.681 527.133 305.402 527.133C305.17 527.133 304.938 526.714 304.938 526.203C304.938 525.692 304.752 525.273 304.473 525.273C304.24 525.273 304.008 524.902 304.008 524.437C304.008 523.972 303.589 523.321 303.078 522.949C302.567 522.577 302.148 521.927 302.148 521.462C302.148 520.997 301.962 520.625 301.684 520.625C301.451 520.625 301.219 520.253 301.219 519.788C301.219 519.323 300.8 518.673 300.289 518.301C299.778 517.929 299.359 517.278 299.359 516.813C299.359 516.348 299.173 515.977 298.895 515.977C298.662 515.977 298.43 515.558 298.43 515.047C298.43 514.536 298.244 514.117 297.965 514.117C297.732 514.117 297.5 513.745 297.5 513.28C297.5 512.816 297.082 512.165 296.57 511.793C296.059 511.421 295.641 510.77 295.641 510.305C295.641 509.841 295.455 509.469 295.176 509.469C294.943 509.469 294.711 509.05 294.711 508.539C294.711 508.028 294.525 507.609 294.246 507.609C294.014 507.609 293.781 507.238 293.781 506.773C293.781 506.308 293.363 505.657 292.852 505.285C292.34 504.913 291.922 504.263 291.922 503.798C291.922 503.333 291.736 502.961 291.457 502.961C291.225 502.961 290.992 502.543 290.992 502.031C290.992 501.52 290.806 501.102 290.527 501.102C290.295 501.102 290.062 500.73 290.062 500.265C290.062 499.8 289.644 499.149 289.133 498.777C288.621 498.405 288.203 497.755 288.203 497.29C288.203 496.825 288.017 496.453 287.738 496.453C287.506 496.453 287.273 496.035 287.273 495.523C287.273 495.012 287.087 494.594 286.809 494.594C286.576 494.594 286.344 494.222 286.344 493.757C286.344 493.292 285.925 492.641 285.414 492.27C284.903 491.898 284.484 491.247 284.484 490.782C284.484 490.317 284.298 489.945 284.02 489.945C283.787 489.945 283.555 489.527 283.555 489.016C283.555 488.504 283.369 488.086 283.09 488.086C282.857 488.086 282.625 487.668 282.625 487.156C282.625 486.645 282.439 486.227 282.16 486.227C281.928 486.227 281.695 485.855 281.695 485.39C281.695 484.925 281.277 484.274 280.766 483.902C280.208 483.53 279.836 482.694 279.836 481.95V480.648H270.074H260.312V525.273Z" fill="#0F3F60"/>
<path d="M376.523 525.273V569.898H385.82H395.117V543.402C395.117 526.064 394.978 516.906 394.652 516.906C394.42 516.906 394.188 515.837 394.188 514.582C394.188 513.28 394.327 512.258 394.466 512.258C395.117 512.258 396.047 513.699 396.047 514.768C396.047 515.419 396.279 515.977 396.512 515.977C396.791 515.977 396.977 516.395 396.977 516.906C396.977 517.418 397.209 517.836 397.441 517.836C397.72 517.836 397.906 518.254 397.906 518.766C397.906 519.277 398.139 519.695 398.371 519.695C398.65 519.695 398.836 520.3 398.836 521.09C398.836 521.834 399.068 522.484 399.301 522.484C399.58 522.484 399.766 522.903 399.766 523.414C399.766 523.925 399.998 524.344 400.23 524.344C400.509 524.344 400.695 524.762 400.695 525.273C400.695 525.785 400.928 526.203 401.16 526.203C401.439 526.203 401.625 526.621 401.625 527.133C401.625 527.644 401.857 528.062 402.09 528.062C402.369 528.062 402.555 528.481 402.555 528.992C402.555 529.504 402.787 529.922 403.02 529.922C403.298 529.922 403.484 530.526 403.484 531.316C403.484 532.06 403.717 532.711 403.949 532.711C404.228 532.711 404.414 533.129 404.414 533.641C404.414 534.152 404.646 534.57 404.879 534.57C405.158 534.57 405.344 534.989 405.344 535.5C405.344 536.011 405.576 536.43 405.809 536.43C406.087 536.43 406.273 536.848 406.273 537.359C406.273 537.871 406.506 538.289 406.738 538.289C407.017 538.289 407.203 538.707 407.203 539.219C407.203 539.73 407.436 540.148 407.668 540.148C407.947 540.148 408.133 540.753 408.133 541.543C408.133 542.287 408.365 542.938 408.598 542.938C408.877 542.938 409.062 543.356 409.062 543.867C409.062 544.379 409.295 544.797 409.527 544.797C409.806 544.797 409.992 545.215 409.992 545.727C409.992 546.238 410.225 546.656 410.457 546.656C410.736 546.656 410.922 547.075 410.922 547.586C410.922 548.097 411.154 548.516 411.387 548.516C411.666 548.516 411.852 548.934 411.852 549.445C411.852 549.957 412.084 550.375 412.316 550.375C412.595 550.375 412.781 550.979 412.781 551.77V553.164H419.289H425.797V551.77C425.797 550.979 426.029 550.375 426.262 550.375C426.541 550.375 426.727 549.957 426.727 549.445C426.727 548.934 426.959 548.516 427.191 548.516C427.47 548.516 427.656 548.097 427.656 547.586C427.656 547.075 427.889 546.656 428.121 546.656C428.4 546.656 428.586 546.238 428.586 545.727C428.586 545.215 428.818 544.797 429.051 544.797C429.33 544.797 429.516 544.379 429.516 543.867C429.516 543.356 429.748 542.938 429.98 542.938C430.259 542.938 430.445 542.287 430.445 541.543C430.445 540.753 430.678 540.148 430.91 540.148C431.189 540.148 431.375 539.73 431.375 539.219C431.375 538.707 431.607 538.289 431.84 538.289C432.119 538.289 432.305 537.871 432.305 537.359C432.305 536.848 432.537 536.43 432.77 536.43C433.048 536.43 433.234 536.011 433.234 535.5C433.234 534.989 433.467 534.57 433.699 534.57C433.978 534.57 434.164 533.92 434.164 533.176C434.164 532.386 434.396 531.781 434.629 531.781C434.908 531.781 435.094 531.363 435.094 530.852C435.094 530.34 435.326 529.922 435.559 529.922C435.837 529.922 436.023 529.504 436.023 528.992C436.023 528.481 436.256 528.062 436.488 528.062C436.767 528.062 436.953 527.644 436.953 527.133C436.953 526.621 437.186 526.203 437.418 526.203C437.697 526.203 437.883 525.552 437.883 524.809C437.883 524.018 438.115 523.414 438.348 523.414C438.627 523.414 438.812 522.996 438.812 522.484C438.812 521.973 439.045 521.555 439.277 521.555C439.556 521.555 439.742 521.136 439.742 520.625C439.742 520.114 439.975 519.695 440.207 519.695C440.486 519.695 440.672 519.277 440.672 518.766C440.672 518.254 440.904 517.836 441.137 517.836C441.416 517.836 441.602 517.418 441.602 516.906C441.602 516.395 441.834 515.977 442.066 515.977C442.345 515.977 442.531 515.326 442.531 514.582C442.531 513.792 442.764 513.188 442.996 513.188C443.275 513.188 443.461 512.769 443.461 512.258C443.461 511.746 443.693 511.328 443.926 511.328C444.251 511.328 444.391 521.415 444.391 540.613V569.898H453.688H462.984V561.066C462.984 555.488 462.798 552.234 462.52 552.234C462.194 552.234 462.055 540.009 462.055 516.441V480.648H451.363C440.997 480.648 440.672 480.695 440.672 481.578C440.672 482.089 440.486 482.508 440.207 482.508C439.975 482.508 439.742 483.112 439.742 483.902C439.742 484.646 439.556 485.297 439.277 485.297C439.045 485.297 438.812 485.715 438.812 486.227C438.812 486.738 438.627 487.156 438.348 487.156C438.115 487.156 437.883 487.575 437.883 488.086C437.883 488.597 437.697 489.016 437.418 489.016C437.186 489.016 436.953 489.434 436.953 489.945C436.953 490.457 436.767 490.875 436.488 490.875C436.256 490.875 436.023 491.293 436.023 491.805C436.023 492.316 435.837 492.734 435.559 492.734C435.326 492.734 435.094 493.339 435.094 494.129C435.094 494.873 434.908 495.523 434.629 495.523C434.396 495.523 434.164 495.942 434.164 496.453C434.164 496.964 433.978 497.383 433.699 497.383C433.467 497.383 433.234 497.801 433.234 498.312C433.234 498.824 433.048 499.242 432.77 499.242C432.537 499.242 432.305 499.661 432.305 500.172C432.305 500.683 432.119 501.102 431.84 501.102C431.607 501.102 431.375 501.706 431.375 502.496C431.375 503.24 431.189 503.891 430.91 503.891C430.678 503.891 430.445 504.309 430.445 504.82C430.445 505.332 430.259 505.75 429.98 505.75C429.748 505.75 429.516 506.168 429.516 506.68C429.516 507.191 429.33 507.609 429.051 507.609C428.818 507.609 428.586 508.028 428.586 508.539C428.586 509.05 428.4 509.469 428.121 509.469C427.889 509.469 427.656 510.073 427.656 510.863C427.656 511.607 427.47 512.258 427.191 512.258C426.959 512.258 426.727 512.676 426.727 513.188C426.727 513.699 426.541 514.117 426.262 514.117C426.029 514.117 425.797 514.536 425.797 515.047C425.797 515.558 425.611 515.977 425.332 515.977C425.1 515.977 424.867 516.395 424.867 516.906C424.867 517.418 424.681 517.836 424.402 517.836C424.17 517.836 423.938 518.44 423.938 519.23C423.938 519.974 423.752 520.625 423.473 520.625C423.24 520.625 423.008 521.043 423.008 521.555C423.008 522.066 422.822 522.484 422.543 522.484C422.311 522.484 422.078 522.903 422.078 523.414C422.078 523.925 421.892 524.344 421.613 524.344C421.381 524.344 421.148 524.762 421.148 525.273C421.148 525.785 420.962 526.203 420.684 526.203C420.451 526.203 420.219 526.621 420.219 527.133C420.219 527.644 420.079 528.062 419.94 528.062C419.429 528.062 418.359 526.714 418.359 526.017C418.359 525.599 418.173 525.273 417.895 525.273C417.662 525.273 417.43 524.855 417.43 524.344C417.43 523.832 417.244 523.414 416.965 523.414C416.732 523.414 416.5 522.996 416.5 522.484C416.5 521.973 416.314 521.555 416.035 521.555C415.803 521.555 415.57 521.136 415.57 520.625C415.57 520.114 415.384 519.695 415.105 519.695C414.873 519.695 414.641 519.045 414.641 518.301C414.641 517.511 414.455 516.906 414.176 516.906C413.943 516.906 413.711 516.488 413.711 515.977C413.711 515.465 413.525 515.047 413.246 515.047C413.014 515.047 412.781 514.629 412.781 514.117C412.781 513.606 412.595 513.188 412.316 513.188C412.084 513.188 411.852 512.769 411.852 512.258C411.852 511.746 411.666 511.328 411.387 511.328C411.154 511.328 410.922 510.677 410.922 509.934C410.922 509.143 410.736 508.539 410.457 508.539C410.225 508.539 409.992 508.121 409.992 507.609C409.992 507.098 409.806 506.68 409.527 506.68C409.295 506.68 409.062 506.261 409.062 505.75C409.062 505.239 408.877 504.82 408.598 504.82C408.365 504.82 408.133 504.402 408.133 503.891C408.133 503.379 407.947 502.961 407.668 502.961C407.436 502.961 407.203 502.543 407.203 502.031C407.203 501.52 407.017 501.102 406.738 501.102C406.506 501.102 406.273 500.451 406.273 499.707C406.273 498.917 406.087 498.312 405.809 498.312C405.576 498.312 405.344 497.894 405.344 497.383C405.344 496.871 405.158 496.453 404.879 496.453C404.646 496.453 404.414 496.035 404.414 495.523C404.414 495.012 404.228 494.594 403.949 494.594C403.717 494.594 403.484 494.175 403.484 493.664C403.484 493.153 403.298 492.734 403.02 492.734C402.787 492.734 402.555 492.084 402.555 491.34C402.555 490.55 402.369 489.945 402.09 489.945C401.857 489.945 401.625 489.527 401.625 489.016C401.625 488.504 401.439 488.086 401.16 488.086C400.928 488.086 400.695 487.668 400.695 487.156C400.695 486.645 400.509 486.227 400.23 486.227C399.998 486.227 399.766 485.808 399.766 485.297C399.766 484.786 399.58 484.367 399.301 484.367C399.068 484.367 398.836 483.949 398.836 483.438C398.836 482.926 398.65 482.508 398.371 482.508C398.139 482.508 397.906 482.089 397.906 481.578C397.906 480.695 397.581 480.648 387.215 480.648H376.523V525.273Z" fill="#0F3F60"/>
<path d="M499.242 481.578C499.242 482.089 499.056 482.508 498.777 482.508C498.545 482.508 498.312 483.345 498.312 484.367C498.312 485.39 498.127 486.227 497.848 486.227C497.615 486.227 497.383 486.831 497.383 487.621C497.383 488.365 497.197 489.016 496.918 489.016C496.686 489.016 496.453 489.62 496.453 490.41C496.453 491.154 496.267 491.805 495.988 491.805C495.756 491.805 495.523 492.409 495.523 493.199C495.523 493.943 495.337 494.594 495.059 494.594C494.826 494.594 494.594 495.198 494.594 495.988C494.594 496.732 494.408 497.383 494.129 497.383C493.896 497.383 493.664 497.987 493.664 498.777C493.664 499.521 493.478 500.172 493.199 500.172C492.967 500.172 492.734 501.009 492.734 502.031C492.734 503.054 492.548 503.891 492.27 503.891C492.037 503.891 491.805 504.495 491.805 505.285C491.805 506.029 491.619 506.68 491.34 506.68C491.107 506.68 490.875 507.284 490.875 508.074C490.875 508.818 490.689 509.469 490.41 509.469C490.178 509.469 489.945 510.073 489.945 510.863C489.945 511.607 489.759 512.258 489.48 512.258C489.248 512.258 489.016 512.862 489.016 513.652C489.016 514.396 488.83 515.047 488.551 515.047C488.318 515.047 488.086 515.884 488.086 516.906C488.086 517.929 487.9 518.766 487.621 518.766C487.389 518.766 487.156 519.37 487.156 520.16C487.156 520.904 486.97 521.555 486.691 521.555C486.459 521.555 486.227 522.159 486.227 522.949C486.227 523.693 486.041 524.344 485.762 524.344C485.529 524.344 485.297 524.948 485.297 525.738C485.297 526.482 485.111 527.133 484.832 527.133C484.6 527.133 484.367 527.737 484.367 528.527C484.367 529.271 484.181 529.922 483.902 529.922C483.67 529.922 483.438 530.526 483.438 531.316C483.438 532.06 483.252 532.711 482.973 532.711C482.74 532.711 482.508 533.548 482.508 534.57C482.508 535.593 482.322 536.43 482.043 536.43C481.811 536.43 481.578 537.034 481.578 537.824C481.578 538.568 481.392 539.219 481.113 539.219C480.881 539.219 480.648 539.823 480.648 540.613C480.648 541.357 480.462 542.008 480.184 542.008C479.951 542.008 479.719 542.426 479.719 542.938C479.719 543.449 479.533 543.867 479.254 543.867C479.021 543.867 478.789 544.471 478.789 545.262C478.789 546.005 478.603 546.656 478.324 546.656C478.092 546.656 477.859 547.261 477.859 548.051C477.859 548.795 477.673 549.445 477.395 549.445C477.162 549.445 476.93 550.05 476.93 550.84C476.93 551.584 476.744 552.234 476.465 552.234C476.232 552.234 476 552.839 476 553.629C476 554.373 475.814 555.023 475.535 555.023C475.303 555.023 475.07 555.628 475.07 556.418C475.07 557.162 474.884 557.812 474.605 557.812C474.373 557.812 474.141 558.417 474.141 559.207C474.141 559.951 473.955 560.602 473.676 560.602C473.443 560.602 473.211 561.206 473.211 561.996C473.211 562.74 473.025 563.391 472.746 563.391C472.514 563.391 472.281 563.995 472.281 564.785C472.281 565.529 472.095 566.18 471.816 566.18C471.584 566.18 471.352 566.784 471.352 567.574C471.352 568.318 471.166 568.969 470.887 568.969C470.654 568.969 470.422 569.155 470.422 569.434C470.422 569.713 474.001 569.898 480.184 569.898C489.62 569.898 489.945 569.852 489.945 568.969C489.945 568.457 490.178 568.039 490.41 568.039C490.689 568.039 490.875 567.388 490.875 566.645C490.875 565.854 491.107 565.25 491.34 565.25C491.619 565.25 491.805 564.599 491.805 563.855C491.805 563.065 492.037 562.461 492.27 562.461C492.548 562.461 492.734 561.81 492.734 561.066C492.734 560.276 492.967 559.672 493.199 559.672C493.478 559.672 493.664 559.021 493.664 558.277C493.664 557.487 493.896 556.883 494.129 556.883C494.408 556.883 494.594 556.464 494.594 555.953C494.594 555.442 494.826 555.023 495.059 555.023C495.337 555.023 495.523 554.512 495.523 553.861C495.523 552.513 497.894 549.771 498.22 550.747C498.498 551.584 525.134 551.537 525.366 550.747C525.785 549.585 527.133 551.677 527.133 553.35C527.133 554.28 527.365 555.023 527.598 555.023C527.877 555.023 528.062 555.628 528.062 556.418C528.062 557.162 528.295 557.812 528.527 557.812C528.806 557.812 528.992 558.417 528.992 559.207C528.992 559.951 529.225 560.602 529.457 560.602C529.736 560.602 529.922 561.438 529.922 562.461C529.922 563.484 530.154 564.32 530.387 564.32C530.666 564.32 530.852 565.157 530.852 566.18C530.852 567.202 531.084 568.039 531.316 568.039C531.595 568.039 531.781 568.457 531.781 568.969C531.781 569.852 532.107 569.898 541.543 569.898C550.979 569.898 551.305 569.852 551.305 568.969C551.305 568.457 551.119 568.039 550.84 568.039C550.607 568.039 550.375 567.388 550.375 566.645C550.375 565.854 550.189 565.25 549.91 565.25C549.678 565.25 549.445 564.599 549.445 563.855C549.445 563.065 549.259 562.461 548.98 562.461C548.748 562.461 548.516 562.043 548.516 561.531C548.516 561.02 548.33 560.602 548.051 560.602C547.818 560.602 547.586 559.951 547.586 559.207C547.586 558.417 547.4 557.812 547.121 557.812C546.889 557.812 546.656 557.162 546.656 556.418C546.656 555.628 546.47 555.023 546.191 555.023C545.959 555.023 545.727 554.373 545.727 553.629C545.727 552.839 545.541 552.234 545.262 552.234C545.029 552.234 544.797 551.584 544.797 550.84C544.797 550.05 544.611 549.445 544.332 549.445C544.1 549.445 543.867 548.795 543.867 548.051C543.867 547.261 543.681 546.656 543.402 546.656C543.17 546.656 542.938 546.005 542.938 545.262C542.938 544.471 542.752 543.867 542.473 543.867C542.24 543.867 542.008 543.216 542.008 542.473C542.008 541.682 541.822 541.078 541.543 541.078C541.311 541.078 541.078 540.427 541.078 539.684C541.078 538.893 540.892 538.289 540.613 538.289C540.381 538.289 540.148 537.452 540.148 536.43C540.148 535.407 539.963 534.57 539.684 534.57C539.451 534.57 539.219 533.92 539.219 533.176C539.219 532.386 539.033 531.781 538.754 531.781C538.521 531.781 538.289 531.13 538.289 530.387C538.289 529.596 538.103 528.992 537.824 528.992C537.592 528.992 537.359 528.341 537.359 527.598C537.359 526.807 537.173 526.203 536.895 526.203C536.662 526.203 536.43 525.552 536.43 524.809C536.43 524.018 536.244 523.414 535.965 523.414C535.732 523.414 535.5 522.763 535.5 522.02C535.5 521.229 535.314 520.625 535.035 520.625C534.803 520.625 534.57 519.974 534.57 519.23C534.57 518.44 534.384 517.836 534.105 517.836C533.873 517.836 533.641 517.185 533.641 516.441C533.641 515.651 533.455 515.047 533.176 515.047C532.943 515.047 532.711 514.396 532.711 513.652C532.711 512.862 532.525 512.258 532.246 512.258C532.014 512.258 531.781 511.607 531.781 510.863C531.781 510.073 531.595 509.469 531.316 509.469C531.084 509.469 530.852 508.818 530.852 508.074C530.852 507.284 530.666 506.68 530.387 506.68C530.154 506.68 529.922 506.029 529.922 505.285C529.922 504.495 529.736 503.891 529.457 503.891C529.225 503.891 528.992 503.24 528.992 502.496C528.992 501.706 528.806 501.102 528.527 501.102C528.295 501.102 528.062 500.451 528.062 499.707C528.062 498.917 527.877 498.312 527.598 498.312C527.365 498.312 527.133 497.662 527.133 496.918C527.133 496.128 526.947 495.523 526.668 495.523C526.436 495.523 526.203 494.873 526.203 494.129C526.203 493.339 526.017 492.734 525.738 492.734C525.506 492.734 525.273 492.084 525.273 491.34C525.273 490.55 525.087 489.945 524.809 489.945C524.576 489.945 524.344 489.295 524.344 488.551C524.344 487.761 524.158 487.156 523.879 487.156C523.646 487.156 523.414 486.32 523.414 485.297C523.414 484.274 523.228 483.438 522.949 483.438C522.717 483.438 522.484 482.787 522.484 482.043V480.648H510.863C499.568 480.648 499.242 480.695 499.242 481.578ZM511.328 501.102C511.328 501.613 511.561 502.031 511.793 502.031C512.072 502.031 512.258 502.868 512.258 503.891C512.258 504.913 512.49 505.75 512.723 505.75C513.002 505.75 513.188 506.587 513.188 507.609C513.188 508.632 513.42 509.469 513.652 509.469C513.931 509.469 514.117 510.305 514.117 511.328C514.117 512.351 514.35 513.188 514.582 513.188C514.861 513.188 515.047 513.792 515.047 514.582C515.047 515.326 515.279 515.977 515.512 515.977C515.791 515.977 515.977 516.813 515.977 517.836C515.977 518.859 516.209 519.695 516.441 519.695C516.72 519.695 516.906 520.532 516.906 521.555C516.906 522.577 517.139 523.414 517.371 523.414C517.65 523.414 517.836 524.018 517.836 524.809C517.836 525.552 518.068 526.203 518.301 526.203C518.58 526.203 518.766 527.04 518.766 528.062C518.766 529.085 518.998 529.922 519.23 529.922C519.509 529.922 519.695 530.526 519.695 531.316C519.695 532.06 519.928 532.711 520.16 532.711C520.439 532.711 520.625 533.315 520.625 534.105V535.5H510.863H501.102V534.105C501.102 533.315 501.334 532.711 501.566 532.711C501.845 532.711 502.031 532.06 502.031 531.316C502.031 530.526 502.264 529.922 502.496 529.922C502.775 529.922 502.961 529.271 502.961 528.527C502.961 527.737 503.193 527.133 503.426 527.133C503.705 527.133 503.891 526.296 503.891 525.273C503.891 524.251 504.123 523.414 504.355 523.414C504.634 523.414 504.82 522.763 504.82 522.02C504.82 521.229 505.053 520.625 505.285 520.625C505.564 520.625 505.75 519.788 505.75 518.766C505.75 517.743 505.982 516.906 506.215 516.906C506.494 516.906 506.68 516.07 506.68 515.047C506.68 514.024 506.912 513.188 507.145 513.188C507.423 513.188 507.609 512.351 507.609 511.328C507.609 510.305 507.842 509.469 508.074 509.469C508.353 509.469 508.539 508.818 508.539 508.074C508.539 507.284 508.771 506.68 509.004 506.68C509.283 506.68 509.469 505.843 509.469 504.82C509.469 503.798 509.701 502.961 509.934 502.961C510.212 502.961 510.398 502.31 510.398 501.566C510.398 500.776 510.631 500.172 510.863 500.172C511.142 500.172 511.328 500.59 511.328 501.102Z" fill="#0F3F60"/>
<path d="M559.672 525.273V569.898H568.969H578.266V555.023V540.148H588.492C595 540.148 598.719 539.963 598.719 539.684C598.719 539.405 599.555 539.219 600.578 539.219C601.601 539.219 602.438 538.986 602.438 538.754C602.438 538.475 603.088 538.289 603.832 538.289C604.622 538.289 605.227 538.057 605.227 537.824C605.227 537.545 605.645 537.359 606.156 537.359C606.668 537.359 607.086 537.127 607.086 536.895C607.086 536.616 607.504 536.43 608.016 536.43C608.527 536.43 608.945 536.197 608.945 535.965C608.945 535.686 609.271 535.5 609.643 535.5C610.572 535.5 618.242 527.83 618.242 526.9C618.242 526.529 618.475 526.203 618.707 526.203C618.986 526.203 619.172 525.785 619.172 525.273C619.172 524.762 619.404 524.344 619.637 524.344C619.916 524.344 620.102 523.925 620.102 523.414C620.102 522.903 620.334 522.484 620.566 522.484C620.845 522.484 621.031 521.834 621.031 521.09C621.031 520.3 621.264 519.695 621.496 519.695C621.775 519.695 621.961 518.859 621.961 517.836C621.961 516.813 622.193 515.977 622.426 515.977C622.705 515.977 622.891 513.978 622.891 510.863C622.891 507.749 622.705 505.75 622.426 505.75C622.193 505.75 621.961 504.681 621.961 503.426C621.961 502.124 621.775 501.102 621.496 501.102C621.264 501.102 621.031 500.451 621.031 499.707C621.031 498.917 620.845 498.312 620.566 498.312C620.334 498.312 620.102 497.708 620.102 497.011C620.102 496.267 619.73 495.43 619.172 495.059C618.661 494.687 618.242 494.082 618.242 493.664C618.242 493.246 617.824 492.641 617.312 492.27C616.801 491.898 616.383 491.34 616.383 490.968C616.383 490.224 614.291 488.086 613.547 488.086C613.268 488.086 612.432 487.435 611.734 486.691C611.037 485.901 610.107 485.297 609.689 485.297C609.271 485.297 608.945 485.064 608.945 484.832C608.945 484.553 608.527 484.367 608.016 484.367C607.504 484.367 607.086 484.135 607.086 483.902C607.086 483.623 606.482 483.438 605.691 483.438C604.948 483.438 604.297 483.205 604.297 482.973C604.297 482.694 603.46 482.508 602.438 482.508C601.415 482.508 600.578 482.275 600.578 482.043C600.578 481.764 599.323 481.578 597.789 481.578C596.255 481.578 595 481.392 595 481.113C595 480.834 588.818 480.648 577.336 480.648H559.672V525.273ZM588.492 496.918C588.492 497.197 590.026 497.383 592.118 497.383C595.186 497.383 595.837 497.522 596.395 498.312C596.766 498.824 597.324 499.242 597.696 499.242C598.533 499.242 601.508 502.31 601.508 503.193C601.508 503.565 601.74 503.891 601.973 503.891C602.252 503.891 602.438 504.309 602.438 504.82C602.438 505.332 602.67 505.75 602.902 505.75C603.181 505.75 603.367 507.609 603.367 510.398C603.367 513.188 603.181 515.047 602.902 515.047C602.67 515.047 602.438 515.651 602.438 516.441C602.438 517.185 602.252 517.836 601.973 517.836C601.74 517.836 601.508 518.161 601.508 518.533C601.508 518.952 600.764 519.974 599.881 520.857C598.998 521.741 597.975 522.484 597.557 522.484C597.185 522.484 596.859 522.67 596.859 522.949C596.859 523.182 596.255 523.414 595.465 523.414C594.721 523.414 594.07 523.6 594.07 523.879C594.07 524.158 590.956 524.344 585.703 524.344H577.336V510.398V496.453H582.914C586.307 496.453 588.492 496.639 588.492 496.918Z" fill="#0F3F60"/>
</svg>
