<svg width="49" height="48" viewBox="0 0 49 48" fill="none" xmlns="http://www.w3.org/2000/svg">
<path d="M23.9487 0.0510216C23.9487 0.0766068 23.8822 0.102196 23.7952 0.102196C23.7133 0.102196 23.6417 0.122662 23.6417 0.153366C23.6417 0.178955 23.5956 0.20454 23.5393 0.20454C23.483 0.20454 23.437 0.22501 23.437 0.255711C23.437 0.2813 23.4012 0.306885 23.3602 0.306885C23.2579 0.306885 22.8229 0.741852 22.8229 0.844196C22.8229 0.885136 22.8024 0.920956 22.7717 0.920956C22.7462 0.920956 22.7206 0.96701 22.7206 1.0233C22.7206 1.07959 22.7001 1.12564 22.6694 1.12564C22.6438 1.12564 22.6182 1.1717 22.6182 1.22799C22.6182 1.28428 22.5978 1.33034 22.5671 1.33034C22.5363 1.33034 22.5159 1.47362 22.5159 1.66296C22.5159 1.95464 22.5005 2.01605 22.3879 2.12351C22.3214 2.19515 22.2293 2.25144 22.1833 2.25144C22.1423 2.25144 22.1065 2.27191 22.1065 2.30262C22.1065 2.3282 22.0656 2.35379 22.0144 2.35379C21.9632 2.35379 21.8916 2.39984 21.8506 2.45613C21.8097 2.51242 21.7432 2.55848 21.6971 2.55848C21.6511 2.55848 21.5845 2.60453 21.5436 2.66082C21.5027 2.71711 21.431 2.76317 21.3799 2.76317C21.3287 2.76317 21.2877 2.78364 21.2877 2.81434C21.2877 2.83993 21.2468 2.86551 21.1956 2.86551C21.1445 2.86551 21.0728 2.91157 21.0319 2.96786C20.9909 3.02415 20.9193 3.07021 20.8681 3.07021C20.817 3.07021 20.776 3.09067 20.776 3.12138C20.776 3.14696 20.7351 3.17255 20.6839 3.17255C20.6327 3.17255 20.5611 3.21861 20.5202 3.27489C20.4792 3.33118 20.4127 3.37724 20.3666 3.37724C20.3206 3.37724 20.2541 3.42329 20.2131 3.47958C20.1722 3.53587 20.1005 3.58193 20.0494 3.58193C19.9982 3.58193 19.9573 3.6024 19.9573 3.6331C19.9573 3.65869 19.9163 3.68428 19.8651 3.68428C19.814 3.68428 19.7423 3.73033 19.7014 3.78662C19.6605 3.84291 19.5939 3.88897 19.5479 3.88897C19.5018 3.88897 19.4353 3.93502 19.3944 3.99131C19.3534 4.0476 19.2818 4.09365 19.2306 4.09365C19.1794 4.09365 19.1385 4.11412 19.1385 4.14483C19.1385 4.17041 19.0976 4.196 19.0464 4.196C18.9952 4.196 18.9236 4.24205 18.8826 4.29835C18.8417 4.35464 18.7701 4.40069 18.7189 4.40069C18.6677 4.40069 18.6268 4.42116 18.6268 4.45186C18.6268 4.47745 18.5858 4.50304 18.5347 4.50304C18.4835 4.50304 18.4118 4.54909 18.3709 4.60538C18.33 4.66167 18.2634 4.70773 18.2174 4.70773C18.1713 4.70773 18.1048 4.75378 18.0639 4.81007C18.0229 4.86636 17.9513 4.91242 17.9001 4.91242C17.849 4.91242 17.808 4.93288 17.808 4.96359C17.808 4.98917 17.7671 5.01476 17.7159 5.01476C17.6647 5.01476 17.5931 5.06082 17.5522 5.11711C17.5112 5.1734 17.4447 5.21945 17.3986 5.21945C17.3526 5.21945 17.2861 5.26551 17.2451 5.3218C17.2042 5.37809 17.1377 5.42414 17.0916 5.42414C17.0455 5.42414 16.979 5.4702 16.9381 5.52649C16.8971 5.58278 16.8255 5.62883 16.7743 5.62883C16.7232 5.62883 16.6822 5.6493 16.6822 5.68C16.6822 5.70559 16.6413 5.73118 16.5901 5.73118C16.5389 5.73118 16.4673 5.77723 16.4264 5.83352C16.3854 5.88981 16.3138 5.93587 16.2626 5.93587C16.2114 5.93587 16.1705 5.95634 16.1705 5.98704C16.1705 6.01263 16.1296 6.03821 16.0784 6.03821C16.0272 6.03821 15.9556 6.08427 15.9146 6.14056C15.8737 6.19685 15.8072 6.2429 15.7611 6.2429C15.7151 6.2429 15.6485 6.28896 15.6076 6.34525C15.5667 6.40154 15.495 6.44759 15.4438 6.44759C15.3927 6.44759 15.3517 6.46806 15.3517 6.49877C15.3517 6.52435 15.3108 6.54994 15.2596 6.54994C15.2085 6.54994 15.1368 6.59599 15.0959 6.65228C15.0549 6.70857 14.9884 6.75463 14.9424 6.75463C14.8963 6.75463 14.8298 6.80069 14.7888 6.85698C14.7479 6.91327 14.6814 6.95932 14.6353 6.95932C14.5893 6.95932 14.5227 7.00537 14.4818 7.06166C14.4409 7.11795 14.3692 7.16401 14.3181 7.16401C14.2669 7.16401 14.2259 7.18448 14.2259 7.21518C14.2259 7.24077 14.185 7.26635 14.1338 7.26635C14.0827 7.26635 14.011 7.31241 13.9701 7.3687C13.9291 7.42499 13.8575 7.47105 13.8063 7.47105C13.7552 7.47105 13.7142 7.49152 13.7142 7.52222C13.7142 7.54781 13.6733 7.57339 13.6221 7.57339C13.5709 7.57339 13.4993 7.61945 13.4584 7.67574C13.4174 7.73203 13.3458 7.77808 13.2946 7.77808C13.2434 7.77808 13.2025 7.79855 13.2025 7.82925C13.2025 7.85484 13.1616 7.88042 13.1104 7.88042C13.0592 7.88042 12.9876 7.92648 12.9466 7.98277C12.9057 8.03906 12.8341 8.08512 12.7829 8.08512C12.7317 8.08512 12.6908 8.10559 12.6908 8.13629C12.6908 8.16188 12.6498 8.18746 12.5987 8.18746C12.5475 8.18746 12.4758 8.23352 12.4349 8.28981C12.394 8.3461 12.3274 8.39215 12.2814 8.39215C12.2353 8.39215 12.1688 8.43821 12.1279 8.4945C12.0869 8.55079 12.0204 8.59684 11.9744 8.59684C11.9283 8.59684 11.8618 8.6429 11.8208 8.69919C11.7799 8.75548 11.7083 8.80153 11.6571 8.80153C11.6059 8.80153 11.565 8.822 11.565 8.8527C11.565 8.87829 11.524 8.90388 11.4729 8.90388C11.4217 8.90388 11.3501 8.94993 11.3091 9.00622C11.2682 9.06251 11.2017 9.10857 11.1556 9.10857C11.1095 9.10857 11.043 9.15462 11.0021 9.21091C10.9611 9.2672 10.8895 9.31326 10.8383 9.31326C10.7872 9.31326 10.7462 9.33373 10.7462 9.36443C10.7462 9.39002 10.7053 9.4156 10.6541 9.4156C10.6029 9.4156 10.5313 9.46166 10.4904 9.51795C10.4494 9.57424 10.3829 9.62029 10.3368 9.62029C10.2908 9.62029 10.2243 9.66635 10.1833 9.72264C10.1424 9.77893 10.0707 9.82499 10.0196 9.82499C9.96839 9.82499 9.92746 9.84545 9.92746 9.87616C9.92746 9.90174 9.88652 9.92733 9.83535 9.92733C9.78417 9.92733 9.71253 9.97338 9.67159 10.0297C9.63066 10.086 9.56413 10.132 9.51808 10.132C9.47202 10.132 9.4055 10.1781 9.36456 10.2344C9.32362 10.2907 9.25198 10.3367 9.20081 10.3367C9.14964 10.3367 9.1087 10.3572 9.1087 10.3879C9.1087 10.4135 9.06776 10.4391 9.01659 10.4391C8.96541 10.4391 8.89377 10.4851 8.85283 10.5414C8.8119 10.5977 8.74026 10.6437 8.68908 10.6437C8.63791 10.6437 8.59697 10.6642 8.59697 10.6949C8.59697 10.7205 8.55603 10.7461 8.50486 10.7461C8.45369 10.7461 8.38205 10.7921 8.34111 10.8484C8.30017 10.9047 8.23365 10.9508 8.18759 10.9508C8.14154 10.9508 8.07501 10.9968 8.03408 11.0531C7.99314 11.1094 7.92661 11.1555 7.88056 11.1555C7.8345 11.1555 7.76798 11.2015 7.72704 11.2578C7.6861 11.3141 7.61446 11.3602 7.56329 11.3602C7.51212 11.3602 7.47118 11.3806 7.47118 11.4113C7.47118 11.4369 7.43024 11.4625 7.37907 11.4625C7.3279 11.4625 7.25625 11.5086 7.21532 11.5649C7.17438 11.6211 7.10785 11.6672 7.0618 11.6672C7.01574 11.6672 6.94922 11.7133 6.90828 11.7695C6.86734 11.8258 6.80082 11.8719 6.75476 11.8719C6.70871 11.8719 6.64218 11.9179 6.60125 11.9742C6.56031 12.0305 6.48867 12.0766 6.43749 12.0766C6.38632 12.0766 6.34538 12.097 6.34538 12.1278C6.34538 12.1533 6.30445 12.1789 6.25327 12.1789C6.2021 12.1789 6.13046 12.225 6.08952 12.2813C6.04858 12.3376 5.97694 12.3836 5.92577 12.3836C5.8746 12.3836 5.83366 12.4041 5.83366 12.4348C5.83366 12.4604 5.79272 12.486 5.74155 12.486C5.69038 12.486 5.61874 12.532 5.5778 12.5883C5.53686 12.6446 5.47034 12.6906 5.42428 12.6906C5.37822 12.6906 5.3117 12.7367 5.27076 12.793C5.22983 12.8493 5.15818 12.8953 5.10701 12.8953C5.05584 12.8953 5.0149 12.9158 5.0149 12.9465C5.0149 12.9721 4.97396 12.9977 4.92279 12.9977C4.87162 12.9977 4.79998 13.0437 4.75904 13.1C4.7181 13.1563 4.65158 13.2024 4.60552 13.2024C4.55947 13.2024 4.49294 13.2484 4.452 13.3047C4.41107 13.361 4.34454 13.4071 4.29849 13.4071C4.25243 13.4071 4.18591 13.4531 4.14497 13.5094C4.10403 13.5657 4.03239 13.6118 3.98122 13.6118C3.93004 13.6118 3.88911 13.6322 3.88911 13.6629C3.88911 13.6885 3.84817 13.7141 3.797 13.7141C3.74582 13.7141 3.67418 13.7602 3.63324 13.8164C3.59231 13.8727 3.52578 13.9188 3.47973 13.9188C3.43367 13.9188 3.36715 13.9648 3.32621 14.0211C3.28527 14.0774 3.21363 14.1235 3.16246 14.1235C3.11129 14.1235 3.07035 14.1439 3.07035 14.1747C3.07035 14.2002 3.02429 14.2258 2.968 14.2258C2.91171 14.2258 2.86566 14.2463 2.86566 14.277C2.86566 14.3026 2.82472 14.3282 2.77355 14.3282C2.72237 14.3282 2.65073 14.3742 2.6098 14.4305C2.56886 14.4868 2.49722 14.5329 2.44604 14.5329C2.39487 14.5329 2.35393 14.5533 2.35393 14.584C2.35393 14.6096 2.31811 14.6352 2.27717 14.6352C2.23112 14.6352 2.13901 14.6915 2.07248 14.7631L1.94455 14.886V21.5691V28.2471H1.79104C1.70916 28.2471 1.63752 28.2676 1.63752 28.2983C1.63752 28.3239 1.57099 28.3495 1.484 28.3495C1.40213 28.3495 1.33048 28.3699 1.33048 28.4006C1.33048 28.4262 1.28443 28.4518 1.22814 28.4518C1.17185 28.4518 1.12579 28.4723 1.12579 28.503C1.12579 28.5286 1.08997 28.5541 1.04904 28.5541C0.94669 28.5541 0.307035 29.1938 0.307035 29.2961C0.307035 29.3371 0.286566 29.3729 0.255862 29.3729C0.230276 29.3729 0.20469 29.419 0.20469 29.4753C0.20469 29.5315 0.184221 29.5776 0.153517 29.5776C0.127931 29.5776 0.102345 29.6441 0.102345 29.7311C0.102345 29.813 0.0818759 29.8846 0.0511725 29.8846C0.020469 29.8846 0 30.0893 0 30.3964C0 30.7034 0.020469 30.9081 0.0511725 30.9081C0.0818759 30.9081 0.102345 30.9746 0.102345 31.0616C0.102345 31.1435 0.127931 31.2151 0.153517 31.2151C0.184221 31.2151 0.20469 31.2612 0.20469 31.3175C0.20469 31.3738 0.230276 31.4198 0.255862 31.4198C0.286566 31.4198 0.307035 31.4607 0.307035 31.5119C0.307035 31.5631 0.35309 31.6347 0.40938 31.6757C0.465669 31.7166 0.511725 31.778 0.511725 31.819C0.511725 31.906 0.634538 32.0339 0.716414 32.0339C0.752235 32.0339 0.844346 32.1004 0.921104 32.1874C0.997863 32.2693 1.10021 32.3409 1.14626 32.3409C1.19232 32.3409 1.22814 32.3614 1.22814 32.3921C1.22814 32.4177 1.29978 32.4433 1.38166 32.4433C1.46865 32.4433 1.53517 32.4637 1.53517 32.4944C1.53517 32.52 1.60682 32.5456 1.68869 32.5456C1.77568 32.5456 1.84221 32.5661 1.84221 32.5968C1.84221 32.6275 1.99573 32.648 2.20042 32.648C2.40511 32.648 2.55862 32.6275 2.55862 32.5968C2.55862 32.5661 2.63026 32.5456 2.71214 32.5456C2.79913 32.5456 2.86566 32.52 2.86566 32.4944C2.86566 32.4637 2.9373 32.4433 3.01917 32.4433C3.10617 32.4433 3.17269 32.4177 3.17269 32.3921C3.17269 32.3614 3.20851 32.3409 3.25457 32.3409C3.30062 32.3409 3.40297 32.2693 3.47973 32.1874C3.61789 32.039 3.78676 31.9827 3.78676 32.0851C3.78676 32.1106 3.82258 32.1362 3.86864 32.1362C3.90958 32.1362 4.05798 32.2488 4.19614 32.3921C4.33431 32.5303 4.47247 32.648 4.50318 32.648C4.53388 32.648 4.69763 32.7861 4.86138 32.955C5.02514 33.1239 5.18889 33.262 5.21959 33.262C5.25029 33.262 5.41405 33.4002 5.5778 33.5691C5.74155 33.7379 5.9053 33.8761 5.936 33.8761C5.96671 33.8761 6.13046 34.0143 6.29421 34.1831C6.45796 34.352 6.62172 34.4902 6.65242 34.4902C6.68312 34.4902 6.84687 34.6283 7.01063 34.7972C7.17438 34.9661 7.33813 35.1042 7.36883 35.1042C7.39954 35.1042 7.58376 35.2629 7.77821 35.4624C7.97267 35.6569 8.15689 35.8207 8.18759 35.8207C8.2183 35.8207 8.38205 35.9588 8.5458 36.1277C8.70955 36.2966 8.8733 36.4347 8.90401 36.4347C8.93471 36.4347 9.09846 36.5729 9.26221 36.7418C9.42597 36.9106 9.58972 37.0488 9.62042 37.0488C9.65112 37.0488 9.81488 37.187 9.97863 37.3558C10.1424 37.5247 10.3061 37.6629 10.3368 37.6629C10.3675 37.6629 10.5518 37.8266 10.7462 38.0211C10.9407 38.2155 11.1249 38.3793 11.1556 38.3793C11.1863 38.3793 11.3705 38.5379 11.565 38.7375C11.7594 38.9319 11.9437 39.0957 11.9744 39.0957C12.0051 39.0957 12.1688 39.2339 12.3326 39.4027C12.4963 39.5716 12.6601 39.7098 12.6908 39.7098C12.7778 39.7098 13.2281 40.1857 13.1616 40.2113C13.1257 40.2215 13.1001 40.2727 13.1001 40.329C13.1001 40.3801 13.0797 40.4262 13.049 40.4262C13.0234 40.4262 12.9978 40.4722 12.9978 40.5285C12.9978 40.5848 12.9773 40.6309 12.9466 40.6309C12.9159 40.6309 12.8955 40.8714 12.8955 41.2449C12.8955 41.6185 12.9159 41.859 12.9466 41.859C12.9773 41.859 12.9978 41.9051 12.9978 41.9614C12.9978 42.0177 13.0234 42.0637 13.049 42.0637C13.0797 42.0637 13.1001 42.0995 13.1001 42.1405C13.1001 42.2428 13.6375 42.7801 13.7398 42.7801C13.7807 42.7801 13.8166 42.8006 13.8166 42.8313C13.8166 42.8569 13.8626 42.8825 13.9189 42.8825C13.9752 42.8825 14.0213 42.9029 14.0213 42.9336C14.0213 42.9592 14.1389 42.9848 14.2771 42.9848C14.4204 42.9848 14.533 43.0053 14.533 43.036C14.533 43.0616 14.6046 43.0872 14.6865 43.0872C14.7735 43.0872 14.84 43.0616 14.84 43.036C14.84 43.0053 14.9321 42.9848 15.0447 42.9848C15.1573 42.9848 15.2494 42.9592 15.2494 42.9336C15.2494 42.9029 15.3159 42.8825 15.3927 42.8825C15.4746 42.8825 15.5667 42.8415 15.6076 42.7801C15.6485 42.7238 15.7099 42.6778 15.7509 42.6778C15.8379 42.6778 16.1705 42.3452 16.1705 42.2582C16.1705 42.2172 16.2166 42.1558 16.2728 42.1149C16.3342 42.0739 16.3752 41.9818 16.3752 41.9C16.3752 41.8232 16.4008 41.7567 16.4264 41.7567C16.4571 41.7567 16.4775 41.552 16.4775 41.2449C16.4775 40.9379 16.4571 40.7332 16.4264 40.7332C16.4008 40.7332 16.3752 40.6616 16.3752 40.5797C16.3752 40.4927 16.3547 40.4262 16.324 40.4262C16.2984 40.4262 16.2728 40.3904 16.2728 40.3494C16.2728 40.2471 15.6332 39.6074 15.5308 39.6074C15.4899 39.6074 15.4541 39.5818 15.4541 39.5563C15.4541 39.5255 15.3876 39.5051 15.3006 39.5051C15.2187 39.5051 15.147 39.4795 15.147 39.4539C15.147 39.3771 14.2413 39.3874 14.2157 39.4641C14.2004 39.5051 14.0827 39.4181 13.9291 39.2594C13.7859 39.1162 13.6426 38.9934 13.6119 38.9934C13.5812 38.9934 13.4174 38.8552 13.2537 38.6863C13.0899 38.5174 12.9262 38.3793 12.8955 38.3793C12.8648 38.3793 12.7266 38.2616 12.5884 38.1234C12.4503 37.9801 12.3121 37.8676 12.2814 37.8676C12.2507 37.8676 12.1125 37.7499 11.9744 37.6117C11.8362 37.4684 11.698 37.3558 11.6673 37.3558C11.6366 37.3558 11.4985 37.2381 11.3603 37.1C11.2221 36.9567 11.084 36.8441 11.0533 36.8441C11.0225 36.8441 10.8844 36.7315 10.7462 36.5882C10.6081 36.445 10.4699 36.3324 10.4392 36.3324C10.4085 36.3324 10.2908 36.2403 10.1833 36.1277C10.0759 36.0151 9.95816 35.923 9.92746 35.923C9.89675 35.923 9.75859 35.8053 9.62042 35.6671C9.48226 35.5239 9.34409 35.4113 9.31339 35.4113C9.25198 35.4113 9.1087 35.2885 9.1087 35.2373C9.1087 35.2219 16.2268 35.2066 24.921 35.2066H40.7333V34.2343C40.7333 33.697 40.7435 33.262 40.7589 33.262C40.8152 33.262 41.0403 33.5128 41.0403 33.5742C41.0403 33.6049 41.1119 33.697 41.1938 33.7737C41.2808 33.8505 41.3473 33.9426 41.3473 33.9784C41.3473 34.0143 41.419 34.1064 41.5009 34.1831C41.5879 34.2599 41.6544 34.352 41.6544 34.3878C41.6544 34.4236 41.726 34.5158 41.8079 34.5925C41.8949 34.6693 41.9614 34.7614 41.9614 34.7972C41.9614 34.833 42.0331 34.9251 42.1149 35.0019C42.2019 35.0787 42.2684 35.1759 42.2684 35.2168C42.2684 35.2526 42.3145 35.3192 42.3708 35.3601C42.4271 35.401 42.4731 35.4676 42.4731 35.5034C42.4731 35.5443 42.5448 35.6415 42.6267 35.7183C42.7136 35.7951 42.7802 35.8872 42.7802 35.923C42.7802 35.9588 42.8518 36.0509 42.9337 36.1277C43.0207 36.2044 43.0872 36.3068 43.0872 36.3528C43.0872 36.3989 43.0974 36.4347 43.1128 36.4347C43.1742 36.4347 43.8036 35.7644 43.8036 35.703C43.8036 35.6671 43.7576 35.6057 43.7013 35.5648C43.645 35.5239 43.5989 35.4573 43.5989 35.4113C43.5989 35.3652 43.5529 35.2987 43.4966 35.2578C43.4403 35.2168 43.3942 35.1503 43.3942 35.1042C43.3942 35.0582 43.3482 34.9917 43.2919 34.9507C43.2356 34.9098 43.1896 34.8433 43.1896 34.8074C43.1896 34.7665 43.123 34.6693 43.036 34.5925C42.9542 34.5158 42.8825 34.4236 42.8825 34.3878C42.8825 34.352 42.816 34.2599 42.729 34.1831C42.6471 34.1064 42.5755 34.0143 42.5755 33.9784C42.5755 33.9426 42.509 33.8505 42.422 33.7737C42.3401 33.697 42.2684 33.5998 42.2684 33.5588C42.2684 33.523 42.2224 33.4565 42.1661 33.4155C42.1098 33.3746 42.0638 33.3081 42.0638 33.2723C42.0638 33.2313 41.9972 33.1341 41.9102 33.0573C41.8284 32.9806 41.7567 32.8885 41.7567 32.8526C41.7567 32.8168 41.6902 32.7247 41.6032 32.648C41.5213 32.5712 41.4497 32.474 41.4497 32.433C41.4497 32.3972 41.4036 32.3307 41.3473 32.2897C41.2911 32.2488 41.245 32.1823 41.245 32.1465C41.245 32.1055 41.1785 32.0083 41.0915 31.9315C41.0096 31.8548 40.938 31.7576 40.938 31.7166C40.938 31.6808 40.8919 31.6143 40.8356 31.5733C40.7793 31.5324 40.7333 31.4659 40.7333 31.43C40.7333 31.3891 40.6667 31.2919 40.5798 31.2151C40.4979 31.1384 40.4262 31.0463 40.4262 31.0104C40.4262 30.9746 40.3597 30.8825 40.2727 30.8057C40.1908 30.729 40.1192 30.6318 40.1192 30.5908C40.1192 30.555 40.0732 30.4885 40.0169 30.4475C39.9606 30.4066 39.9145 30.335 39.9145 30.2838C39.9145 30.2326 39.894 30.1917 39.8633 30.1917C39.8326 30.1917 39.8122 29.8693 39.8122 29.3217C39.8122 28.7742 39.8326 28.4518 39.8633 28.4518C39.894 28.4518 39.9145 28.4109 39.9145 28.3597C39.9145 28.3085 39.9606 28.2369 40.0169 28.1959C40.0732 28.155 40.1192 28.0834 40.1192 28.0322C40.1192 27.981 40.1448 27.9401 40.1704 27.9401C40.2011 27.9401 40.2215 27.8991 40.2215 27.848C40.2215 27.7968 40.2676 27.7252 40.3239 27.6842C40.3802 27.6433 40.4262 27.5716 40.4262 27.5205C40.4262 27.4693 40.4518 27.4284 40.4774 27.4284C40.5081 27.4284 40.5286 27.3874 40.5286 27.3362C40.5286 27.2851 40.5746 27.2134 40.6309 27.1725C40.6872 27.1315 40.7333 27.0599 40.7333 27.0087C40.7333 26.9576 40.7589 26.9166 40.7844 26.9166C40.8152 26.9166 40.8356 26.8706 40.8356 26.8143C40.8356 26.758 40.8612 26.7119 40.8868 26.7119C40.9175 26.7119 40.938 26.671 40.938 26.6198C40.938 26.5687 40.984 26.497 41.0403 26.4561C41.0966 26.4151 41.1427 26.3435 41.1427 26.2923C41.1427 26.2411 41.1682 26.2002 41.1938 26.2002C41.2245 26.2002 41.245 26.1593 41.245 26.1081C41.245 26.0569 41.2911 25.9853 41.3473 25.9443C41.4036 25.9034 41.4497 25.8318 41.4497 25.7806C41.4497 25.7294 41.4753 25.6885 41.5009 25.6885C41.5316 25.6885 41.552 25.6475 41.552 25.5964C41.552 25.5452 41.5981 25.4736 41.6544 25.4326C41.7107 25.3917 41.7567 25.32 41.7567 25.2689C41.7567 25.2177 41.7823 25.1768 41.8079 25.1768C41.8386 25.1768 41.8591 25.1307 41.8591 25.0744C41.8591 25.0181 41.8847 24.9721 41.9102 24.9721C41.9409 24.9721 41.9614 24.9311 41.9614 24.88C41.9614 24.8288 42.0075 24.7571 42.0638 24.7162C42.12 24.6753 42.1661 24.6036 42.1661 24.5525C42.1661 24.5013 42.1917 24.4603 42.2173 24.4603C42.248 24.4603 42.2684 24.4194 42.2684 24.3682C42.2684 24.3171 42.3145 24.2454 42.3708 24.2045C42.4271 24.1635 42.4731 24.0919 42.4731 24.0407C42.4731 23.9896 42.4987 23.9486 42.5243 23.9486C42.555 23.9486 42.5755 23.9077 42.5755 23.8565C42.5755 23.8053 42.6215 23.7337 42.6778 23.6928C42.7341 23.6518 42.7802 23.5802 42.7802 23.529C42.7802 23.4778 42.8058 23.4369 42.8313 23.4369C42.862 23.4369 42.8825 23.3908 42.8825 23.3345C42.8825 23.2783 42.9081 23.2322 42.9337 23.2322C42.9644 23.2322 42.9849 23.1913 42.9849 23.1401C42.9849 23.0889 43.0309 23.0173 43.0872 22.9763C43.1435 22.9354 43.1896 22.8638 43.1896 22.8126C43.1896 22.7614 43.2151 22.7205 43.2407 22.7205C43.2714 22.7205 43.2919 22.6795 43.2919 22.6284C43.2919 22.5772 43.338 22.5055 43.3942 22.4646C43.4505 22.4237 43.4966 22.352 43.4966 22.3009C43.4966 22.2497 43.5222 22.2087 43.5478 22.2087C43.5785 22.2087 43.5989 22.1678 43.5989 22.1166C43.5989 22.0655 43.645 21.9938 43.7013 21.9529C43.7576 21.9119 43.8036 21.8403 43.8036 21.7891C43.8036 21.738 43.8292 21.697 43.8548 21.697C43.8855 21.697 43.906 21.6561 43.906 21.6049C43.906 21.5537 43.952 21.4821 44.0083 21.4412C44.0646 21.4002 44.1107 21.3286 44.1107 21.2774C44.1107 21.2262 44.1362 21.1853 44.1618 21.1853C44.1925 21.1853 44.213 21.1444 44.213 21.0932C44.213 21.042 44.2591 20.9704 44.3153 20.9294C44.3716 20.8885 44.4177 20.8169 44.4177 20.7657C44.4177 20.7145 44.4433 20.6736 44.4689 20.6736C44.4996 20.6736 44.52 20.6275 44.52 20.5712C44.52 20.5149 44.5456 20.4689 44.5712 20.4689C44.6019 20.4689 44.6224 20.4279 44.6224 20.3768C44.6224 20.3256 44.6684 20.254 44.7247 20.213C44.781 20.1721 44.8271 20.1004 44.8271 20.0493C44.8271 19.9981 44.8527 19.9572 44.8782 19.9572C44.9089 19.9572 44.9294 19.9162 44.9294 19.865C44.9294 19.8139 44.9755 19.7422 45.0318 19.7013C45.0881 19.6604 45.1341 19.5887 45.1341 19.5375C45.1341 19.4864 45.1597 19.4454 45.1853 19.4454C45.216 19.4454 45.2365 19.4045 45.2365 19.3533C45.2365 19.3021 45.2825 19.2305 45.3388 19.1896C45.3951 19.1486 45.4411 19.077 45.4411 19.0258C45.4411 18.9746 45.4667 18.9337 45.4923 18.9337C45.523 18.9337 45.5435 18.8928 45.5435 18.8416C45.5435 18.7904 45.5895 18.7188 45.6458 18.6778C45.7021 18.6369 45.7482 18.5653 45.7482 18.5141C45.7482 18.4629 45.7738 18.422 45.7993 18.422C45.8301 18.422 45.8505 18.381 45.8505 18.3299C45.8505 18.2787 45.8966 18.2071 45.9529 18.1661C46.0092 18.1252 46.0552 18.0535 46.0552 18.0024C46.0552 17.9512 46.0808 17.9103 46.1064 17.9103C46.1371 17.9103 46.1576 17.8693 46.1576 17.8181C46.1576 17.767 46.2036 17.6953 46.2599 17.6544C46.3162 17.6134 46.3622 17.5418 46.3622 17.4906C46.3622 17.419 46.4032 17.3985 46.5669 17.3985C46.6795 17.3985 46.7716 17.3729 46.7716 17.3474C46.7716 17.3166 46.8637 17.2962 46.9763 17.2962C47.0889 17.2962 47.181 17.2706 47.181 17.245C47.181 17.2143 47.2271 17.1938 47.2833 17.1938C47.3396 17.1938 47.3857 17.1682 47.3857 17.1427C47.3857 17.112 47.4317 17.0915 47.488 17.0915C47.5443 17.0915 47.5904 17.0659 47.5904 17.0403C47.5904 17.0096 47.6262 16.9891 47.6671 16.9891C47.7644 16.9891 48.1021 16.6616 48.1021 16.5695C48.1021 16.5286 48.1482 16.4672 48.2045 16.4262C48.2607 16.3853 48.3068 16.3137 48.3068 16.2625C48.3068 16.2113 48.3324 16.1704 48.358 16.1704C48.3887 16.1704 48.4091 16.0987 48.4091 16.0169C48.4091 15.9299 48.4347 15.8633 48.4603 15.8633C48.491 15.8633 48.5115 15.6587 48.5115 15.3516C48.5115 15.0446 48.491 14.8399 48.4603 14.8399C48.4347 14.8399 48.4091 14.7683 48.4091 14.6864C48.4091 14.5994 48.3887 14.5329 48.358 14.5329C48.3324 14.5329 48.3068 14.497 48.3068 14.4561C48.3068 14.41 48.1584 14.2258 47.9742 14.0467C47.7951 13.8625 47.6109 13.7141 47.5648 13.7141C47.5239 13.7141 47.488 13.6885 47.488 13.6629C47.488 13.6322 47.442 13.6118 47.3857 13.6118C47.3294 13.6118 47.2833 13.5862 47.2833 13.5606C47.2833 13.5299 47.1912 13.5094 47.0787 13.5094C46.9661 13.5094 46.874 13.4838 46.874 13.4582C46.874 13.4275 46.7205 13.4071 46.5158 13.4071C46.3111 13.4071 46.1576 13.4275 46.1576 13.4582C46.1576 13.4838 46.091 13.5094 46.004 13.5094C45.9222 13.5094 45.8505 13.5299 45.8505 13.5606C45.8505 13.5862 45.8096 13.6118 45.7584 13.6118C45.7072 13.6118 45.6356 13.6578 45.5947 13.7141C45.5537 13.7704 45.4923 13.8164 45.4565 13.8164C45.3593 13.8164 44.9294 14.2565 44.9294 14.3538C44.9294 14.3947 44.9089 14.4305 44.8782 14.4305C44.8527 14.4305 44.8271 14.4766 44.8271 14.5329C44.8271 14.5892 44.8066 14.6352 44.7759 14.6352C44.7503 14.6352 44.7247 14.7017 44.7247 14.7887C44.7247 14.8706 44.7043 14.9422 44.6736 14.9422C44.6428 14.9422 44.6224 15.1316 44.6224 15.4028C44.6224 15.674 44.6428 15.8633 44.6736 15.8633C44.7043 15.8633 44.7247 15.9299 44.7247 16.0169C44.7247 16.0987 44.7503 16.1704 44.7759 16.1704C44.8066 16.1704 44.8271 16.2113 44.8271 16.2625C44.8271 16.3137 44.8731 16.3853 44.9294 16.4262C44.9857 16.4672 45.0318 16.5337 45.0318 16.5695C45.0318 16.6054 45.1239 16.7282 45.2365 16.8356C45.4667 17.0557 45.4872 17.1375 45.3388 17.245C45.2825 17.2859 45.2365 17.3576 45.2365 17.4088C45.2365 17.4599 45.216 17.5009 45.1853 17.5009C45.1597 17.5009 45.1341 17.5418 45.1341 17.593C45.1341 17.6442 45.0881 17.7158 45.0318 17.7567C44.9755 17.7977 44.9294 17.8693 44.9294 17.9205C44.9294 17.9717 44.9089 18.0126 44.8782 18.0126C44.8527 18.0126 44.8271 18.0535 44.8271 18.1047C44.8271 18.1559 44.781 18.2275 44.7247 18.2685C44.6684 18.3094 44.6224 18.381 44.6224 18.4322C44.6224 18.4834 44.6019 18.5243 44.5712 18.5243C44.5456 18.5243 44.52 18.5704 44.52 18.6267C44.52 18.683 44.4996 18.729 44.4689 18.729C44.4433 18.729 44.4177 18.77 44.4177 18.8211C44.4177 18.8723 44.3716 18.9439 44.3153 18.9849C44.2591 19.0258 44.213 19.0975 44.213 19.1486C44.213 19.1998 44.1925 19.2407 44.1618 19.2407C44.1362 19.2407 44.1107 19.2817 44.1107 19.3328C44.1107 19.384 44.0646 19.4557 44.0083 19.4966C43.952 19.5375 43.906 19.6092 43.906 19.6604C43.906 19.7115 43.8855 19.7525 43.8548 19.7525C43.8292 19.7525 43.8036 19.7934 43.8036 19.8446C43.8036 19.8957 43.7576 19.9674 43.7013 20.0083C43.645 20.0493 43.5989 20.1209 43.5989 20.1721C43.5989 20.2233 43.5785 20.2642 43.5478 20.2642C43.5222 20.2642 43.4966 20.3051 43.4966 20.3563C43.4966 20.4075 43.4505 20.4791 43.3942 20.5201C43.338 20.561 43.2919 20.6326 43.2919 20.6838C43.2919 20.735 43.2714 20.7759 43.2407 20.7759C43.2151 20.7759 43.1896 20.8169 43.1896 20.868C43.1896 20.9192 43.1435 20.9908 43.0872 21.0318C43.0309 21.0727 42.9849 21.1444 42.9849 21.1955C42.9849 21.2467 42.9644 21.2876 42.9337 21.2876C42.9081 21.2876 42.8825 21.3286 42.8825 21.3798C42.8825 21.4309 42.8365 21.5026 42.7802 21.5435C42.7239 21.5844 42.6778 21.6561 42.6778 21.7073C42.6778 21.7584 42.6574 21.7994 42.6267 21.7994C42.6011 21.7994 42.5755 21.8454 42.5755 21.9017C42.5755 21.958 42.555 22.0041 42.5243 22.0041C42.4987 22.0041 42.4731 22.045 42.4731 22.0962C42.4731 22.1473 42.4271 22.219 42.3708 22.2599C42.3145 22.3009 42.2684 22.3674 42.2684 22.4134C42.2684 22.4595 42.2224 22.526 42.1661 22.567C42.1098 22.6079 42.0638 22.6795 42.0638 22.7307C42.0638 22.7819 42.0433 22.8228 42.0126 22.8228C41.987 22.8228 41.9614 22.8689 41.9614 22.9252C41.9614 22.9815 41.9409 23.0275 41.9102 23.0275C41.8847 23.0275 41.8591 23.0684 41.8591 23.1196C41.8591 23.1708 41.813 23.2424 41.7567 23.2834C41.7004 23.3243 41.6544 23.396 41.6544 23.4471C41.6544 23.4983 41.6339 23.5392 41.6032 23.5392C41.5776 23.5392 41.552 23.5802 41.552 23.6313C41.552 23.6825 41.506 23.7542 41.4497 23.7951C41.3934 23.836 41.3473 23.9077 41.3473 23.9588C41.3473 24.01 41.3269 24.051 41.2962 24.051C41.2706 24.051 41.245 24.0919 41.245 24.1431C41.245 24.1942 41.1989 24.2659 41.1427 24.3068C41.0864 24.3478 41.0403 24.4194 41.0403 24.4706C41.0403 24.5217 41.0198 24.5627 40.9891 24.5627C40.9636 24.5627 40.938 24.5985 40.938 24.6446C40.938 24.7213 40.8203 24.8697 40.764 24.8697C40.7486 24.8697 40.7333 23.048 40.7333 20.8271V16.7845H35.9231H31.1129V15.0446V13.3047H24.3581H17.6033V15.0446V16.7845H12.6396H7.67587V25.3303C7.67587 30.0279 7.6554 33.8761 7.63493 33.8761C7.61446 33.8761 7.56329 33.83 7.52235 33.7737C7.48141 33.7175 7.42001 33.6714 7.37907 33.6714C7.34325 33.6714 7.19996 33.5537 7.0618 33.4155C6.92363 33.2723 6.78547 33.1597 6.75476 33.1597C6.72406 33.1597 6.56031 33.0215 6.39656 32.8526C6.2328 32.6838 6.06905 32.5456 6.03835 32.5456C6.00765 32.5456 5.86948 32.4279 5.73132 32.2897C5.59315 32.1465 5.45498 32.0339 5.42428 32.0339C5.39358 32.0339 5.25541 31.9162 5.11725 31.778C4.97908 31.6347 4.84091 31.5222 4.81021 31.5222C4.77951 31.5222 4.67716 31.4403 4.57993 31.3431C4.42642 31.1947 4.40083 31.1332 4.40083 30.9337C4.40083 30.8057 4.42642 30.7034 4.452 30.7034C4.48271 30.7034 4.50318 30.5652 4.50318 30.3964C4.50318 30.2275 4.48271 30.0893 4.452 30.0893C4.42642 30.0893 4.40083 29.9972 4.40083 29.8846C4.40083 29.7721 4.38036 29.6799 4.34966 29.6799C4.32407 29.6799 4.29849 29.6339 4.29849 29.5776C4.29849 29.5213 4.27802 29.4753 4.24731 29.4753C4.22173 29.4753 4.19614 29.4292 4.19614 29.3729C4.19614 29.3166 4.17567 29.2706 4.14497 29.2706C4.11938 29.2706 4.0938 29.2347 4.0938 29.1938C4.0938 29.0915 3.65883 28.6565 3.55649 28.6565C3.51555 28.6565 3.47973 28.6309 3.47973 28.6053C3.47973 28.5746 3.43367 28.5541 3.37738 28.5541C3.32109 28.5541 3.27504 28.5286 3.27504 28.503C3.27504 28.4723 3.23922 28.4518 3.19316 28.4518C2.95777 28.4518 2.968 28.7128 2.968 21.8812C2.968 15.4898 2.968 15.454 3.07035 15.454C3.12664 15.454 3.17269 15.4284 3.17269 15.4028C3.17269 15.3721 3.21363 15.3516 3.2648 15.3516C3.31598 15.3516 3.38762 15.3056 3.42855 15.2493C3.46949 15.193 3.53602 15.1469 3.58207 15.1469C3.62813 15.1469 3.69465 15.1009 3.73559 15.0446C3.77653 14.9883 3.84305 14.9422 3.88911 14.9422C3.93516 14.9422 4.00169 14.8962 4.04262 14.8399C4.08356 14.7836 4.15009 14.7376 4.19614 14.7376C4.2422 14.7376 4.30872 14.6915 4.34966 14.6352C4.3906 14.5789 4.46224 14.5329 4.51341 14.5329C4.56458 14.5329 4.60552 14.5073 4.60552 14.4817C4.60552 14.451 4.64646 14.4305 4.69763 14.4305C4.7488 14.4305 4.82045 14.3845 4.86138 14.3282C4.90232 14.2719 4.96885 14.2258 5.0149 14.2258C5.06096 14.2258 5.12748 14.1798 5.16842 14.1235C5.20936 14.0672 5.27588 14.0211 5.32194 14.0211C5.36799 14.0211 5.43451 13.9751 5.47545 13.9188C5.51639 13.8625 5.58803 13.8164 5.6392 13.8164C5.69038 13.8164 5.73132 13.7909 5.73132 13.7653C5.73132 13.7346 5.77225 13.7141 5.82343 13.7141C5.8746 13.7141 5.94624 13.668 5.98718 13.6118C6.02812 13.5555 6.09464 13.5094 6.14069 13.5094C6.18675 13.5094 6.25327 13.4634 6.29421 13.4071C6.33515 13.3508 6.40679 13.3047 6.45796 13.3047C6.50914 13.3047 6.55007 13.2791 6.55007 13.2535C6.55007 13.2228 6.59101 13.2024 6.64218 13.2024C6.69336 13.2024 6.765 13.1563 6.80594 13.1C6.84687 13.0437 6.91852 12.9977 6.96969 12.9977C7.02086 12.9977 7.0618 12.9721 7.0618 12.9465C7.0618 12.9158 7.10274 12.8953 7.15391 12.8953C7.20508 12.8953 7.27672 12.8493 7.31766 12.793C7.3586 12.7367 7.43024 12.6906 7.48141 12.6906C7.53259 12.6906 7.57352 12.6651 7.57352 12.6395C7.57352 12.6088 7.61446 12.5883 7.66563 12.5883C7.71681 12.5883 7.78845 12.5422 7.82939 12.486C7.87032 12.4297 7.93685 12.3836 7.9829 12.3836C8.02896 12.3836 8.09548 12.3376 8.13642 12.2813C8.17736 12.225 8.24388 12.1789 8.28994 12.1789C8.33599 12.1789 8.40252 12.1329 8.44345 12.0766C8.48439 12.0203 8.55092 11.9742 8.59697 11.9742C8.64303 11.9742 8.70955 11.9282 8.75049 11.8719C8.79143 11.8156 8.86307 11.7695 8.91424 11.7695C8.96541 11.7695 9.00635 11.744 9.00635 11.7184C9.00635 11.6877 9.04729 11.6672 9.09846 11.6672C9.14964 11.6672 9.22128 11.6211 9.26221 11.5649C9.30315 11.5086 9.37479 11.4625 9.42597 11.4625C9.47714 11.4625 9.51808 11.4369 9.51808 11.4113C9.51808 11.3806 9.55901 11.3602 9.61019 11.3602C9.66136 11.3602 9.733 11.3141 9.77394 11.2578C9.81488 11.2015 9.8814 11.1555 9.92746 11.1555C9.97351 11.1555 10.04 11.1094 10.081 11.0531C10.1219 10.9968 10.1884 10.9508 10.2345 10.9508C10.2805 10.9508 10.3471 10.9047 10.388 10.8484C10.4289 10.7921 10.5006 10.7461 10.5518 10.7461C10.6029 10.7461 10.6439 10.7205 10.6439 10.6949C10.6439 10.6642 10.6848 10.6437 10.736 10.6437C10.7872 10.6437 10.8588 10.5977 10.8997 10.5414C10.9407 10.4851 11.0072 10.4391 11.0533 10.4391C11.0993 10.4391 11.1658 10.393 11.2068 10.3367C11.2477 10.2804 11.3193 10.2344 11.3705 10.2344C11.4217 10.2344 11.4626 10.2088 11.4626 10.1832C11.4626 10.1525 11.5036 10.132 11.5547 10.132C11.6059 10.132 11.6776 10.086 11.7185 10.0297C11.7594 9.97338 11.826 9.92733 11.872 9.92733C11.9181 9.92733 11.9846 9.88128 12.0255 9.82499C12.0665 9.7687 12.133 9.72264 12.179 9.72264C12.2251 9.72264 12.2916 9.67658 12.3326 9.62029C12.3735 9.564 12.4451 9.51795 12.4963 9.51795C12.5475 9.51795 12.5884 9.49236 12.5884 9.46677C12.5884 9.43607 12.6294 9.4156 12.6805 9.4156C12.7317 9.4156 12.8033 9.36955 12.8443 9.31326C12.8852 9.25697 12.9569 9.21091 13.008 9.21091C13.0592 9.21091 13.1001 9.18533 13.1001 9.15974C13.1001 9.12904 13.1411 9.10857 13.1923 9.10857C13.2434 9.10857 13.3151 9.06251 13.356 9.00622C13.3969 8.94993 13.4635 8.90388 13.5095 8.90388C13.5556 8.90388 13.6221 8.85782 13.663 8.80153C13.704 8.74524 13.7756 8.69919 13.8268 8.69919C13.878 8.69919 13.9189 8.6736 13.9189 8.64801C13.9189 8.61731 13.9598 8.59684 14.011 8.59684C14.0622 8.59684 14.1338 8.55079 14.1748 8.4945C14.2157 8.43821 14.2822 8.39215 14.3283 8.39215C14.3743 8.39215 14.4409 8.3461 14.4818 8.28981C14.5227 8.23352 14.5944 8.18746 14.6456 8.18746C14.6967 8.18746 14.7377 8.16188 14.7377 8.13629C14.7377 8.10559 14.7786 8.08512 14.8298 8.08512C14.8809 8.08512 14.9526 8.03906 14.9935 7.98277C15.0345 7.92648 15.1061 7.88042 15.1573 7.88042C15.2085 7.88042 15.2494 7.85484 15.2494 7.82925C15.2494 7.79855 15.2903 7.77808 15.3415 7.77808C15.3927 7.77808 15.4643 7.73203 15.5053 7.67574C15.5462 7.61945 15.6127 7.57339 15.6588 7.57339C15.7048 7.57339 15.7714 7.52734 15.8123 7.47105C15.8532 7.41476 15.9249 7.3687 15.976 7.3687C16.0272 7.3687 16.0682 7.34311 16.0682 7.31753C16.0682 7.28682 16.1091 7.26635 16.1603 7.26635C16.2114 7.26635 16.2831 7.2203 16.324 7.16401C16.365 7.10772 16.4315 7.06166 16.4775 7.06166C16.5236 7.06166 16.5901 7.01561 16.631 6.95932C16.672 6.90303 16.7436 6.85698 16.7948 6.85698C16.846 6.85698 16.8869 6.83139 16.8869 6.8058C16.8869 6.7751 16.9278 6.75463 16.979 6.75463C17.0302 6.75463 17.1018 6.70857 17.1428 6.65228C17.1837 6.59599 17.2502 6.54994 17.2963 6.54994C17.3423 6.54994 17.4089 6.50388 17.4498 6.44759C17.4907 6.3913 17.5624 6.34525 17.6136 6.34525C17.6647 6.34525 17.7057 6.31966 17.7057 6.29408C17.7057 6.26337 17.7466 6.2429 17.7978 6.2429C17.849 6.2429 17.9206 6.19685 17.9615 6.14056C18.0025 6.08427 18.069 6.03821 18.115 6.03821C18.1611 6.03821 18.2276 5.99216 18.2686 5.93587C18.3095 5.87958 18.3811 5.83352 18.4323 5.83352C18.4835 5.83352 18.5244 5.80794 18.5244 5.78235C18.5244 5.75165 18.5654 5.73118 18.6165 5.73118C18.6677 5.73118 18.7394 5.68512 18.7803 5.62883C18.8212 5.57254 18.8878 5.52649 18.9338 5.52649C18.9799 5.52649 19.0464 5.48043 19.0873 5.42414C19.1283 5.36785 19.1999 5.3218 19.2511 5.3218C19.3022 5.3218 19.3432 5.29621 19.3432 5.27063C19.3432 5.23992 19.3841 5.21945 19.4353 5.21945C19.4865 5.21945 19.5581 5.1734 19.5991 5.11711C19.64 5.06082 19.7116 5.01476 19.7628 5.01476C19.814 5.01476 19.8549 4.98917 19.8549 4.96359C19.8549 4.93288 19.8959 4.91242 19.947 4.91242C19.9982 4.91242 20.0698 4.86636 20.1108 4.81007C20.1517 4.75378 20.2182 4.70773 20.2643 4.70773C20.3103 4.70773 20.3769 4.66167 20.4178 4.60538C20.4587 4.54909 20.5304 4.50304 20.5816 4.50304C20.6327 4.50304 20.6737 4.47745 20.6737 4.45186C20.6737 4.42116 20.7146 4.40069 20.7658 4.40069C20.817 4.40069 20.8886 4.35464 20.9295 4.29835C20.9705 4.24205 21.037 4.196 21.0831 4.196C21.1291 4.196 21.1956 4.14994 21.2366 4.09365C21.2775 4.03736 21.3491 3.99131 21.4003 3.99131C21.4515 3.99131 21.4924 3.96572 21.4924 3.94014C21.4924 3.90944 21.5334 3.88897 21.5845 3.88897C21.6357 3.88897 21.7074 3.84291 21.7483 3.78662C21.7892 3.73033 21.8558 3.68428 21.9018 3.68428C21.9479 3.68428 22.0144 3.63822 22.0553 3.58193C22.0963 3.52564 22.1679 3.47958 22.2191 3.47958C22.2703 3.47958 22.3112 3.454 22.3112 3.42841C22.3112 3.39771 22.3521 3.37724 22.4033 3.37724C22.4545 3.37724 22.5261 3.33118 22.5671 3.27489C22.608 3.21861 22.6796 3.17255 22.7308 3.17255C22.782 3.17255 22.8229 3.14696 22.8229 3.12138C22.8229 3.01903 22.9918 3.07532 23.1299 3.22372C23.2067 3.3056 23.3039 3.37724 23.3449 3.37724C23.3807 3.37724 23.4472 3.42329 23.4882 3.47958C23.5291 3.54099 23.6212 3.58193 23.7031 3.58193C23.7798 3.58193 23.8464 3.6024 23.8464 3.6331C23.8464 3.66381 24.0869 3.68428 24.4604 3.68428C24.834 3.68428 25.0745 3.66381 25.0745 3.6331C25.0745 3.6024 25.1206 3.58193 25.1768 3.58193C25.2331 3.58193 25.2792 3.55634 25.2792 3.53076C25.2792 3.50005 25.3201 3.47958 25.3713 3.47958C25.4225 3.47958 25.4941 3.43353 25.5351 3.37724C25.576 3.32095 25.6374 3.27489 25.6783 3.27489C25.7704 3.27489 25.9956 3.0395 25.9956 2.94227C25.9956 2.90133 26.0212 2.86551 26.0468 2.86551C26.0775 2.86551 26.098 2.81946 26.098 2.76317C26.098 2.70688 26.1235 2.66082 26.1491 2.66082C26.1798 2.66082 26.2003 2.61477 26.2003 2.55848C26.2003 2.50219 26.2259 2.45613 26.2515 2.45613C26.2822 2.45613 26.3026 2.23609 26.3026 1.89323C26.3026 1.55038 26.2822 1.33034 26.2515 1.33034C26.2259 1.33034 26.2003 1.25869 26.2003 1.17682C26.2003 1.08982 26.1798 1.0233 26.1491 1.0233C26.1235 1.0233 26.098 0.98748 26.098 0.946541C26.098 0.849316 25.5658 0.306885 25.4685 0.306885C25.4327 0.306885 25.3713 0.26083 25.3304 0.20454C25.2894 0.143131 25.1973 0.102196 25.1154 0.102196C25.0387 0.102196 24.9722 0.0766068 24.9722 0.0510216C24.9722 0.0203171 24.7675 -0.000152588 24.4604 -0.000152588C24.1534 -0.000152588 23.9487 0.0203171 23.9487 0.0510216ZM11.0533 20.4177C11.0533 20.4484 11.3449 20.4689 11.8208 20.4689C12.2967 20.4689 12.5884 20.4484 12.5884 20.4177C12.5884 20.387 12.614 20.3665 12.6396 20.3665C12.6754 20.3665 12.6908 21.1853 12.6908 22.7205V25.0744H11.8208H10.9509V23.8463C10.9509 23.0633 10.9304 22.6181 10.8997 22.6181C10.8179 22.6181 10.8332 20.5354 10.9151 20.4433C10.9867 20.3563 11.0533 20.3461 11.0533 20.4177ZM15.147 20.4177C15.147 20.4996 16.5645 20.4842 16.5901 20.4075C16.6055 20.3614 16.6362 20.3665 16.6976 20.4279C16.7743 20.5047 16.7846 20.7145 16.7846 22.5363C16.7846 23.8514 16.7641 24.5627 16.7334 24.5627C16.6618 24.5627 16.672 24.752 16.7487 24.7827C16.7948 24.8032 16.7897 24.8237 16.7334 24.8697C16.6771 24.9158 16.672 24.9362 16.7232 24.9567C16.933 25.0386 16.6873 25.0744 15.8635 25.0744H14.9424V22.7205C14.9424 20.4024 14.9424 20.3665 15.0447 20.3665C15.101 20.3665 15.147 20.387 15.147 20.4177ZM20.776 26.4049C20.776 30.3964 20.7607 32.4433 20.7248 32.4433C20.6481 32.4433 20.6634 32.7349 20.7402 32.7708C20.7914 32.7964 20.7914 32.8066 20.7402 32.8322C20.689 32.8526 20.6737 33.042 20.6737 33.523V34.1831H19.8037H18.9338V27.2748V20.3665H19.8549H20.776V26.4049ZM24.9977 20.5456C25.095 20.6429 25.1768 20.7554 25.1768 20.8015C25.1768 20.8424 25.2024 20.8783 25.228 20.8783C25.2587 20.8783 25.2792 20.9448 25.2792 21.0318C25.2792 21.1137 25.3048 21.1853 25.3304 21.1853C25.3662 21.1853 25.3815 22.1064 25.3815 23.8463V26.5072H24.4604C23.5751 26.5072 23.5393 26.5021 23.5393 26.4049C23.5393 26.3486 23.5189 26.3026 23.4882 26.3026C23.4575 26.3026 23.437 26.1337 23.437 25.8932C23.437 25.6527 23.4575 25.4838 23.4882 25.4838C23.5598 25.4838 23.5496 25.2945 23.4779 25.2586C23.4268 25.233 23.4268 25.2228 23.4779 25.1972C23.524 25.1768 23.5393 24.6804 23.5393 22.9815C23.5393 20.8578 23.5444 20.7964 23.6417 20.7247C23.698 20.6838 23.744 20.6122 23.744 20.561C23.744 20.5047 23.7798 20.4689 23.8464 20.4689C23.9027 20.4689 23.9487 20.4433 23.9487 20.4177C23.9487 20.387 24.1278 20.3665 24.3837 20.3665C24.8135 20.3665 24.8238 20.3717 24.9977 20.5456ZM29.9871 27.2748V34.1831H29.1171H28.2472V27.2748V20.3665H29.1171H29.9871V27.2748ZM32.561 20.4279C32.5815 20.4791 32.602 20.474 32.648 20.4177C32.6941 20.3614 32.7146 20.3563 32.735 20.4024C32.7453 20.4382 32.8015 20.4689 32.8527 20.4689C32.9039 20.4689 32.9602 20.4382 32.9755 20.4024C33.0011 20.3512 33.0113 20.3512 33.0369 20.4024C33.0779 20.4945 33.8608 20.4945 33.8864 20.4075C33.9018 20.3614 33.9325 20.3665 33.9939 20.4279C34.0706 20.5047 34.0809 20.6582 34.0809 21.7175C34.0809 22.4902 34.0604 22.9252 34.0297 22.9252C33.999 22.9252 33.9785 23.3192 33.9785 23.9998V25.0744H33.1086H32.2386V22.7205V20.3665H32.387C32.4689 20.3665 32.5508 20.3972 32.561 20.4279ZM37.1512 20.4177C37.1512 20.4945 37.4429 20.4791 37.4787 20.4024C37.5043 20.3512 37.5145 20.3512 37.5401 20.4024C37.5759 20.4893 37.8523 20.4893 37.8778 20.4075C37.8932 20.3614 37.9239 20.3665 37.9853 20.4279C38.0621 20.5047 38.0723 20.7299 38.0723 22.7921V25.0744H37.2024H36.3324V23.6416C36.3324 22.7205 36.312 22.2087 36.2813 22.2087C36.1994 22.2087 36.2147 20.5354 36.2966 20.4433C36.3683 20.3563 37.1512 20.3358 37.1512 20.4177ZM12.6908 30.3452V32.7503H11.8208H10.9509V30.3452V27.9401H11.8208H12.6908V30.3452ZM16.7129 28.0117C16.8204 28.1243 16.8204 32.5661 16.7129 32.6787C16.6566 32.7349 16.4673 32.7503 15.8635 32.7503C15.2085 32.7503 15.0754 32.7349 15.0038 32.6633C14.9424 32.6019 14.9372 32.5712 14.9833 32.5558C15.0601 32.5303 15.0754 31.3175 14.9935 31.3175C14.9628 31.3175 14.9424 30.7187 14.9424 29.6288V27.9401H15.7918C16.4571 27.9401 16.6515 27.9554 16.7129 28.0117ZM34.0809 29.419C34.0809 30.555 34.0655 30.9081 34.0194 30.9286C33.9683 30.9541 33.9683 30.9644 34.0194 30.99C34.0911 31.0258 34.1064 31.3175 34.0297 31.3175C34.0041 31.3175 33.9785 31.3635 33.9785 31.4198C33.9785 31.4761 34.0041 31.5222 34.0297 31.5222C34.1013 31.5222 34.0911 31.7115 34.0194 31.7473C33.9683 31.7729 33.9683 31.7831 34.0194 31.8087C34.0553 31.8292 34.0809 31.9469 34.0809 32.1362C34.0809 32.3256 34.0553 32.4433 34.0194 32.4586C33.9683 32.4791 33.9683 32.4996 34.0246 32.5354C34.086 32.5814 34.086 32.6019 34.0143 32.6684C33.9478 32.7349 33.7943 32.7503 33.0881 32.7503H32.2386V30.3452V27.9401H33.1598H34.0809V29.419ZM38.584 28.3495C38.584 28.59 38.6045 28.7588 38.6352 28.7588C38.6659 28.7588 38.6864 28.9482 38.6864 29.2194V29.6799H37.5094H36.3324V29.2706C36.3324 29.0301 36.3529 28.8612 36.3836 28.8612C36.4604 28.8612 36.4501 28.1601 36.3734 28.1345C36.3273 28.1192 36.3324 28.0885 36.3836 28.0271C36.4501 27.9554 36.6037 27.9452 37.5248 27.9401H38.584V28.3495ZM24.9722 28.9124C24.9722 28.9379 25.0182 28.9635 25.0745 28.9635C25.1308 28.9635 25.1768 28.984 25.1768 29.0147C25.1768 29.0403 25.2127 29.0659 25.2536 29.0659C25.2997 29.0659 25.4122 29.1477 25.5095 29.245C25.6067 29.3422 25.6886 29.4548 25.6886 29.5008C25.6886 29.5418 25.7142 29.5776 25.7397 29.5776C25.7704 29.5776 25.7909 29.6697 25.7909 29.7823C25.7909 29.8949 25.8165 29.987 25.8421 29.987C25.9188 29.987 25.9035 30.2787 25.8319 30.3145C25.7807 30.3401 25.7807 30.3503 25.8319 30.3759C25.9035 30.4117 25.9137 30.601 25.8421 30.601C25.7704 30.601 25.7807 30.7904 25.8574 30.8262C25.9086 30.8518 25.9086 30.862 25.8574 30.8876C25.8063 30.9081 25.7909 31.2919 25.7909 32.5507V34.1831H24.4093H23.0276V32.0851C23.0276 30.7187 23.043 29.987 23.0788 29.987C23.1095 29.987 23.1299 29.8949 23.1299 29.7823C23.1299 29.6697 23.1555 29.5776 23.1811 29.5776C23.2118 29.5776 23.2323 29.5418 23.2323 29.5008C23.2323 29.3985 23.6673 28.9635 23.7696 28.9635C23.8105 28.9635 23.8464 28.9379 23.8464 28.9124C23.8464 28.8817 24.0664 28.8612 24.4093 28.8612C24.7521 28.8612 24.9722 28.8817 24.9722 28.9124Z" fill="#0F3F60"/>
<path d="M24.102 7.16394C24.061 7.22023 23.9894 7.26629 23.9382 7.26629C23.8871 7.26629 23.8461 7.28676 23.8461 7.31746C23.8461 7.34305 23.8052 7.36863 23.754 7.36863C23.7028 7.36863 23.6312 7.41469 23.5903 7.47098C23.5493 7.52727 23.4777 7.57332 23.4265 7.57332C23.3753 7.57332 23.3344 7.59379 23.3344 7.6245C23.3344 7.65008 23.2935 7.67567 23.2423 7.67567C23.1911 7.67567 23.1195 7.72172 23.0785 7.77801C23.0376 7.8343 22.9711 7.88036 22.925 7.88036C22.879 7.88036 22.8124 7.92641 22.7715 7.9827C22.7306 8.03899 22.6589 8.08505 22.6078 8.08505C22.5566 8.08505 22.5156 8.10552 22.5156 8.13622C22.5156 8.16181 22.4747 8.18739 22.4235 8.18739C22.3724 8.18739 22.3007 8.23345 22.2598 8.28974C22.2188 8.34603 22.1472 8.39208 22.096 8.39208C22.0449 8.39208 22.0039 8.41255 22.0039 8.44326C22.0039 8.46884 21.963 8.49443 21.9118 8.49443C21.8606 8.49443 21.789 8.54049 21.7481 8.59678C21.7071 8.65306 21.6406 8.69912 21.5945 8.69912C21.5485 8.69912 21.482 8.74518 21.441 8.80147C21.4001 8.85776 21.3284 8.90381 21.2773 8.90381C21.2261 8.90381 21.1852 8.92428 21.1852 8.95498C21.1852 8.98057 21.1442 9.00616 21.093 9.00616C21.0419 9.00616 20.9702 9.05221 20.9293 9.1085C20.8884 9.16479 20.8218 9.21085 20.7758 9.21085C20.7297 9.21085 20.6632 9.2569 20.6223 9.31319C20.5813 9.36948 20.5097 9.41554 20.4585 9.41554C20.4073 9.41554 20.3664 9.43601 20.3664 9.46671C20.3664 9.4923 20.3255 9.51788 20.2743 9.51788C20.2231 9.51788 20.1515 9.56394 20.1105 9.62023C20.0696 9.67652 19.998 9.72257 19.9468 9.72257C19.8956 9.72257 19.8547 9.74304 19.8547 9.77374C19.8547 9.79933 19.8137 9.82492 19.7626 9.82492C19.7114 9.82492 19.6397 9.87097 19.5988 9.92726C19.5579 9.98355 19.4862 10.0296 19.4351 10.0296C19.3839 10.0296 19.3429 10.0501 19.3429 10.0808C19.3429 10.1064 19.302 10.132 19.2508 10.132C19.1997 10.132 19.128 10.178 19.0871 10.2343C19.0461 10.2906 18.9796 10.3366 18.9336 10.3366C18.8875 10.3366 18.821 10.3827 18.7801 10.439C18.7391 10.4953 18.6675 10.5413 18.6163 10.5413C18.5651 10.5413 18.5242 10.5618 18.5242 10.5925C18.5242 10.6181 18.4833 10.6437 18.4321 10.6437C18.3809 10.6437 18.3093 10.6897 18.2683 10.746C18.2274 10.8023 18.1609 10.8484 18.1148 10.8484C18.0688 10.8484 18.0022 10.8944 17.9613 10.9507C17.9204 11.007 17.8487 11.0531 17.7975 11.0531C17.7464 11.0531 17.7054 11.0735 17.7054 11.1042C17.7054 11.1298 17.6645 11.1554 17.6133 11.1554C17.5621 11.1554 17.4905 11.2015 17.4496 11.2577C17.4086 11.314 17.337 11.3601 17.2858 11.3601C17.2346 11.3601 17.1937 11.3806 17.1937 11.4113C17.1937 11.4369 17.1528 11.4624 17.1016 11.4624C17.0504 11.4624 16.9788 11.5085 16.9378 11.5648C16.8969 11.6211 16.8253 11.6671 16.7741 11.6671C16.7229 11.6671 16.682 11.6876 16.682 11.7183C16.682 11.7439 16.6462 11.7695 16.6052 11.7695C16.4722 11.7695 16.1703 12.1072 16.1703 12.2556V12.3835H24.4602C32.7143 12.3835 32.7501 12.3835 32.7501 12.2812C32.7501 12.2249 32.7297 12.1789 32.699 12.1789C32.6734 12.1789 32.6478 12.143 32.6478 12.1021C32.6478 11.9998 32.4175 11.7695 32.3152 11.7695C32.2742 11.7695 32.2384 11.7439 32.2384 11.7183C32.2384 11.6876 32.1975 11.6671 32.1463 11.6671C32.0951 11.6671 32.0235 11.6211 31.9825 11.5648C31.9416 11.5085 31.87 11.4624 31.8188 11.4624C31.7676 11.4624 31.7267 11.4369 31.7267 11.4113C31.7267 11.3806 31.6857 11.3601 31.6346 11.3601C31.5834 11.3601 31.5118 11.314 31.4708 11.2577C31.4299 11.2015 31.3634 11.1554 31.3173 11.1554C31.2712 11.1554 31.2047 11.1093 31.1638 11.0531C31.1228 10.9968 31.0512 10.9507 31 10.9507C30.9489 10.9507 30.9079 10.9251 30.9079 10.8995C30.9079 10.8688 30.867 10.8484 30.8158 10.8484C30.7646 10.8484 30.693 10.8023 30.6521 10.746C30.6111 10.6897 30.5446 10.6437 30.4985 10.6437C30.4525 10.6437 30.386 10.5976 30.345 10.5413C30.3041 10.485 30.2324 10.439 30.1813 10.439C30.1301 10.439 30.0892 10.4134 30.0892 10.3878C30.0892 10.3571 30.0482 10.3366 29.9971 10.3366C29.9459 10.3366 29.8742 10.2906 29.8333 10.2343C29.7924 10.178 29.7207 10.132 29.6695 10.132C29.6184 10.132 29.5774 10.1064 29.5774 10.0808C29.5774 10.0501 29.5365 10.0296 29.4853 10.0296C29.4342 10.0296 29.3625 9.98355 29.3216 9.92726C29.2806 9.87097 29.209 9.82492 29.1578 9.82492C29.1067 9.82492 29.0657 9.79933 29.0657 9.77374C29.0657 9.74304 29.0248 9.72257 28.9736 9.72257C28.9224 9.72257 28.8508 9.67652 28.8099 9.62023C28.7689 9.56394 28.6973 9.51788 28.6461 9.51788C28.5949 9.51788 28.554 9.4923 28.554 9.46671C28.554 9.43601 28.5131 9.41554 28.4619 9.41554C28.4107 9.41554 28.3391 9.36948 28.2981 9.31319C28.2572 9.2569 28.1855 9.21085 28.1344 9.21085C28.0832 9.21085 28.0423 9.18526 28.0423 9.15967C28.0423 9.12897 28.0013 9.1085 27.9502 9.1085C27.899 9.1085 27.8273 9.06245 27.7864 9.00616C27.7455 8.94987 27.6738 8.90381 27.6227 8.90381C27.5715 8.90381 27.5305 8.87822 27.5305 8.85264C27.5305 8.82193 27.4896 8.80147 27.4384 8.80147C27.3873 8.80147 27.3156 8.75541 27.2747 8.69912C27.2337 8.64283 27.1621 8.59678 27.1109 8.59678C27.0598 8.59678 27.0188 8.57119 27.0188 8.5456C27.0188 8.5149 26.9779 8.49443 26.9267 8.49443C26.8755 8.49443 26.8039 8.44837 26.763 8.39208C26.722 8.33579 26.6504 8.28974 26.5992 8.28974C26.548 8.28974 26.5071 8.26415 26.5071 8.23857C26.5071 8.20786 26.4662 8.18739 26.415 8.18739C26.3638 8.18739 26.2922 8.14134 26.2512 8.08505C26.2103 8.02876 26.1387 7.9827 26.0875 7.9827C26.0363 7.9827 25.9954 7.95712 25.9954 7.93153C25.9954 7.90083 25.9544 7.88036 25.9033 7.88036C25.8521 7.88036 25.7804 7.8343 25.7395 7.77801C25.6986 7.72172 25.6269 7.67567 25.5758 7.67567C25.5246 7.67567 25.4836 7.65008 25.4836 7.6245C25.4836 7.59379 25.4427 7.57332 25.3915 7.57332C25.3404 7.57332 25.2687 7.52727 25.2278 7.47098C25.1868 7.41469 25.1152 7.36863 25.064 7.36863C25.0129 7.36863 24.9719 7.34305 24.9719 7.31746C24.9719 7.28676 24.931 7.26629 24.8798 7.26629C24.8286 7.26629 24.757 7.22023 24.7161 7.16394C24.6598 7.08718 24.583 7.0616 24.409 7.0616C24.235 7.0616 24.1583 7.08718 24.102 7.16394Z" fill="#0F3F60"/>
<path d="M30.396 38.7375C30.396 38.7631 30.3039 38.7887 30.1913 38.7887C30.0787 38.7887 29.9866 38.8092 29.9866 38.8399C29.9866 38.8655 29.9405 38.891 29.8842 38.891C29.828 38.891 29.7819 38.9115 29.7819 38.9422C29.7819 38.9678 29.7461 38.9934 29.7051 38.9934C29.6028 38.9934 28.9631 39.633 28.9631 39.7354C28.9631 39.7763 28.9427 39.8121 28.912 39.8121C28.8864 39.8121 28.8608 39.8787 28.8608 39.9657C28.8608 40.0475 28.8403 40.1192 28.8096 40.1192C28.7277 40.1192 28.7431 41.332 28.8199 41.3576C28.9069 41.3883 28.7482 41.552 28.6356 41.552C28.5896 41.552 28.5538 41.5725 28.5538 41.6032C28.5538 41.6288 28.5077 41.6544 28.4514 41.6544C28.3951 41.6544 28.3491 41.6748 28.3491 41.7055C28.3491 41.7311 28.3081 41.7567 28.257 41.7567C28.2058 41.7567 28.1341 41.8028 28.0932 41.859C28.0523 41.9153 27.9806 41.9614 27.9295 41.9614C27.8783 41.9614 27.8373 41.9819 27.8373 42.0126C27.8373 42.0382 27.7964 42.0637 27.7452 42.0637C27.6941 42.0637 27.6224 42.1098 27.5815 42.1661C27.5405 42.2224 27.474 42.2684 27.428 42.2684C27.3819 42.2684 27.3154 42.3145 27.2745 42.3708C27.2335 42.4271 27.1619 42.4731 27.1107 42.4731C27.0595 42.4731 27.0186 42.4936 27.0186 42.5243C27.0186 42.5499 26.9777 42.5755 26.9265 42.5755C26.8753 42.5755 26.8037 42.6215 26.7627 42.6778C26.7218 42.7341 26.6501 42.7802 26.599 42.7802C26.5478 42.7802 26.5069 42.8006 26.5069 42.8313C26.5069 42.8569 26.4659 42.8825 26.4148 42.8825C26.3636 42.8825 26.2919 42.9286 26.251 42.9848C26.2101 43.0411 26.1384 43.0872 26.0872 43.0872C26.0361 43.0872 25.9951 43.1077 25.9951 43.1384C25.9951 43.1639 25.9542 43.1895 25.903 43.1895C25.8519 43.1895 25.7802 43.2356 25.7393 43.2919C25.6983 43.3482 25.6267 43.3942 25.5755 43.3942C25.5244 43.3942 25.4834 43.4147 25.4834 43.4454C25.4834 43.471 25.4425 43.4966 25.3913 43.4966C25.3401 43.4966 25.2685 43.5426 25.2276 43.5989C25.1866 43.6552 25.115 43.7013 25.0638 43.7013C25.0126 43.7013 24.9717 43.7217 24.9717 43.7524C24.9717 43.778 24.9308 43.8036 24.8796 43.8036C24.8284 43.8036 24.7568 43.8497 24.7158 43.906C24.6749 43.9622 24.6032 44.0083 24.5521 44.0083C24.5009 44.0083 24.46 44.0288 24.46 44.0595C24.46 44.0851 24.419 44.1106 24.3679 44.1106C24.3167 44.1106 24.245 44.1567 24.2041 44.213C24.1632 44.2693 24.0915 44.3153 24.0404 44.3153C23.9892 44.3153 23.9482 44.3358 23.9482 44.3665C23.9482 44.3921 23.9073 44.4177 23.8561 44.4177C23.805 44.4177 23.7333 44.4637 23.6924 44.52C23.6514 44.5763 23.5798 44.6224 23.5286 44.6224C23.4775 44.6224 23.4365 44.6428 23.4365 44.6735C23.4365 44.6991 23.37 44.7247 23.283 44.7247C23.2011 44.7247 23.1295 44.6991 23.1295 44.6735C23.1295 44.6428 23.0834 44.6224 23.0271 44.6224C22.9708 44.6224 22.9248 44.5968 22.9248 44.5712C22.9248 44.5405 22.8787 44.52 22.8224 44.52C22.7662 44.52 22.7201 44.4944 22.7201 44.4688C22.7201 44.4381 22.6075 44.4177 22.4642 44.4177C22.3261 44.4177 22.2084 44.3921 22.2084 44.3665C22.2084 44.3358 22.1623 44.3153 22.106 44.3153C22.0497 44.3153 22.0037 44.3358 22.0037 44.3665C22.0037 44.3921 21.8911 44.4177 21.7478 44.4177C21.6097 44.4177 21.492 44.4381 21.492 44.4688C21.492 44.4944 21.4459 44.52 21.3896 44.52C21.3333 44.52 21.2873 44.5405 21.2873 44.5712C21.2873 44.5968 21.2412 44.6224 21.1849 44.6224C21.1286 44.6224 21.0826 44.6428 21.0826 44.6735C21.0826 44.6991 21.0468 44.7247 21.0058 44.7247C20.9086 44.7247 20.6732 44.9499 20.6732 45.042C20.6732 45.0829 20.6271 45.1443 20.5709 45.1853C20.5146 45.2262 20.4685 45.2978 20.4685 45.349C20.4685 45.4002 20.448 45.4411 20.4173 45.4411C20.3918 45.4411 20.3662 45.5077 20.3662 45.5946C20.3662 45.6765 20.3457 45.7482 20.315 45.7482C20.2843 45.7482 20.2638 45.9375 20.2638 46.2087C20.2638 46.4799 20.2843 46.6693 20.315 46.6693C20.3457 46.6693 20.3662 46.7153 20.3662 46.7716C20.3662 46.8279 20.3918 46.874 20.4173 46.874C20.448 46.874 20.4685 46.92 20.4685 46.9763C20.4685 47.0326 20.4941 47.0786 20.5197 47.0786C20.5504 47.0786 20.5709 47.1145 20.5709 47.1554C20.5709 47.2015 20.6988 47.3601 20.8523 47.5136C21.0058 47.6671 21.1645 47.7951 21.2105 47.7951C21.2515 47.7951 21.2873 47.8155 21.2873 47.8462C21.2873 47.8718 21.3589 47.8974 21.4408 47.8974C21.5278 47.8974 21.5943 47.9179 21.5943 47.9486C21.5943 47.9793 21.8143 47.9998 22.1572 47.9998C22.5001 47.9998 22.7201 47.9793 22.7201 47.9486C22.7201 47.9179 22.7662 47.8974 22.8224 47.8974C22.8787 47.8974 22.9248 47.8718 22.9248 47.8462C22.9248 47.8155 22.9606 47.7951 23.0016 47.7951C23.1039 47.7951 23.7436 47.1554 23.7436 47.0531C23.7436 47.0121 23.7691 46.9763 23.7947 46.9763C23.8254 46.9763 23.8459 46.9302 23.8459 46.874C23.8459 46.8177 23.8715 46.7716 23.8971 46.7716C23.9278 46.7716 23.9482 46.5669 23.9482 46.2599C23.9482 45.9529 23.9278 45.7482 23.8971 45.7482C23.8715 45.7482 23.8459 45.7021 23.8459 45.6458C23.8459 45.5793 23.8817 45.5435 23.938 45.5435C23.9892 45.5435 24.0608 45.4974 24.1018 45.4411C24.1427 45.3848 24.2143 45.3388 24.2655 45.3388C24.3167 45.3388 24.3576 45.3132 24.3576 45.2876C24.3576 45.2569 24.3986 45.2364 24.4497 45.2364C24.5009 45.2364 24.5725 45.1904 24.6135 45.1341C24.6544 45.0778 24.7261 45.0317 24.7772 45.0317C24.8284 45.0317 24.8693 45.0062 24.8693 44.9806C24.8693 44.9499 24.9103 44.9294 24.9615 44.9294C25.0126 44.9294 25.0843 44.8833 25.1252 44.8271C25.1661 44.7708 25.2378 44.7247 25.289 44.7247C25.3401 44.7247 25.3811 44.6991 25.3811 44.6735C25.3811 44.6428 25.422 44.6224 25.4732 44.6224C25.5244 44.6224 25.596 44.5763 25.6369 44.52C25.6779 44.4637 25.7444 44.4177 25.7904 44.4177C25.8365 44.4177 25.903 44.3716 25.944 44.3153C25.9849 44.259 26.0565 44.213 26.1077 44.213C26.1589 44.213 26.1998 44.1874 26.1998 44.1618C26.1998 44.1311 26.2408 44.1106 26.2919 44.1106C26.3431 44.1106 26.4148 44.0646 26.4557 44.0083C26.4966 43.952 26.5683 43.906 26.6194 43.906C26.6706 43.906 26.7116 43.8804 26.7116 43.8548C26.7116 43.8241 26.7525 43.8036 26.8037 43.8036C26.8548 43.8036 26.9265 43.7575 26.9674 43.7013C27.0084 43.645 27.08 43.5989 27.1312 43.5989C27.1823 43.5989 27.2233 43.5733 27.2233 43.5477C27.2233 43.517 27.2642 43.4966 27.3154 43.4966C27.3666 43.4966 27.4382 43.4505 27.4791 43.3942C27.5201 43.3379 27.5866 43.2919 27.6327 43.2919C27.6787 43.2919 27.7452 43.2458 27.7862 43.1895C27.8271 43.1332 27.8988 43.0872 27.9499 43.0872C28.0011 43.0872 28.042 43.0616 28.042 43.036C28.042 43.0053 28.083 42.9848 28.1341 42.9848C28.1853 42.9848 28.257 42.9388 28.2979 42.8825C28.3388 42.8262 28.4105 42.7802 28.4617 42.7802C28.5128 42.7802 28.5538 42.7546 28.5538 42.729C28.5538 42.6983 28.5947 42.6778 28.6459 42.6778C28.697 42.6778 28.7687 42.6318 28.8096 42.5755C28.8506 42.5192 28.9222 42.4731 28.9734 42.4731C29.0245 42.4731 29.0655 42.4475 29.0655 42.4219C29.0655 42.3298 29.3469 42.3657 29.4237 42.4731C29.4646 42.5294 29.5312 42.5755 29.5772 42.5755C29.6233 42.5755 29.6898 42.6215 29.7307 42.6778C29.7717 42.7341 29.8433 42.7802 29.8945 42.7802C29.9457 42.7802 29.9866 42.8006 29.9866 42.8313C29.9866 42.8569 30.0582 42.8825 30.1401 42.8825C30.2271 42.8825 30.2936 42.903 30.2936 42.9337C30.2936 42.9644 30.483 42.9848 30.7542 42.9848C31.0254 42.9848 31.2147 42.9644 31.2147 42.9337C31.2147 42.903 31.2864 42.8825 31.3682 42.8825C31.4552 42.8825 31.5218 42.8569 31.5218 42.8313C31.5218 42.8006 31.5832 42.7802 31.6548 42.7802C31.7367 42.7802 31.8442 42.7187 31.9311 42.6266C32.0079 42.5396 32.1 42.4731 32.1307 42.4731C32.2126 42.4731 32.4429 42.2377 32.4429 42.1558C32.4429 42.1149 32.4889 42.0535 32.5452 42.0126C32.6015 41.9716 32.6476 41.9 32.6476 41.8488C32.6476 41.7976 32.6731 41.7567 32.6987 41.7567C32.7294 41.7567 32.7499 41.7106 32.7499 41.6544C32.7499 41.5981 32.7755 41.552 32.8011 41.552C32.8318 41.552 32.8522 41.4343 32.8522 41.2961C32.8522 41.1529 32.8778 41.0403 32.9034 41.0403C32.9341 41.0403 32.9546 40.9482 32.9546 40.8356C32.9546 40.723 32.9341 40.6309 32.9034 40.6309C32.8778 40.6309 32.8522 40.5132 32.8522 40.375C32.8522 40.2318 32.8318 40.1192 32.8011 40.1192C32.7755 40.1192 32.7499 40.0731 32.7499 40.0168C32.7499 39.9605 32.7294 39.9145 32.6987 39.9145C32.6731 39.9145 32.6476 39.8684 32.6476 39.8121C32.6476 39.7559 32.6271 39.7098 32.5964 39.7098C32.5708 39.7098 32.5452 39.674 32.5452 39.633C32.5452 39.5358 32.1154 39.0957 32.0181 39.0957C31.9823 39.0957 31.9209 39.0497 31.88 38.9934C31.839 38.932 31.7469 38.891 31.665 38.891C31.5883 38.891 31.5218 38.8655 31.5218 38.8399C31.5218 38.8092 31.4297 38.7887 31.3171 38.7887C31.2045 38.7887 31.1124 38.7631 31.1124 38.7375C31.1124 38.7068 30.9589 38.6863 30.7542 38.6863C30.5495 38.6863 30.396 38.7068 30.396 38.7375Z" fill="#0F3F60"/>
</svg>
