<svg width="49" height="128" viewBox="0 0 49 128" fill="none" xmlns="http://www.w3.org/2000/svg">
<g clip-path="url(#clip0_290_37)">
<path d="M24.5 0C26.6239 0 28.7002 0.631698 30.4662 1.81521C32.2322 2.99873 33.6086 4.6809 34.4214 6.64901C35.2342 8.61713 35.4469 10.7828 35.0325 12.8721C34.6182 14.9615 33.5954 16.8806 32.0935 18.387C30.5917 19.8933 28.6782 20.9191 26.595 21.3347C24.5119 21.7503 22.3527 21.537 20.3904 20.7218C18.4281 19.9066 16.751 18.526 15.571 16.7548C14.391 14.9835 13.7611 12.9011 13.7611 10.7708C13.7611 7.91423 14.8925 5.17463 16.9065 3.1547C18.9204 1.13478 21.6519 0 24.5 0ZM38.0742 40.5521V122.042C38.0687 123.62 37.4411 125.133 36.3282 126.249C35.2153 127.365 33.7074 127.995 32.1335 128C30.5588 127.997 29.0494 127.369 27.9359 126.252C26.8224 125.135 26.1956 123.621 26.1929 122.042V74.125H22.9629V122.042C22.9574 123.62 22.3298 125.133 21.2169 126.249C20.104 127.365 18.5961 127.995 17.0223 128C15.4484 127.995 13.9405 127.365 12.8276 126.249C11.7147 125.133 11.0871 123.62 11.0816 122.042V40.5521H9.00445V70.5C9.00445 76.4688 0 76.4688 0 70.5V38.2708C0 33.0625 1.75519 29.3542 4.95401 26.9375C10.4585 22.7708 38.5312 22.7708 44.0356 26.9375C47.2344 29.3542 49.0104 33.0313 49 38.2708V70.5C49 76.4688 39.9852 76.4688 39.9852 70.5V40.5521H38.0742Z" fill="#4B4B4B"/>
</g>
<defs>
<clipPath id="clip0_290_37">
<rect width="49" height="128" fill="white"/>
</clipPath>
</defs>
</svg>
