<svg width="128" height="128" viewBox="0 0 128 128" fill="none" xmlns="http://www.w3.org/2000/svg">
<g clip-path="url(#clip0_368_33)">
<path d="M64.5 0C66.6239 0 68.7002 0.631698 70.4662 1.81521C72.2322 2.99873 73.6086 4.6809 74.4214 6.64901C75.2342 8.61713 75.4469 10.7828 75.0325 12.8721C74.6182 14.9615 73.5954 16.8806 72.0935 18.387C70.5917 19.8933 68.6782 20.9191 66.595 21.3347C64.5119 21.7503 62.3527 21.537 60.3904 20.7218C58.4281 19.9066 56.751 18.526 55.571 16.7548C54.391 14.9835 53.7611 12.9011 53.7611 10.7708C53.7611 7.91423 54.8925 5.17463 56.9065 3.1547C58.9204 1.13478 61.6519 0 64.5 0ZM78.0742 40.5521V122.042C78.0687 123.62 77.4411 125.133 76.3282 126.249C75.2153 127.365 73.7074 127.995 72.1335 128C70.5588 127.997 69.0494 127.369 67.9359 126.252C66.8224 125.135 66.1956 123.621 66.1929 122.042V74.125H62.9629V122.042C62.9574 123.62 62.3298 125.133 61.2169 126.249C60.104 127.365 58.5961 127.995 57.0223 128C55.4484 127.995 53.9405 127.365 52.8276 126.249C51.7147 125.133 51.0871 123.62 51.0816 122.042V40.5521H49.0045V70.5C49.0045 76.4688 40 76.4688 40 70.5V38.2708C40 33.0625 41.7552 29.3542 44.954 26.9375C50.4585 22.7708 78.5312 22.7708 84.0356 26.9375C87.2344 29.3542 89.0104 33.0313 89 38.2708V70.5C89 76.4688 79.9852 76.4688 79.9852 70.5V40.5521H78.0742Z" fill="#4B4B4B"/>
</g>
<defs>
<clipPath id="clip0_368_33">
<rect width="49" height="128" fill="white" transform="translate(40)"/>
</clipPath>
</defs>
</svg>
