<svg width="48" height="123" viewBox="0 0 48 123" fill="none" xmlns="http://www.w3.org/2000/svg">
<g clip-path="url(#clip0_290_37)">
<path d="M23.59 0C25.6351 0 27.6342 0.60643 29.3346 1.7426C31.035 2.87878 32.3603 4.49367 33.1429 6.38305C33.9255 8.27244 34.1303 10.3515 33.7313 12.3572C33.3323 14.363 32.3476 16.2054 30.9015 17.6515C29.4554 19.0976 27.613 20.0823 25.6072 20.4813C23.6015 20.8803 21.5224 20.6755 19.6331 19.8929C17.7437 19.1103 16.1288 17.785 14.9926 16.0846C13.8564 14.3842 13.25 12.3851 13.25 10.34C13.25 7.59766 14.3394 4.96764 16.2785 3.02852C18.2176 1.08939 20.8477 0 23.59 0ZM36.66 38.93V117.16C36.6547 118.675 36.0504 120.127 34.9788 121.199C33.9073 122.27 32.4554 122.875 30.94 122.88C29.4238 122.877 27.9704 122.274 26.8983 121.202C25.8261 120.13 25.2226 118.676 25.22 117.16V71.16H22.11V117.16C22.1047 118.675 21.5004 120.127 20.4288 121.199C19.3573 122.27 17.9054 122.875 16.39 122.88C14.8746 122.875 13.4227 122.27 12.3512 121.199C11.2796 120.127 10.6753 118.675 10.67 117.16V38.93H8.67V67.68C8.67 73.41 0 73.41 0 67.68V36.74C0 31.74 1.69 28.18 4.77 25.86C10.07 21.86 37.1 21.86 42.4 25.86C45.48 28.18 47.19 31.71 47.18 36.74V67.68C47.18 73.41 38.5 73.41 38.5 67.68V38.93H36.66Z" fill="#ACF4FF"/>
</g>
<defs>
<clipPath id="clip0_290_37">
<rect width="47.18" height="122.88" fill="white"/>
</clipPath>
</defs>
</svg>
