<svg width="98" height="128" viewBox="0 0 98 128" fill="none" xmlns="http://www.w3.org/2000/svg">
<path d="M82.8773 14.1771C63.873 -4.72568 33.1814 -4.72568 14.1771 14.1771C-4.72568 33.0798 -4.72568 63.873 14.1771 82.8773L48.5272 116.414L82.7757 82.7757C101.78 63.873 101.78 33.0798 82.8773 14.1771ZM77.0846 76.9829L48.5272 105.032L19.9698 77.0845C12.3478 69.4625 8.18102 59.2997 8.18102 48.5272C8.18102 37.7547 12.3478 27.5919 19.9698 19.9698C27.5919 12.3478 37.7547 8.0794 48.5272 8.0794C59.2997 8.0794 69.4625 12.2461 77.0846 19.8682C84.7066 27.4903 88.8734 37.653 88.8734 48.4256C88.975 59.2997 84.7066 69.3609 77.0846 76.9829Z" fill="#4B4B4B"/>
<path d="M48.5274 27.6935C37.0435 27.6935 27.7954 37.0433 27.7954 48.4256C27.7954 59.8079 37.0435 69.2592 48.5274 69.2592C60.0114 69.2592 69.2595 59.9095 69.2595 48.5272C69.2595 37.1449 60.0114 27.6935 48.5274 27.6935ZM48.5274 61.129C41.6168 61.129 35.9256 55.4379 35.9256 48.5272C35.9256 41.6165 41.6168 35.8238 48.5274 35.8238C55.4381 35.8238 61.1293 41.5149 61.1293 48.4256C61.1293 55.3363 55.4381 61.129 48.5274 61.129Z" fill="#4B4B4B"/>
<path d="M86.1297 119.87H10.9252V128H86.1297V119.87Z" fill="#4B4B4B"/>
</svg>
