<svg width="128" height="128" viewBox="0 0 128 128" fill="none" xmlns="http://www.w3.org/2000/svg">
<g clip-path="url(#clip0_368_39)">
<path d="M6.79167 108.588C6.79167 110.472 5.27083 112 3.39583 112C1.52083 112 0 110.472 0 108.588V89.8825C0 89.7674 0.0104167 89.6522 0.0208333 89.5476C0.0729167 87.6007 0.6875 86.0201 1.84375 84.7849C3.05208 83.4975 4.69792 82.7648 6.76042 82.5449C6.9375 82.524 7.11458 82.524 7.29167 82.5345L30.4583 82.5763V64.3632C30.4583 64.248 30.4688 64.1329 30.4792 64.0178C30.5313 62.7931 30.9063 61.7463 31.625 60.8985C32.5104 59.8518 33.7083 59.3075 35.2083 59.2761H35.3021V59.2656H60.9896V41.9003C60.9896 41.7224 61 41.5444 61.0313 41.3665C61.1771 39.8801 61.7604 38.7182 62.6875 37.8285C63.6354 36.9178 64.8125 36.4363 66.1563 36.2689C66.2917 36.2479 66.4271 36.2479 66.5521 36.2479H92.6771C92.6771 30.9201 92.9688 24.7443 92.6771 19.5107C92.6771 18.5163 93.0104 17.0195 93.8333 15.7634C94.7708 14.3294 96.2708 13.1465 98.5208 13.0105L98.8854 13H124.604C126.479 13 128 14.5282 128 16.4123C128 18.2965 126.479 19.8247 124.604 19.8247H99.4688V39.6603C99.4688 41.5444 97.9479 43.0726 96.0729 43.0726H67.7708V62.6779C67.7708 64.5621 66.25 66.0903 64.375 66.0903H37.25V85.9782H37.2396C37.2396 87.8519 35.7292 89.3801 33.8542 89.3801L7.32292 89.3278C7 89.3696 6.8125 89.4115 6.77083 89.4429V89.5371C6.78125 89.6523 6.79167 89.7569 6.79167 89.8721V108.588Z" fill="#4B4B4B"/>
</g>
<defs>
<clipPath id="clip0_368_39">
<rect width="128" height="99" fill="white" transform="translate(0 13)"/>
</clipPath>
</defs>
</svg>
