<svg width="123" height="95" viewBox="0 0 123 95" fill="none" xmlns="http://www.w3.org/2000/svg">
<g clip-path="url(#clip0_291_50)">
<path d="M6.52 91.32C6.52 93.12 5.06 94.58 3.26 94.58C1.46 94.58 0 93.12 0 91.32V73.45C0 73.34 0.01 73.23 0.02 73.13C0.07 71.27 0.66 69.76 1.77 68.58C2.93 67.35 4.51 66.65 6.49 66.44C6.66 66.42 6.83 66.42 7 66.43L29.24 66.47V49.07C29.24 48.96 29.25 48.85 29.26 48.74C29.31 47.57 29.67 46.57 30.36 45.76C31.21 44.76 32.36 44.24 33.8 44.21H33.89V44.2H58.55V27.61C58.55 27.44 58.56 27.27 58.59 27.1C58.73 25.68 59.29 24.57 60.18 23.72C61.09 22.85 62.22 22.39 63.51 22.23C63.64 22.21 63.77 22.21 63.89 22.21H88.97C88.97 17.12 89.25 11.22 88.97 6.22C88.97 5.27 89.29 3.84 90.08 2.64C90.98 1.27 92.42 0.14 94.58 0.01L94.93 0H119.62C121.42 0 122.88 1.46 122.88 3.26C122.88 5.06 121.42 6.52 119.62 6.52H95.49V25.47C95.49 27.27 94.03 28.73 92.23 28.73H65.06V47.46C65.06 49.26 63.6 50.72 61.8 50.72H35.76V69.72H35.75C35.75 71.51 34.3 72.97 32.5 72.97L7.03 72.92C6.72 72.96 6.54 73 6.5 73.03V73.12C6.51 73.23 6.52 73.33 6.52 73.44V91.32Z" fill="black"/>
</g>
<defs>
<clipPath id="clip0_291_50">
<rect width="122.88" height="94.58" fill="white"/>
</clipPath>
</defs>
</svg>
