<svg width="128" height="99" viewBox="0 0 128 99" fill="none" xmlns="http://www.w3.org/2000/svg">
<g clip-path="url(#clip0_291_50)">
<path d="M6.79167 95.5876C6.79167 97.4718 5.27083 99 3.39583 99C1.52083 99 0 97.4718 0 95.5876V76.8825C0 76.7674 0.0104167 76.6522 0.0208333 76.5476C0.0729167 74.6007 0.6875 73.0201 1.84375 71.7849C3.05208 70.4975 4.69792 69.7647 6.76042 69.5449C6.9375 69.524 7.11458 69.524 7.29167 69.5345L30.4583 69.5763V51.3632C30.4583 51.248 30.4688 51.1329 30.4792 51.0178C30.5313 49.7931 30.9063 48.7463 31.625 47.8985C32.5104 46.8518 33.7083 46.3075 35.2083 46.2761H35.3021V46.2656H60.9896V28.9003C60.9896 28.7224 61 28.5444 61.0313 28.3665C61.1771 26.8801 61.7604 25.7182 62.6875 24.8285C63.6354 23.9178 64.8125 23.4363 66.1562 23.2689C66.2917 23.2479 66.4271 23.2479 66.5521 23.2479H92.6771C92.6771 17.9201 92.9688 11.7443 92.6771 6.51068C92.6771 5.51628 93.0104 4.01945 93.8333 2.76338C94.7708 1.32935 96.2708 0.146543 98.5208 0.0104673L98.8854 0H124.604C126.479 0 128 1.52823 128 3.41235C128 5.29647 126.479 6.8247 124.604 6.8247H99.4688V26.6603C99.4688 28.5444 97.9479 30.0726 96.0729 30.0726H67.7708V49.6779C67.7708 51.5621 66.25 53.0903 64.375 53.0903H37.25V72.9782H37.2396C37.2396 74.8519 35.7292 76.3801 33.8542 76.3801L7.32292 76.3278C7 76.3696 6.8125 76.4115 6.77083 76.4429V76.5371C6.78125 76.6523 6.79167 76.7569 6.79167 76.8721V95.5876Z" fill="#4B4B4B"/>
</g>
<defs>
<clipPath id="clip0_291_50">
<rect width="128" height="99" fill="white"/>
</clipPath>
</defs>
</svg>
