<svg width="128" height="105" viewBox="0 0 128 105" fill="none" xmlns="http://www.w3.org/2000/svg">
<g clip-path="url(#clip0_290_44)">
<path d="M64.4896 47.6943L10.5208 90.6191L10.2604 90.8058C9.00865 91.6018 8.03102 92.7594 7.45832 94.1236C7.25448 94.5678 7.22368 95.0716 7.37189 95.5371C7.52009 96.0027 7.83674 96.3968 8.2604 96.6431C9.59527 97.4302 11.1401 97.792 12.6875 97.68H114.937H115.271C116.765 97.745 118.252 97.4461 119.604 96.809C120.063 96.5959 120.432 96.2288 120.646 95.7722C120.81 95.2809 120.81 94.7497 120.646 94.2584C120.088 92.7297 119.145 91.3693 117.906 90.3081C117.552 89.9763 117.219 89.6756 116.865 89.3957C116.51 89.1157 116.094 88.7943 115.687 88.4936L115.531 88.3796L64.4896 47.6943ZM5.98957 84.9166L60.8646 41.297V34.0392C60.8667 33.1247 61.2136 32.2444 61.8367 31.5724C62.4597 30.9003 63.3135 30.4856 64.2291 30.4103C70.8541 29.5705 74.4166 26.263 75.5937 22.4682C76.0824 20.7843 76.1856 19.0128 75.8958 17.284C75.6122 15.5038 74.9518 13.8038 73.9583 12.2968C72.6773 10.3667 70.8306 8.87559 68.6689 8.02605C66.5072 7.17651 64.1352 7.00966 61.875 7.54814C59.4829 8.05882 57.3477 9.39124 55.8437 11.3118C54.0208 13.6435 52.8944 16.4391 52.5937 19.3784C52.4417 20.3062 51.9338 21.1391 51.1771 21.7017C50.4203 22.2642 49.4738 22.5125 48.5368 22.3942C47.5999 22.276 46.7456 21.8004 46.1538 21.0677C45.5621 20.3349 45.2792 19.4022 45.3646 18.466C45.8337 14.1807 47.5051 10.1133 50.1875 6.72904C52.764 3.48371 56.4086 1.24761 60.4791 0.414737C64.149 -0.419413 67.9878 -0.110877 71.4757 1.29857C74.9635 2.70801 77.932 5.15027 79.9791 8.29466C81.5734 10.6657 82.6389 13.349 83.1041 16.1642C83.5846 18.9944 83.4029 21.8967 82.5729 24.6455C80.8229 30.2962 76.25 35.2523 68.1875 37.1186V41.3489L120.01 82.8222C120.51 83.1747 120.969 83.5376 121.406 83.859C121.844 84.1804 122.448 84.7196 122.833 85.1032C125.001 87.0503 126.626 89.5218 127.552 92.2781C128.206 94.31 128.151 96.5022 127.396 98.4991C126.577 100.513 125.073 102.176 123.146 103.196C120.705 104.437 117.99 105.047 115.25 104.969H114.937H12.6875C9.60319 105.075 6.56373 104.211 3.99998 102.501C2.31811 101.342 1.06334 99.6671 0.427068 97.7318C-0.174881 95.7903 -0.134716 93.7078 0.541652 91.7908C1.59809 88.9928 3.50181 86.5907 5.98957 84.9166Z" fill="#4B4B4B"/>
</g>
<defs>
<clipPath id="clip0_290_44">
<rect width="128" height="105" fill="white"/>
</clipPath>
</defs>
</svg>
