<svg width="128" height="128" viewBox="0 0 128 128" fill="none" xmlns="http://www.w3.org/2000/svg">
<g clip-path="url(#clip0_368_42)">
<path d="M64.4819 60.2401L11.3564 102.756L11.1001 102.941C9.86788 103.729 8.90552 104.876 8.34177 106.227C8.14112 106.667 8.1108 107.166 8.25669 107.627C8.40258 108.088 8.71428 108.479 9.13132 108.723C10.4453 109.502 11.966 109.861 13.4892 109.75H114.142H114.47C115.94 109.814 117.405 109.518 118.735 108.887C119.187 108.676 119.55 108.312 119.761 107.86C119.923 107.373 119.923 106.847 119.761 106.361C119.212 104.847 118.283 103.499 117.064 102.448C116.715 102.119 116.387 101.822 116.039 101.544C115.69 101.267 115.28 100.949 114.88 100.651L114.726 100.538L64.4819 60.2401ZM6.89597 97.1078L60.9135 53.9037V46.715C60.9156 45.8093 61.2571 44.9373 61.8704 44.2717C62.4838 43.6061 63.3243 43.1953 64.2256 43.1207C70.747 42.2888 74.2539 39.0128 75.4126 35.2542C75.8936 33.5864 75.9952 31.8317 75.7099 30.1194C75.4308 28.3561 74.7807 26.6724 73.8027 25.1797C72.5417 23.2679 70.7239 21.7911 68.5959 20.9496C66.468 20.1082 64.1331 19.9429 61.9082 20.4763C59.5535 20.9821 57.4517 22.3018 55.9712 24.2041C54.1767 26.5136 53.0679 29.2825 52.7719 32.1938C52.6223 33.1128 52.1223 33.9378 51.3774 34.495C50.6325 35.0522 49.7008 35.2981 48.7784 35.1809C47.8561 35.0638 47.0151 34.5928 46.4327 33.867C45.8502 33.1413 45.5717 32.2175 45.6557 31.2901C46.1175 27.0456 47.7628 23.017 50.4033 19.665C52.9396 16.4505 56.5272 14.2357 60.5342 13.4108C64.1467 12.5846 67.9255 12.8902 71.3589 14.2862C74.7922 15.6822 77.7143 18.1012 79.7295 21.2157C81.2988 23.5641 82.3477 26.2219 82.8056 29.0103C83.2786 31.8135 83.0997 34.6882 82.2827 37.4108C80.56 43.0077 76.0586 47.9166 68.122 49.7651V53.9551L119.135 95.0334C119.627 95.3826 120.079 95.742 120.509 96.0603C120.94 96.3787 121.535 96.9127 121.914 97.2927C124.048 99.2213 125.648 101.669 126.559 104.399C127.203 106.412 127.148 108.583 126.405 110.561C125.6 112.556 124.118 114.203 122.222 115.213C119.819 116.442 117.146 117.046 114.449 116.969H114.142H13.4892C10.4531 117.074 7.46116 116.219 4.93747 114.525C3.28188 113.377 2.04672 111.718 1.42038 109.801C0.827841 107.878 0.867378 105.815 1.53318 103.917C2.57311 101.145 4.44709 98.766 6.89597 97.1078Z" fill="#4B4B4B"/>
</g>
<defs>
<clipPath id="clip0_368_42">
<rect width="126" height="104" fill="white" transform="translate(1 13)"/>
</clipPath>
</defs>
</svg>
