<svg width="123" height="102" viewBox="0 0 123 102" fill="none" xmlns="http://www.w3.org/2000/svg">
<g clip-path="url(#clip0_290_44)">
<path d="M61.91 46L10.1 87.4L9.84999 87.58C8.64831 88.3477 7.70978 89.4642 7.15999 90.78C6.96431 91.2084 6.93474 91.6943 7.07702 92.1433C7.2193 92.5923 7.52328 92.9724 7.92999 93.21C9.21147 93.9691 10.6945 94.318 12.18 94.21H110.34H110.66C112.094 94.2727 113.522 93.9844 114.82 93.37C115.26 93.1644 115.614 92.8104 115.82 92.37C115.978 91.8961 115.978 91.3838 115.82 90.91C115.284 89.4355 114.379 88.1235 113.19 87.1C112.85 86.78 112.53 86.49 112.19 86.22C111.85 85.95 111.45 85.64 111.06 85.35L110.91 85.24L61.91 46ZM5.74999 81.9L58.43 39.83V32.83C58.432 31.948 58.765 31.0989 59.3632 30.4508C59.9613 29.8026 60.781 29.4026 61.66 29.33C68.02 28.52 71.44 25.33 72.57 21.67C73.0391 20.0459 73.1382 18.3374 72.86 16.67C72.5877 14.953 71.9537 13.3134 71 11.86C69.7702 9.99835 67.9974 8.56026 65.9222 7.7409C63.8469 6.92154 61.5698 6.76061 59.4 7.27997C57.1036 7.7725 55.0538 9.05759 53.61 10.91C51.8599 13.1588 50.7786 15.8551 50.49 18.69C50.344 19.5848 49.8565 20.3881 49.13 20.9307C48.4035 21.4732 47.4949 21.7127 46.5954 21.5987C45.6959 21.4846 44.8757 21.0259 44.3077 20.3192C43.7396 19.6125 43.468 18.713 43.55 17.81C44.0004 13.6769 45.6049 9.754 48.18 6.48997C50.6535 3.35992 54.1523 1.20326 58.06 0.399966C61.5831 -0.404551 65.2683 -0.106976 68.6167 1.2524C71.965 2.61177 74.8147 4.96728 76.78 7.99997C78.3104 10.2868 79.3334 12.8748 79.78 15.59C80.2413 18.3196 80.0667 21.1188 79.27 23.77C77.59 29.22 73.2 34 65.46 35.8V39.88L115.21 79.88C115.69 80.22 116.13 80.57 116.55 80.88C116.97 81.19 117.55 81.71 117.92 82.08C120.001 83.9579 121.561 86.3416 122.45 89C123.078 90.9597 123.025 93.074 122.3 95C121.514 96.9423 120.07 98.546 118.22 99.53C115.877 100.727 113.27 101.315 110.64 101.24H110.34H12.18C9.21907 101.342 6.30119 100.509 3.83999 98.86C2.2254 97.7419 1.02082 96.1265 0.409993 94.26C-0.167879 92.3875 -0.12932 90.3789 0.519993 88.53C1.53417 85.8314 3.36175 83.5146 5.74999 81.9Z" fill="black"/>
</g>
<defs>
<clipPath id="clip0_290_44">
<rect width="122.88" height="101.27" fill="white"/>
</clipPath>
</defs>
</svg>
