<svg width="54" height="121" viewBox="0 0 54 121" fill="none" xmlns="http://www.w3.org/2000/svg">
<g clip-path="url(#clip0_290_39)">
<path fill-rule="evenodd" clip-rule="evenodd" d="M16.5382 39.7729L6.07466 90.6194H16.5382V115.372C16.5382 118.467 18.6962 121 21.3357 121C23.9732 121 26.1332 118.467 26.1332 115.372V90.6194H28.0232V115.372C28.0232 118.467 30.1812 121 32.8208 121C35.4583 121 37.6163 118.467 37.6163 115.372V90.6194H47.4894L37.6163 41.0947V38.3376H39.1678L39.2766 38.3045L46.6794 69.2101C47.2356 71.5369 49.2948 72.8942 51.2775 72.2415C53.2602 71.5889 54.4167 69.1722 53.8606 66.8455L46.3591 35.5308C46.3147 35.3463 46.2623 35.1666 46.1999 34.9964C45.2488 30.3523 44.8257 27.5762 42.434 25.4622C37.9871 21.5322 16.4999 21.5346 12.0529 25.467C9.46981 27.7536 8.53086 31.2461 7.40451 36.1787L7.47907 36.2L0.138693 66.8455C-0.417426 69.1722 0.739141 71.5889 2.72183 72.2415C4.70451 72.8942 6.76377 71.5369 7.31989 69.2101L14.7247 38.2974L14.8618 38.3376H16.5382V39.7729ZM27.0138 0C31.8053 0 35.69 4.55899 35.69 10.1821C35.69 15.8051 31.8053 20.3617 27.0138 20.3617C22.2243 20.3617 18.3395 15.8051 18.3395 10.1821C18.3395 4.55899 22.2243 0 27.0138 0Z" fill="#F576AB"/>
</g>
<defs>
<clipPath id="clip0_290_39">
<rect width="54" height="121" fill="white"/>
</clipPath>
</defs>
</svg>
