<svg width="128" height="128" viewBox="0 0 128 128" fill="none" xmlns="http://www.w3.org/2000/svg">
<g clip-path="url(#clip0_368_36)">
<path fill-rule="evenodd" clip-rule="evenodd" d="M53.457 42.0738L42.4122 95.8618H53.457V122.047C53.457 125.321 55.7349 128 58.5211 128C61.3051 128 63.5851 125.321 63.5851 122.047V95.8618H65.5801V122.047C65.5801 125.321 67.858 128 70.6442 128C73.4283 128 75.7061 125.321 75.7061 122.047V95.8618H86.1278L75.7061 43.4721V40.5555H77.3438L77.4587 40.5205L85.2728 73.214C85.8598 75.6754 88.0335 77.1112 90.1263 76.4208C92.2191 75.7304 93.4399 73.1739 92.8529 70.7126L84.9346 37.5863C84.8878 37.3912 84.8325 37.2011 84.7666 37.021C83.7627 32.1082 83.3161 29.1715 80.7915 26.9353C76.0975 22.7779 53.4166 22.7804 48.7226 26.9403C45.996 29.3591 45.0048 33.0537 43.8159 38.2717L43.8946 38.2942L36.1464 70.7126C35.5594 73.1739 36.7802 75.7304 38.8731 76.4208C40.9659 77.1112 43.1396 75.6754 43.7266 73.214L51.5428 40.5129L51.6874 40.5555H53.457V42.0738ZM64.5146 0C69.5723 0 73.6729 4.82273 73.6729 10.7711C73.6729 16.7195 69.5723 21.5397 64.5146 21.5397C59.459 21.5397 55.3584 16.7195 55.3584 10.7711C55.3584 4.82273 59.459 0 64.5146 0Z" fill="#4B4B4B"/>
</g>
<defs>
<clipPath id="clip0_368_36">
<rect width="57" height="128" fill="white" transform="translate(36)"/>
</clipPath>
</defs>
</svg>
