<svg width="57" height="128" viewBox="0 0 57 128" fill="none" xmlns="http://www.w3.org/2000/svg">
<g clip-path="url(#clip0_290_39)">
<path fill-rule="evenodd" clip-rule="evenodd" d="M17.457 42.0738L6.41219 95.8618H17.457V122.047C17.457 125.321 19.7349 128 22.5211 128C25.3051 128 27.5851 125.321 27.5851 122.047V95.8618H29.5801V122.047C29.5801 125.321 31.858 128 34.6442 128C37.4283 128 39.7061 125.321 39.7061 122.047V95.8618H50.1278L39.7061 43.4721V40.5555H41.3438L41.4587 40.5205L49.2728 73.214C49.8598 75.6754 52.0335 77.1112 54.1263 76.4208C56.2191 75.7304 57.4399 73.1739 56.8529 70.7126L48.9346 37.5863C48.8878 37.3912 48.8325 37.2011 48.7666 37.021C47.7627 32.1082 47.3161 29.1715 44.7915 26.9353C40.0975 22.7779 17.4166 22.7804 12.7226 26.9403C9.99596 29.3591 9.00484 33.0537 7.81592 38.2717L7.89461 38.2942L0.146443 70.7126C-0.440572 73.1739 0.780249 75.7304 2.87308 76.4208C4.96592 77.1112 7.13958 75.6754 7.72659 73.214L15.5428 40.5129L15.6874 40.5555H17.457V42.0738ZM28.5146 0C33.5723 0 37.6729 4.82273 37.6729 10.7711C37.6729 16.7195 33.5723 21.5397 28.5146 21.5397C23.459 21.5397 19.3584 16.7195 19.3584 10.7711C19.3584 4.82273 23.459 0 28.5146 0Z" fill="#4B4B4B"/>
</g>
<defs>
<clipPath id="clip0_290_39">
<rect width="57" height="128" fill="white"/>
</clipPath>
</defs>
</svg>
